<?xml version='1.0' encoding='utf-8'?>
<svg xmlns="http://www.w3.org/2000/svg" version="1.1" width="176pt" height="176pt" viewBox="0 0 176 176"><defs><clipPath id="clip_1">
<path transform="matrix(.75,0,0,.75,0,0)" d="M0 0V1122.4H1587.36V0Z" clip-rule="evenodd" />
</clipPath>
<clipPath id="clip_128">
<path transform="matrix(.75,0,0,.75,0,0)" d="M0 0V1122.4H1587.36V0Z" clip-rule="evenodd" />
</clipPath>
<clipPath id="clip_3">
<path transform="matrix(.75,0,0,.75,0,0)" d="M0 0V1122.4H1587.36V0Z" clip-rule="evenodd" />
</clipPath>
</defs><g transform="translate(-493,-409)"><g clip-path="url(#clip_1)"><path transform="matrix(.75,0,0,.75,505.19999,415.44)" d="M0 0H201.6C203.52 0 205.44 .64 206.88 2.24 208.48 3.68 209.12 5.76 209.12 7.52V209.12C209.12 210.88 208.48 212.96 206.88 214.4 205.44 216 203.52 216.64 201.6 216.64H0C-.8 216.64-1.76 216.48-2.72 216.16-3.68 215.68-4.48 215.2-5.28 214.4-6.08 213.76-6.56 212.8-7.04 211.84-7.36 210.88-7.52 209.92-7.52 209.12V7.52C-7.52 5.6-6.72 3.68-5.28 2.24-3.84 .8-1.92 0 0 0ZM58.08 6.24H15.36L-1.28 22.72V65.6L58.08 6.24ZM202.88 65.6V22.72L186.4 6.24H143.52L202.88 65.6ZM202.88 108.32 100.8 6.24-1.28 108.32V151.04L100.8 48.96 202.88 151.04V108.32ZM202.88 210.4V193.76L100.8 91.84-1.28 193.76V210.4H24.96L100.8 134.56 176.64 210.4H202.88ZM133.92 210.4 100.8 177.28 67.84 210.4H133.92Z" fill="#fed218" fill-rule="evenodd" />
</g><g clip-path="url(#clip_3)"><path transform="matrix(.75,0,0,.75,0,0)" stroke-width=".48" stroke-linecap="butt" stroke-linejoin="bevel" fill="none" stroke="#000000" d="M660.8 673.76 656.96 677.6" />
</g><g clip-path="url(#clip_3)"><path transform="matrix(.75,0,0,.75,0,0)" stroke-width=".48" stroke-linecap="butt" stroke-linejoin="bevel" fill="none" stroke="#000000" d="M660.32 716.96 656.48 720.8" />
</g><g clip-path="url(#clip_3)"><path transform="matrix(.75,0,0,.75,0,0)" stroke-width=".48" stroke-linecap="butt" stroke-linejoin="bevel" fill="none" stroke="#000000" d="M659.68 760.48 655.84 764.32" />
</g><g clip-path="url(#clip_3)"><path transform="matrix(.75,0,0,.75,0,0)" stroke-width=".48" stroke-linecap="butt" stroke-linejoin="bevel" fill="none" stroke="#000000" d="M656.96 634.88 653.12 638.72" />
</g><g clip-path="url(#clip_3)"><path transform="matrix(.75,0,0,.75,495.84,572.27999)" d="M0 0V-201.6C0-203.04 .16-204.64 .8-206.24 1.44-207.84 2.4-209.28 3.68-210.56 4.8-211.68 6.4-212.64 7.84-213.28 9.44-213.92 11.04-214.24 12.48-214.24H214.08C215.52-214.24 217.12-213.92 218.72-213.28 220.32-212.64 221.76-211.68 223.04-210.56 224.32-209.28 225.12-207.84 225.76-206.24 226.4-204.64 226.72-203.04 226.72-201.6V0C226.72 1.44 226.4 3.04 225.76 4.64 225.12 6.24 224.32 7.68 223.04 8.96 221.76 10.08 220.32 11.04 218.72 11.68 217.12 12.32 215.52 12.64 214.08 12.64H12.48C11.04 12.64 9.44 12.32 7.84 11.68 6.4 11.04 4.8 10.08 3.68 8.96 2.4 7.68 1.44 6.24 .8 4.64 .16 3.04 0 1.44 0 0ZM4.96-201.6V0C4.96 1.76 5.6 3.84 7.2 5.28 8 6.08 8.8 6.56 9.76 7.04 10.72 7.36 11.68 7.52 12.48 7.52H214.08C216 7.52 217.92 6.88 219.36 5.28 220.16 4.64 220.8 3.68 221.12 2.72 221.44 1.76 221.6 .8 221.6 0V-201.6C221.6-203.36 220.96-205.44 219.36-206.88 217.92-208.48 216-209.12 214.08-209.12H12.48C10.72-209.12 8.64-208.48 7.2-206.88 5.6-205.44 4.96-203.36 4.96-201.6Z" fill-rule="evenodd" />
</g><g clip-path="url(#clip_3)"><path transform="matrix(.75,0,0,.75,0,0)" d="M672.32 619.52V576.64L688.96 560.16H731.68Z" fill-rule="evenodd" />
</g><g clip-path="url(#clip_3)"><path transform="matrix(.75,0,0,.75,0,0)" d="M817.12 560.16H860L876.48 576.64V619.52Z" fill-rule="evenodd" />
</g><g clip-path="url(#clip_3)"><path transform="matrix(.75,0,0,.75,0,0)" d="M876.48 704.96 774.4 602.88 672.32 704.96V662.24L774.4 560.16 876.48 662.24Z" fill-rule="evenodd" />
</g><g clip-path="url(#clip_3)"><path transform="matrix(.75,0,0,.75,637.68,573.24)" d="M0 0-75.84-75.84-151.68 0H-177.92V-16.64L-75.84-118.56 26.24-16.64V0Z" fill-rule="evenodd" />
</g><g clip-path="url(#clip_3)"><path transform="matrix(.75,0,0,.75,0,0)" d="M741.44 764.32 774.4 731.2 807.52 764.32Z" fill-rule="evenodd" />
</g><g clip-path="url(#clip_128)"><path transform="matrix(.75,0,0,.75,494.03999,417.59999)" d="M0 0 .64-.48-1.6-2.88-.96-3.52C-.8-3.68-.8-3.84-.64-3.84-.48-4-.32-4-.32-4-.16-4 .16-4 .32-3.84 .64-3.84 1.12-3.68 1.6-3.52L3.2-2.88 4-3.68 1.76-4.48C1.28-4.48 .96-4.64 .64-4.64 .48-4.64 .16-4.64 0-4.64 .32-5.12 .48-5.6 .48-6.08 .32-6.4 .16-6.88-.16-7.36-.48-7.52-.8-7.84-1.12-8-1.6-8-1.92-8.16-2.24-8-2.4-7.84-2.88-7.68-3.2-7.36L-5.12-5.44 0 0ZM-2.24-3.52-4-5.44-2.56-6.72C-2.24-7.04-1.92-7.2-1.6-7.2-1.28-7.04-1.12-7.04-.8-6.72-.64-6.56-.48-6.4-.48-6.08-.32-5.92-.48-5.6-.48-5.44-.64-5.28-.8-4.96-.96-4.8L-2.24-3.52Z" fill-rule="evenodd" />
</g><g clip-path="url(#clip_128)"><path transform="matrix(.75,0,0,.75,496.19999,413.52)" d="M0 0C.48 .48 .96 .64 1.44 .8 2.08 .8 2.4 .64 2.88 .16 3.36-.16 3.52-.8 3.36-1.6 3.36-2.08 3.04-2.72 2.56-3.2 2.08-3.68 1.44-4 .96-4 .32-4.16-.16-4-.48-3.68-.8-3.36-.96-3.04-.96-2.56L-2.24-4.16-.48-5.92-1.12-6.56-3.2-4.48-.96-1.28-.48-1.6C-.48-1.76-.48-2.08-.48-2.24-.32-2.56-.32-2.72-.16-2.88 .16-3.2 .48-3.2 .96-3.2 1.28-3.2 1.6-2.88 2.08-2.56 2.4-2.08 2.56-1.76 2.72-1.28 2.72-.96 2.56-.64 2.4-.32 2.08-.16 1.92 0 1.6 0 1.28-.16 .96-.32 .48-.48L0 0Z" fill-rule="evenodd" />
</g><g clip-path="url(#clip_128)"><path transform="matrix(.75,0,0,.75,497.88,410.16)" d="M0 0C.96 1.12 1.76 1.6 2.56 1.76 3.2 1.92 3.68 1.92 4 1.44 4.32 1.12 4.48 .8 4.48 .32 4.48 0 4.48-.48 4.16-.96 3.84-1.44 3.52-2.08 2.88-2.72 2.24-3.2 1.92-3.68 1.44-3.84 1.12-4.16 .8-4.32 .48-4.48 .16-4.64-.16-4.64-.48-4.48-.8-4.48-.96-4.32-1.28-4.16-1.6-3.84-1.76-3.52-1.76-3.04-1.76-2.72-1.6-2.24-1.28-1.76-1.12-1.12-.64-.64 0 0ZM.48-.48C-.32-1.44-.8-2.08-.96-2.56-1.12-3.04-.96-3.36-.8-3.52-.48-3.84-.16-3.84 .32-3.68 .8-3.52 1.44-3.04 2.24-2.24 3.2-1.28 3.68-.64 3.68-.16 3.84 .32 3.84 .64 3.52 .96 3.36 1.12 2.88 1.12 2.56 1.12 2.08 .96 1.44 .32 .48-.48Z" fill-rule="evenodd" />
</g><g clip-path="url(#clip_128)"><path transform="matrix(.75,0,0,.75,487.91999,569.4)" d="M0 0C-1.12 .96-1.6 1.92-1.76 2.56-1.92 3.2-1.76 3.68-1.44 4.16-1.12 4.48-.64 4.64-.32 4.64 .16 4.64 .64 4.48 1.12 4.16 1.6 3.84 2.08 3.36 2.72 2.72 3.2 2.24 3.68 1.76 3.84 1.44 4.16 1.12 4.32 .64 4.48 .32 4.48 0 4.64-.32 4.48-.48 4.48-.8 4.32-1.12 4-1.28 3.84-1.6 3.36-1.76 3.04-1.76 2.56-1.76 2.08-1.6 1.6-1.44 1.12-1.12 .64-.64 0 0Z" fill-rule="evenodd" />
</g><g clip-path="url(#clip_128)"><path transform="matrix(.75,0,0,.75,674.52,498.36)" d="M0 0C.64 0 1.12-.16 1.44-.48 1.76-.8 1.92-1.12 1.92-1.6 1.92-2.08 1.76-2.4 1.44-2.72 1.28-3.04 .8-3.36 .16-3.52-.32-3.68-1.12-3.84-2.08-3.84-3.04-3.84-3.68-3.68-4.16-3.52-4.8-3.36-5.12-3.04-5.44-2.72-5.6-2.4-5.76-2.08-5.76-1.76-5.76-1.12-5.6-.64-5.12-.32-4.64 0-4 .16-3.2 .16-2.4 .16-1.92 0-1.44-.32-.96-.64-.8-1.12-.8-1.6-.8-1.92-.8-2.24-.96-2.4-1.28-2.72-1.44-2.88-1.76-3.04H-1.6C-1.12-3.04-.8-3.04-.48-2.88 0-2.88 .32-2.72 .48-2.72 .64-2.56 .8-2.4 .96-2.24 1.12-2.08 1.12-1.92 1.12-1.6 1.12-1.44 1.12-1.12 .96-.96 .64-.8 .48-.64 0-.64V0ZM-3.2-2.88C-2.72-2.88-2.24-2.88-2.08-2.56-1.76-2.4-1.6-2.08-1.6-1.76-1.6-1.44-1.76-1.12-2.08-.96-2.24-.64-2.72-.64-3.2-.64-3.68-.64-4.16-.64-4.48-.96-4.8-1.12-4.96-1.44-4.96-1.76-4.96-2.08-4.8-2.4-4.48-2.56-4.16-2.88-3.84-2.88-3.2-2.88Z" fill-rule="evenodd" />
</g><g clip-path="url(#clip_128)"><path transform="matrix(.75,0,0,.75,673.08,495)" d="M0 0C1.44 0 2.4-.16 3.04-.64 3.68-.96 3.84-1.44 3.84-1.92 3.84-2.4 3.68-2.88 3.36-3.04 3.2-3.36 2.72-3.68 2.24-3.68 1.6-3.84 .96-4 0-4-.8-4-1.28-4-1.76-3.84-2.24-3.68-2.56-3.68-2.88-3.52-3.2-3.36-3.36-3.04-3.68-2.88-3.84-2.56-3.84-2.4-3.84-1.92-3.84-1.6-3.68-1.12-3.36-.96-3.04-.64-2.72-.32-2.08-.32-1.6-.16-.8 0 0 0ZM0-.8C-1.28-.8-2.08-.96-2.56-1.12-2.88-1.44-3.04-1.6-3.04-1.92-3.04-2.4-2.88-2.56-2.4-2.88-2.08-3.04-1.28-3.2 0-3.2 1.28-3.2 2.08-3.04 2.56-2.88 2.88-2.56 3.04-2.4 3.04-1.92 3.04-1.6 2.88-1.44 2.56-1.12 2.08-.96 1.28-.8 0-.8Z" fill-rule="evenodd" />
</g><g clip-path="url(#clip_128)"><path transform="matrix(.75,0,0,.75,673.08,491.40003)" d="M0 0C1.44 0 2.4-.16 3.04-.48 3.68-.8 3.84-1.28 3.84-1.92 3.84-2.4 3.68-2.72 3.36-3.04 3.2-3.36 2.72-3.52 2.24-3.68 1.6-3.84 .96-3.84 0-3.84-.8-3.84-1.28-3.84-1.76-3.68-2.24-3.68-2.56-3.52-2.88-3.36-3.2-3.2-3.36-3.04-3.68-2.72-3.84-2.56-3.84-2.24-3.84-1.92-3.84-1.44-3.68-1.12-3.36-.8-3.04-.48-2.72-.32-2.08-.16-1.6 0-.96 0 0 0ZM0-.64C-1.28-.64-2.08-.8-2.56-1.12-2.88-1.28-3.04-1.6-3.04-1.92-3.04-2.24-2.88-2.56-2.4-2.72-2.08-3.04-1.28-3.04 0-3.04 1.28-3.04 2.08-3.04 2.56-2.72 2.88-2.56 3.04-2.24 3.04-1.92 3.04-1.6 2.88-1.28 2.56-.96 2.08-.8 1.28-.64 0-.64Z" fill-rule="evenodd" />
</g></g></svg>
