<?xml version='1.0' encoding='utf-8'?>
<svg xmlns="http://www.w3.org/2000/svg" version="1.1" width="175pt" height="175pt" viewBox="0 0 175 175"><defs><clipPath id="clip_1">
<path transform="matrix(.75,0,0,.75,0,0)" d="M0 0V1122.4H1587.36V0Z" clip-rule="evenodd" />
</clipPath>
<clipPath id="clip_3">
<path transform="matrix(.75,0,0,.75,0,0)" d="M0 0V1122.4H1587.36V0Z" clip-rule="evenodd" />
</clipPath>
<clipPath id="clip_4">
<path transform="matrix(.75,0,0,.75,0,0)" d="M0 0V1122.4H1587.36V0Z" clip-rule="evenodd" />
</clipPath>
<clipPath id="clip_61">
<path transform="matrix(.75,0,0,.75,0,0)" d="M0 0V1122.4H1587.36V0Z" clip-rule="evenodd" />
</clipPath>
<clipPath id="clip_64">
<path transform="matrix(.75,0,0,.75,0,0)" d="M0 0V1122.4H1587.36V0Z" clip-rule="evenodd" />
</clipPath>
</defs><g transform="translate(-535,-135)"><g clip-path="url(#clip_1)"><path transform="matrix(.75,0,0,.75,584.4,151.79999)" d="M0 0C-.64 0-1.44 .32-1.92 .8-2.24 1.12-2.4 1.44-2.56 1.76-2.72 2.08-2.72 2.56-2.72 2.88V25.12C-2.72 25.76-2.56 26.56-1.92 27.04-1.44 27.68-.64 28 0 28H5.6C6.4 28 7.04 27.68 7.68 27.04 8 26.88 8.16 26.56 8.32 26.08 8.48 25.76 8.48 25.44 8.48 25.12V2.88C8.48 2.08 8.32 1.44 7.68 .8 7.04 .32 6.4 0 5.6 0H0Z" fill="#fed218" fill-rule="evenodd" />
</g><g clip-path="url(#clip_1)"><path transform="matrix(.75,0,0,.75,626.52,162.6)" d="M0 0C0-.8-.16-1.6-.8-2.24-1.44-3.04-2.24-3.36-2.88-3.36-3.68-3.36-4.48-3.04-5.12-2.56-5.44-2.24-5.76-1.76-5.92-1.44-6.08-1.12-6.08-.64-6.08-.32V2.24H0V0Z" fill="#fed218" fill-rule="evenodd" />
</g><g clip-path="url(#clip_1)"><path transform="matrix(.75,0,0,.75,662.64,162.6)" d="M0 0C0-.8-.16-1.6-.8-2.24-1.44-3.04-2.24-3.36-2.88-3.36-3.68-3.36-4.48-3.04-5.12-2.56-5.44-2.24-5.76-1.76-5.92-1.44-6.08-1.12-6.08-.64-6.08-.32V2.24H0V0Z" fill="#fed218" fill-rule="evenodd" />
</g><g clip-path="url(#clip_1)"><path transform="matrix(.75,0,0,.75,618.72006,202.32)" d="M0 0C0-.8-.16-1.6-.8-2.24-1.44-2.88-2.24-3.2-2.88-3.36-3.68-3.36-4.48-3.04-5.12-2.4-5.44-2.08-5.76-1.76-5.92-1.44-6.08-.96-6.08-.64-6.08-.32V2.24H0V0Z" fill="#fed218" fill-rule="evenodd" />
</g><g clip-path="url(#clip_1)"><path transform="matrix(.75,0,0,.75,652.56,202.32)" d="M0 0C.16-.8-.16-1.6-.64-2.24-1.28-2.88-2.08-3.2-2.88-3.36-3.68-3.36-4.48-3.04-5.12-2.4-5.44-2.08-5.6-1.76-5.76-1.44-5.92-.96-5.92-.64-5.92-.32V2.24H0V0Z" fill="#fed218" fill-rule="evenodd" />
</g><g clip-path="url(#clip_1)"><path transform="matrix(.75,0,0,.75,647.27999,248.40001)" d="M0 0C-.32 .32-.64 .8-.96 1.28-1.12 1.76-1.28 2.24-1.28 2.72V3.84C-1.28 4.16-1.12 4.32-.96 4.64-.64 4.8-.32 4.96-.16 4.96H2.88C3.2 4.96 3.52 4.8 3.68 4.64 3.84 4.48 4 4.32 4 4.16 4 4.16 4 4 4 3.84V-3.36L0 0Z" fill="#fed218" fill-rule="evenodd" />
</g><g clip-path="url(#clip_1)"><path transform="matrix(.75,0,0,.75,586.80007,240.48001)" d="M0 0C0-.32-.16-.48-.32-.8-.48-.96-.64-.96-.8-.96-.8-1.12-.96-1.12-1.12-1.12H-4.16C-4.48-1.12-4.64-.96-4.96-.8-5.12-.64-5.12-.48-5.12-.48-5.28-.32-5.28-.16-5.28 0V14.4C-5.28 14.72-5.12 14.88-4.96 15.2-4.8 15.36-4.64 15.36-4.48 15.36-4.48 15.52-4.32 15.52-4.16 15.52H-1.12C-.8 15.52-.64 15.36-.32 15.2-.32 15.04-.16 14.88-.16 14.72 0 14.72 0 14.56 0 14.4V0Z" fill="#fed218" fill-rule="evenodd" />
</g><g clip-path="url(#clip_1)"><path transform="matrix(.75,0,0,.75,0,0)" d="M722.4 202.72C722.4 201.12 722.56 199.2 723.36 197.44 724 195.68 725.12 194.08 726.56 192.64 728 191.2 729.6 190.08 731.36 189.44 733.12 188.64 735.04 188.48 736.64 188.48H923.36C925.12 188.48 926.88 188.64 928.64 189.44 930.4 190.08 932.16 191.2 933.6 192.64 935.04 194.08 936 195.68 936.8 197.44 937.44 199.2 937.76 201.12 937.76 202.72V389.44C937.76 391.2 937.44 392.96 936.8 394.72 936 396.48 935.04 398.24 933.6 399.68 932.16 401.12 930.4 402.08 928.64 402.88 926.88 403.52 925.12 403.84 923.36 403.84H736.64C735.04 403.84 733.12 403.52 731.36 402.88 729.6 402.08 728 401.12 726.56 399.68 725.12 398.24 724 396.48 723.36 394.72 722.56 392.96 722.4 391.2 722.4 389.44V202.72ZM784.64 238.24V236.32C785.76 236.48 786.88 236.32 788 236 789.12 235.52 790.08 234.88 791.04 234.08 792 233.28 792.64 232.16 793.12 231.2 793.6 230.08 793.76 228.96 793.76 227.84V204.8C793.76 203.84 793.6 202.72 793.12 201.76 792.8 200.64 792.16 199.68 791.2 198.88 790.4 198.08 789.44 197.44 788.32 196.96 787.36 196.48 786.24 196.32 785.28 196.32H779.52C778.56 196.32 777.44 196.48 776.48 196.96 775.36 197.44 774.4 198.08 773.6 198.88 772.8 199.68 772.16 200.64 771.68 201.76 771.2 202.72 771.04 203.84 771.04 204.8V227.84C771.04 229.92 771.84 232.16 773.44 233.76 775.2 235.52 777.44 236.32 779.36 236.32V239.04C779.36 240.64 780 242.08 781.12 243.04 782.08 244.16 783.52 244.8 785.12 244.8H793.76V239.36H785.76C785.6 239.36 785.28 239.36 784.96 239.04 784.8 238.88 784.64 238.56 784.64 238.24ZM811.84 233.76V236.32H817.28V207.68H811.84V227.52C811.84 229.28 810.56 230.56 808.8 230.56 807.2 230.56 805.92 229.28 805.92 227.52V207.68H800.64V230.08C800.64 232.8 802.4 235.2 804.96 236 807.52 236.96 810.24 236 811.84 233.76ZM840.96 216.8C840.96 215.68 840.8 214.56 840.48 213.6 840.16 212.48 839.52 211.36 838.72 210.56 837.76 209.6 836.8 208.96 835.84 208.48 834.72 208.16 833.6 207.84 832.64 207.84 831.68 207.84 830.56 208 829.44 208.48 828.32 208.8 827.36 209.44 826.56 210.24 825.6 211.2 824.96 212.16 824.48 213.28 824.16 214.24 824 215.36 824 216.32V227.68C824 229.92 824.8 232 826.4 233.6 828 235.2 830.08 236.16 832.32 236.16 834.24 236.32 836.48 235.52 838.24 233.92 840 232.32 840.8 230.08 840.96 228.16H835.36C835.04 229.6 833.6 230.88 832.16 230.72 830.56 230.56 829.28 229.28 829.28 227.68V225.12H840.96V216.8ZM859.36 233.76V236.32H864.64V207.68H859.36V227.52C859.36 228.32 859.04 229.12 858.4 229.6 857.76 230.24 856.96 230.56 856.32 230.56 855.52 230.56 854.72 230.24 854.08 229.6 853.44 229.12 853.28 228.32 853.28 227.52V207.68H848V230.08C848 232.8 849.76 235.2 852.32 236 854.88 236.96 857.76 236 859.36 233.76ZM889.12 216.8C889.12 215.68 888.96 214.56 888.64 213.6 888.16 212.48 887.68 211.36 886.88 210.56 885.92 209.6 884.96 208.96 884 208.48 882.88 208.16 881.76 207.84 880.8 207.84 879.84 207.84 878.72 208 877.6 208.48 876.48 208.8 875.52 209.44 874.72 210.24 873.76 211.2 873.12 212.16 872.64 213.28 872.32 214.24 872.16 215.36 872.16 216.32V227.68C872.16 229.92 872.96 232 874.56 233.6 876.16 235.2 878.24 236.16 880.48 236.16 882.4 236.32 884.64 235.52 886.4 233.92 888.16 232.32 888.96 230.08 889.12 228.16H883.52C883.2 229.6 881.76 230.88 880.32 230.72 878.72 230.56 877.44 229.28 877.44 227.68V225.12H889.12V216.8ZM801.28 271.2V289.28H806.72V249.28H801.28V265.12H790.08V249.28H784V289.28H790.08V271.2H801.28ZM830.56 269.76C830.56 268.64 830.4 267.68 830.08 266.56 829.6 265.44 829.12 264.48 828.16 263.52 827.36 262.72 826.4 262.08 825.44 261.6 824.32 261.12 823.2 260.96 822.24 260.8 821.28 260.8 820.16 260.96 819.04 261.44 817.92 261.76 816.96 262.4 816.16 263.36 815.2 264.16 814.56 265.12 814.08 266.24 813.76 267.36 813.6 268.32 813.6 269.44V280.64C813.6 282.88 814.4 285.12 816 286.72 817.6 288.32 819.68 289.12 821.92 289.28 823.84 289.28 826.08 288.64 827.84 286.88 829.6 285.28 830.4 283.2 830.56 281.12H824.96C824.64 282.72 823.2 283.84 821.76 283.68 820.16 283.52 818.88 282.24 818.88 280.64V278.08H830.56V269.76ZM847.04 266.56H852V260.64H847.04C845.28 260.64 843.84 261.92 843.68 263.52V260.64H837.6V289.28H843.68V270.08C843.68 268.16 845.12 266.56 847.04 266.56ZM875.68 269.76C875.84 268.64 875.68 267.68 875.2 266.56 874.88 265.44 874.24 264.48 873.44 263.52 872.64 262.72 871.68 262.08 870.56 261.6 869.6 261.12 868.48 260.96 867.36 260.8 866.4 260.8 865.28 260.96 864.32 261.44 863.2 261.76 862.24 262.4 861.28 263.36 860.48 264.16 859.84 265.12 859.36 266.24 858.88 267.36 858.72 268.32 858.72 269.44V280.64C858.72 282.88 859.68 285.12 861.12 286.72 862.72 288.32 864.8 289.12 867.04 289.28 869.12 289.28 871.36 288.64 873.12 286.88 874.88 285.28 875.68 283.2 875.68 281.12H870.08C869.92 282.72 868.48 283.84 866.88 283.68 865.28 283.52 864.16 282.24 864.16 280.64V278.08H875.84L875.68 269.76ZM848.96 302.24H832.32V308.16H837.6V342.24H843.68V308.16H848.96V302.24ZM873.12 319.2C873.12 317.76 872.64 316.32 871.52 315.2 870.4 313.92 868.8 313.44 867.52 313.44H861.44C860 313.44 858.56 313.92 857.44 315.2 856.32 316.32 855.68 317.76 855.68 319.2V322.56H861.76V320.64C861.76 320.32 861.92 320.16 862.08 319.84 862.24 319.68 862.4 319.68 862.56 319.68 862.72 319.52 862.72 319.52 862.88 319.52H865.92C866.24 319.52 866.56 319.68 866.72 319.84 867.04 320.16 867.04 320.32 867.04 320.64V322.56L859.04 329.12C856.64 331.04 855.52 334.08 855.68 337.12 855.84 338.4 856.48 339.68 857.6 340.8 858.72 341.76 860.16 342.24 861.44 342.24H864.8C865.44 342.24 865.92 342.08 866.4 341.6 866.88 341.12 867.04 340.48 867.04 340 867.04 340.48 867.36 341.12 867.84 341.6 868 341.76 868.32 341.92 868.48 342.08 868.8 342.08 869.12 342.24 869.44 342.24H875.36C874.88 342.24 874.24 341.92 873.76 341.6 873.44 341.12 873.12 340.48 873.12 340V319.2ZM882.24 342.24H888.32L891.36 335.36 893.6 342.24H899.52L893.6 327.84 899.52 313.44H893.6L891.36 320.96 888.32 313.44H882.24L888.32 327.84 882.24 342.24ZM912.48 313.44H906.4V342.24H912.48V313.44ZM912.48 302.24H906.4V308.16H912.48V302.24ZM804.64 319.52H809.6V313.44H804.64C803.04 313.44 801.6 314.72 801.28 316.48V313.44H795.2V342.24H801.28V322.88C801.28 322.08 801.6 321.28 802.24 320.48 803.04 319.84 803.84 319.52 804.64 319.52ZM771.04 336C771.04 337.44 771.68 339.04 772.96 340.32 773.6 340.96 774.24 341.44 775.04 341.76 775.84 342.08 776.64 342.24 777.28 342.24H782.24C783.68 342.24 785.28 341.6 786.56 340.32 787.2 339.68 787.68 339.04 788 338.24 788.32 337.44 788.48 336.64 788.48 336V319.68C788.48 318.24 787.84 316.64 786.56 315.36 785.92 314.72 785.28 314.24 784.48 313.92 783.68 313.6 782.88 313.44 782.24 313.44H777.28C775.84 313.44 774.24 314.08 772.96 315.36 771.68 316.64 771.04 318.24 771.04 319.68V336ZM752.96 342.24V324H764.32V318.08H752.96V308.16H764.32V302.24H747.68V342.24H752.96ZM782.4 395.04H801.28L788.48 381.44H897.28V368.64H788.48L801.28 355.04H782.4L762.88 375.52 782.4 395.04Z" fill="#fed218" fill-rule="evenodd" />
</g><g clip-path="url(#clip_1)"><path transform="matrix(.75,0,0,.75,0,0)" stroke-width=".96" stroke-linecap="butt" stroke-linejoin="bevel" fill="none" stroke="#000000" d="M785.28 196.32H779.52" />
</g><g clip-path="url(#clip_1)"><path transform="matrix(.75,0,0,.75,0,0)" stroke-width=".96" stroke-linecap="butt" stroke-linejoin="bevel" fill="none" stroke="#000000" d="M785.12 244.8H793.76" />
</g><g clip-path="url(#clip_1)"><path transform="matrix(.75,0,0,.75,0,0)" stroke-width=".96" stroke-linecap="butt" stroke-linejoin="bevel" fill="none" stroke="#000000" d="M793.76 239.36H785.76" />
</g><g clip-path="url(#clip_1)"><path transform="matrix(.75,0,0,.75,0,0)" stroke-width=".96" stroke-linecap="butt" stroke-linejoin="bevel" fill="none" stroke="#000000" d="M779.2 202.4H784.8" />
</g><g clip-path="url(#clip_1)"><path transform="matrix(.75,0,0,.75,0,0)" stroke-width=".96" stroke-linecap="butt" stroke-linejoin="bevel" fill="none" stroke="#000000" d="M787.68 205.28V227.52" />
</g><g clip-path="url(#clip_1)"><path transform="matrix(.75,0,0,.75,0,0)" stroke-width=".96" stroke-linecap="butt" stroke-linejoin="bevel" fill="none" stroke="#000000" d="M784 289.28H790.08" />
</g><g clip-path="url(#clip_1)"><path transform="matrix(.75,0,0,.75,0,0)" stroke-width=".96" stroke-linecap="butt" stroke-linejoin="bevel" fill="none" stroke="#000000" d="M801.28 289.28H806.72" />
</g><g clip-path="url(#clip_1)"><path transform="matrix(.75,0,0,.75,572.16006,281.63999)" stroke-width=".96" stroke-linecap="butt" stroke-linejoin="bevel" fill="none" stroke="#000000" d="M0 0 19.52-20.48H38.4L25.6-6.88H134.4V5.92H25.6L38.4 19.52H19.52L0 0" />
</g><g clip-path="url(#clip_1)"><path transform="matrix(.75,0,0,.75,0,0)" stroke-width=".96" stroke-linecap="butt" stroke-linejoin="bevel" fill="none" stroke="#000000" d="M716.64 191.04V185.76" />
</g><g clip-path="url(#clip_1)"><path transform="matrix(.75,0,0,.75,0,0)" stroke-width=".96" stroke-linecap="butt" stroke-linejoin="bevel" fill="none" stroke="#000000" d="M721.12 185.76V179.68" />
</g><g clip-path="url(#clip_1)"><path transform="matrix(.75,0,0,.75,0,0)" stroke-width=".48" stroke-linecap="butt" stroke-linejoin="bevel" fill="none" stroke="#000000" d="M747.68 296.8V292.32" />
</g><g clip-path="url(#clip_1)"><path transform="matrix(.75,0,0,.75,0,0)" stroke-width=".48" stroke-linecap="butt" stroke-linejoin="bevel" fill="none" stroke="#000000" d="M912.48 299.2V291.52" />
</g><g clip-path="url(#clip_1)"><path transform="matrix(.75,0,0,.75,0,0)" stroke-width=".48" stroke-linecap="butt" stroke-linejoin="bevel" fill="none" stroke="#000000" d="M770.4 196.32H764.32" />
</g><g clip-path="url(#clip_1)"><path transform="matrix(.75,0,0,.75,0,0)" stroke-width=".48" stroke-linecap="butt" stroke-linejoin="bevel" fill="none" stroke="#000000" d="M770.4 236.32H763.52" />
</g><g clip-path="url(#clip_1)"><path transform="matrix(.75,0,0,.75,0,0)" stroke-width=".48" stroke-linecap="butt" stroke-linejoin="bevel" fill="none" stroke="#000000" d="M780.96 249.28H773.44" />
</g><g clip-path="url(#clip_1)"><path transform="matrix(.75,0,0,.75,0,0)" stroke-width=".48" stroke-linecap="butt" stroke-linejoin="bevel" fill="none" stroke="#000000" d="M780.96 289.28H774.08" />
</g><g clip-path="url(#clip_1)"><path transform="matrix(.75,0,0,.75,0,0)" stroke-width=".48" stroke-linecap="butt" stroke-linejoin="bevel" fill="none" stroke="#000000" d="M743.2 302.24H737.76" />
</g><g clip-path="url(#clip_1)"><path transform="matrix(.75,0,0,.75,0,0)" stroke-width=".48" stroke-linecap="butt" stroke-linejoin="bevel" fill="none" stroke="#000000" d="M743.2 342.24H736.32" />
</g><g clip-path="url(#clip_1)"><path transform="matrix(.75,0,0,.75,0,0)" stroke-width=".48" stroke-linecap="butt" stroke-linejoin="bevel" fill="none" stroke="#000000" d="M778.56 355.04H770.4" />
</g><g clip-path="url(#clip_1)"><path transform="matrix(.75,0,0,.75,0,0)" stroke-width=".48" stroke-linecap="butt" stroke-linejoin="bevel" fill="none" stroke="#000000" d="M777.92 395.04H771.84" />
</g><g clip-path="url(#clip_1)"><path transform="matrix(.75,0,0,.75,0,0)" stroke-width=".48" stroke-linecap="butt" stroke-linejoin="bevel" fill="none" stroke="#000000" d="M719.04 404.96H715.2" />
</g><g clip-path="url(#clip_1)"><path transform="matrix(.75,0,0,.75,0,0)" stroke-width=".48" stroke-linecap="butt" stroke-linejoin="bevel" fill="none" stroke="#000000" d="M723.52 409.44H717.44" />
</g><g clip-path="url(#clip_1)"><path transform="matrix(.75,0,0,.75,0,0)" stroke-width=".48" stroke-linecap="butt" stroke-linejoin="bevel" fill="none" stroke="#000000" d="M805.92 395.04H813.44" />
</g><g clip-path="url(#clip_1)"><path transform="matrix(.75,0,0,.75,0,0)" stroke-width=".48" stroke-linecap="butt" stroke-linejoin="bevel" fill="none" stroke="#000000" d="M805.92 355.04H814.24" />
</g><g clip-path="url(#clip_1)"><path transform="matrix(.75,0,0,.75,0,0)" stroke-width=".48" stroke-linecap="butt" stroke-linejoin="bevel" fill="none" stroke="#000000" d="M897.28 385.28V390.56" />
</g><g clip-path="url(#clip_1)"><path transform="matrix(.75,0,0,.75,0,0)" stroke-width=".48" stroke-linecap="butt" stroke-linejoin="bevel" fill="none" stroke="#000000" d="M762.88 379.2V386.08" />
</g><g clip-path="url(#clip_1)"><path transform="matrix(.75,0,0,.75,0,0)" stroke-width=".48" stroke-linecap="butt" stroke-linejoin="bevel" fill="none" stroke="#000000" d="M803.68 396.64 806.72 399.68" />
</g><g clip-path="url(#clip_1)"><path transform="matrix(.75,0,0,.75,0,0)" stroke-width=".48" stroke-linecap="butt" stroke-linejoin="bevel" fill="none" stroke="#000000" d="M784.64 397.44 788.48 401.12" />
</g><g clip-path="url(#clip_1)"><path transform="matrix(.75,0,0,.75,0,0)" stroke-width=".48" stroke-linecap="butt" stroke-linejoin="bevel" fill="none" stroke="#000000" d="M886.72 207.68H892" />
</g><g clip-path="url(#clip_1)"><path transform="matrix(.75,0,0,.75,0,0)" stroke-width=".48" stroke-linecap="butt" stroke-linejoin="bevel" fill="none" stroke="#000000" d="M888.32 236.32H893.6" />
</g><g clip-path="url(#clip_3)"><path transform="matrix(.75,0,0,.75,585.12,294.59999)" d="M0 0 2.24 2.24H21.12L8.32-11.36H117.12V-24.16H8.32L21.12-37.76H2.24L.48-35.84-17.28-17.28-15.52-15.36Z" fill-rule="evenodd" />
</g><g clip-path="url(#clip_3)"><path transform="matrix(.75,0,0,.75,0,0)" stroke-width=".96" stroke-linecap="butt" stroke-linejoin="bevel" fill="none" stroke="#2548ff" d="M785.28 196.32C787.52 196.32 789.6 197.28 791.2 198.88 792.8 200.48 793.76 202.56 793.76 204.8" />
</g><g clip-path="url(#clip_3)"><path transform="matrix(.75,0,0,.75,0,0)" stroke-width=".96" stroke-linecap="butt" stroke-linejoin="bevel" fill="none" stroke="#2548ff" d="M784.64 238.24C784.64 238.88 785.12 239.36 785.76 239.36" />
</g><g clip-path="url(#clip_3)"><path transform="matrix(.75,0,0,.75,0,0)" stroke-width=".96" stroke-linecap="butt" stroke-linejoin="bevel" fill="none" stroke="#2548ff" d="M784.8 202.4C786.4 202.4 787.68 203.68 787.68 205.28" />
</g><g clip-path="url(#clip_3)"><path transform="matrix(.75,0,0,.75,588.48,178.68001)" d="M0 0V-1.92C1.12-1.76 2.24-1.92 3.36-2.24 4.48-2.72 5.44-3.36 6.4-4.16 7.36-4.96 8-6.08 8.48-7.04 8.96-8.16 9.12-9.28 9.12-10.4V-33.44C9.12-34.4 8.96-35.52 8.48-36.48 8.16-37.6 7.52-38.56 6.56-39.36 5.76-40.16 4.8-40.8 3.68-41.28 2.72-41.76 1.6-41.92 .64-41.92H-5.12C-6.08-41.92-7.2-41.76-8.16-41.28-9.28-40.8-10.24-40.16-11.04-39.36-11.84-38.56-12.48-37.6-12.96-36.48-13.44-35.52-13.6-34.4-13.6-33.44V-10.4C-13.6-8.32-12.8-6.08-11.2-4.48-9.44-2.72-7.2-1.92-5.28-1.92V.8C-5.28 2.4-4.64 3.84-3.52 4.8-2.56 5.92-1.12 6.56 .48 6.56H9.12V1.12H1.12C.96 1.12 .64 1.12 .32 .8 .16 .64 0 .32 0 0ZM3.04-10.72C3.04-10.08 2.88-9.28 2.24-8.8 1.92-8.48 1.6-8.32 1.28-8.16 .96-8 .64-7.84 .16-7.84H-5.44C-6.08-7.84-6.88-8.16-7.36-8.8-8-9.28-8.16-10.08-8.16-10.72V-32.96C-8.16-33.76-8-34.4-7.36-35.04-6.88-35.52-6.08-35.84-5.44-35.84H.16C.96-35.84 1.6-35.52 2.24-35.04 2.56-34.72 2.72-34.4 2.88-34.08 3.04-33.76 3.04-33.28 3.04-32.96V-10.72Z" fill-rule="evenodd" />
</g><g clip-path="url(#clip_3)"><path transform="matrix(.75,0,0,.75,608.88,175.31999)" d="M0 0V2.56H5.44V-26.08H0V-6.24C0-5.92 0-5.44-.16-5.12-.32-4.8-.48-4.32-.8-4.16-1.44-3.52-2.24-3.2-3.04-3.2-3.68-3.2-4.48-3.52-5.12-4.16-5.76-4.64-5.92-5.44-5.92-6.24V-26.08H-11.2V-3.68C-11.2-2.4-10.88-1.12-10.08 0-9.28 1.12-8.16 1.92-6.88 2.24-4.32 3.2-1.6 2.24 0 0Z" fill-rule="evenodd" />
</g><g clip-path="url(#clip_3)"><path transform="matrix(.75,0,0,.75,630.72006,162.6)" d="M0 0C0-1.12-.16-2.24-.48-3.2-.8-4.32-1.44-5.44-2.24-6.24-3.2-7.2-4.16-7.84-5.12-8.32-6.24-8.64-7.36-8.96-8.32-8.96-9.28-8.96-10.4-8.8-11.52-8.32-12.64-8-13.6-7.36-14.4-6.56-15.36-5.6-16-4.64-16.48-3.52-16.8-2.56-16.96-1.44-16.96-.48V0 10.88C-16.96 13.12-16.16 15.2-14.56 16.8-12.96 18.4-10.88 19.36-8.64 19.36-6.4 19.52-4.32 18.72-2.72 17.12-1.12 15.68-.16 13.44 0 11.36H-.32-5.6C-5.92 12.8-7.36 14.08-8.8 13.92-10.4 13.76-11.68 12.48-11.68 10.88V8.32H-.32 0V0ZM-11.68-.32C-11.68-1.12-11.36-1.92-10.72-2.56-10.08-3.04-9.28-3.36-8.48-3.36-7.84-3.36-7.04-3.04-6.4-2.24-5.76-1.6-5.6-.8-5.6 0V2.24H-11.68V-.32Z" fill-rule="evenodd" />
</g><g clip-path="url(#clip_3)"><path transform="matrix(.75,0,0,.75,644.52,175.31999)" d="M0 0V2.56H5.28V-26.08H0V-6.24C0-5.92-.16-5.44-.32-5.12-.48-4.8-.64-4.32-.96-4.16-1.6-3.52-2.4-3.2-3.04-3.2-3.84-3.2-4.64-3.52-5.28-4.16-5.92-4.64-6.08-5.44-6.08-6.24V-26.08H-11.36V-3.68C-11.36-2.4-11.04-1.12-10.24 0-9.28 1.12-8.16 1.92-7.04 2.24-4.48 3.2-1.6 2.24 0 0Z" fill-rule="evenodd" />
</g><g clip-path="url(#clip_3)"><path transform="matrix(.75,0,0,.75,666.83999,162.6)" d="M0 0C0-1.12-.16-2.24-.48-3.2-.96-4.32-1.44-5.44-2.24-6.24-3.2-7.2-4.16-7.84-5.12-8.32-6.24-8.64-7.36-8.96-8.32-8.96-9.28-8.96-10.4-8.8-11.52-8.32-12.64-8-13.6-7.36-14.4-6.56-15.36-5.6-16-4.64-16.48-3.52-16.8-2.56-16.96-1.44-16.96-.48V0 10.88C-16.96 13.12-16.16 15.2-14.56 16.8-12.96 18.4-10.88 19.36-8.64 19.36-6.4 19.52-4.32 18.72-2.72 17.12-1.12 15.68-.16 13.44 0 11.36H-.32-5.6C-5.92 12.8-7.36 14.08-8.8 13.92-10.4 13.76-11.68 12.48-11.68 10.88V8.32H-.32 0V0ZM-11.68-.32C-11.68-1.12-11.36-1.92-10.72-2.56-10.08-3.04-9.28-3.36-8.48-3.36-7.84-3.36-7.04-3.04-6.4-2.24-5.76-1.6-5.6-.8-5.6 0V2.24H-11.68V-.32Z" fill-rule="evenodd" />
</g><g clip-path="url(#clip_3)"><path transform="matrix(.75,0,0,.75,600.96,203.40001)" d="M0 0V18.08H5.44V-21.92H0V-6.08H-11.2V-21.92H-17.28V18.08H-11.2V0Z" fill-rule="evenodd" />
</g><g clip-path="url(#clip_3)"><path transform="matrix(.75,0,0,.75,622.92,202.32)" d="M0 0C0-1.12-.16-2.08-.48-3.2-.96-4.32-1.44-5.28-2.4-6.24-3.2-7.04-4.16-7.68-5.12-8.16-6.24-8.64-7.36-8.8-8.32-8.96-9.28-8.96-10.4-8.8-11.52-8.32-12.64-8-13.6-7.36-14.4-6.4-15.36-5.6-16-4.64-16.48-3.52-16.8-2.4-16.96-1.44-16.96-.32V0 10.88C-16.96 13.12-16.16 15.36-14.56 16.96-12.96 18.56-10.88 19.36-8.64 19.52-6.56 19.52-4.32 18.72-2.72 17.12-1.12 15.68-.16 13.6 0 11.36H-.32-5.6C-5.92 12.96-7.36 14.08-8.8 13.92-10.4 13.76-11.68 12.48-11.68 10.88V8.32H-.32 0V0ZM-11.68-.32C-11.68-.96-11.36-1.76-10.72-2.4-10.08-3.04-9.28-3.36-8.48-3.36-7.84-3.2-7.04-2.88-6.4-2.24-5.76-1.6-5.6-.8-5.6 0V2.24H-11.68V-.32Z" fill-rule="evenodd" />
</g><g clip-path="url(#clip_3)"><path transform="matrix(.75,0,0,.75,635.27999,199.92)" d="M0 0H4.96V-5.92H0C-.8-5.92-1.6-5.76-2.24-5.12-2.88-4.48-3.36-3.84-3.36-3.04V-5.92H-9.44V22.72H-3.36V3.52C-3.36 2.56-3.04 1.76-2.4 1.12-1.76 .32-.8 0 0 0Z" fill-rule="evenodd" />
</g><g clip-path="url(#clip_3)"><path transform="matrix(.75,0,0,.75,656.76,202.32)" d="M0 0C.16-1.12 0-2.08-.48-3.2-.8-4.32-1.44-5.28-2.24-6.24-3.04-7.04-4-7.68-5.12-8.16-6.08-8.64-7.2-8.8-8.32-8.96-9.28-8.96-10.4-8.8-11.36-8.32-12.48-8-13.44-7.36-14.4-6.4-15.2-5.6-15.84-4.64-16.32-3.52-16.8-2.4-16.96-1.44-16.96-.32V0 10.88C-16.96 13.12-16 15.36-14.56 16.96-12.96 18.56-10.88 19.36-8.64 19.52-6.4 19.52-4.16 18.72-2.56 17.12-.96 15.68 0 13.6 0 11.36H-.32-5.6C-5.76 12.96-7.2 14.08-8.8 13.92-10.4 13.76-11.52 12.48-11.52 10.88V8.32H-.32 .16L0 0ZM-11.52-.32C-11.52-.96-11.36-1.76-10.72-2.4-10.08-3.04-9.28-3.36-8.48-3.36-7.68-3.2-6.88-2.88-6.24-2.24-5.76-1.6-5.44-.8-5.6 0V2.24H-11.52V-.32Z" fill-rule="evenodd" />
</g><g clip-path="url(#clip_3)"><path transform="matrix(.75,0,0,.75,636.72006,226.68)" d="M0 0H-16.64V5.92H-11.36V40H-5.28V5.92H0Z" fill-rule="evenodd" />
</g><g clip-path="url(#clip_3)"><path transform="matrix(.75,0,0,.75,654.83999,239.40001)" d="M0 0C0-1.44-.48-2.88-1.6-4-2.72-5.28-4.32-5.76-5.6-5.76H-11.68C-13.28-5.76-14.72-5.12-15.68-4-16.8-3.04-17.44-1.6-17.44 0V3.36H-11.36V1.44C-11.36 1.12-11.2 .96-11.04 .64-10.88 .48-10.72 .48-10.56 .48-10.4 .32-10.4 .32-10.24 .32H-7.2C-6.56 .32-6.08 .8-6.08 1.44V3.36L-14.08 9.92C-16.48 11.84-17.6 14.88-17.44 17.92-17.28 19.2-16.64 20.48-15.52 21.6-14.4 22.56-12.96 23.04-11.68 23.04H-8.32C-7.68 23.04-7.2 22.72-6.72 22.4-6.24 21.92-6.08 21.28-6.08 20.8-6.08 21.28-5.76 21.92-5.28 22.4-5.12 22.56-4.8 22.72-4.64 22.88-4.32 22.88-4 23.04-3.68 23.04H2.24C1.76 23.04 1.12 22.72 .64 22.4 .32 21.92 0 21.28 0 20.8V0ZM-7.2 16.96H-10.24C-10.4 16.96-10.72 16.8-11.04 16.64-11.2 16.32-11.36 16.16-11.36 15.84V14.72C-11.36 14.24-11.2 13.76-11.04 13.28-10.72 12.8-10.4 12.32-10.08 12L-6.08 8.64V15.84C-6.08 16.16-6.08 16.32-6.4 16.64-6.56 16.8-6.88 16.96-7.2 16.96Z" fill-rule="evenodd" />
</g><g clip-path="url(#clip_3)"><path transform="matrix(.75,0,0,.75,662.16006,256.68)" d="M0 0H5.44L8.48-6.88 10.72 0H16.64L10.72-14.4 16.64-28.8H10.72L8.48-21.28 5.44-28.8H-.64L5.44-14.4-.64 0Z" fill-rule="evenodd" />
</g><path transform="matrix(.75,0,0,.75,0,0)" d="M906.4 313.44H912.48V342.24H906.4ZM906.4 302.24H912.48V308.16H906.4Z" fill-rule="evenodd" />
<g clip-path="url(#clip_4)"><path transform="matrix(.75,0,0,.75,603.48,239.63999)" d="M0 0H4.96V-6.08H0C-.64-6.08-1.6-5.76-2.24-5.12-2.88-4.64-3.2-3.84-3.36-3.04V-6.08H-9.44V22.72H-3.36V3.36C-3.36 2.56-3.04 1.76-2.4 .96-1.6 .32-.8 0 0 0Z" fill-rule="evenodd" />
</g><g clip-path="url(#clip_4)"><path transform="matrix(.75,0,0,.75,578.27999,252)" d="M0 0C0 1.44 .64 3.04 1.92 4.32 3.2 5.6 4.8 6.24 6.24 6.24H11.2C12.64 6.24 14.24 5.6 15.52 4.32 16.8 3.04 17.44 1.44 17.44 0V-16.32C17.44-17.76 16.8-19.36 15.52-20.64 14.24-21.92 12.64-22.56 11.2-22.56H6.24C4.8-22.56 3.2-21.92 1.92-20.64 .64-19.36 0-17.76 0-16.32V0ZM10.24 .16H7.2C6.88 .16 6.72 0 6.4-.16 6.24-.48 6.08-.64 6.08-.96V-15.36C6.08-15.52 6.08-15.68 6.24-15.84 6.24-15.84 6.24-16 6.4-16.16 6.56-16.32 6.72-16.32 6.88-16.32 6.88-16.48 7.04-16.48 7.2-16.48H10.24C10.56-16.48 10.72-16.32 11.04-16.16 11.2-15.84 11.36-15.68 11.36-15.36V-.96C11.36-.64 11.2-.48 11.04-.16 10.72 0 10.56 .16 10.24 .16Z" fill-rule="evenodd" />
</g><g clip-path="url(#clip_4)"><path transform="matrix(.75,0,0,.75,564.72006,256.68)" d="M0 0V-18.24H11.36V-24.16H0V-34.08H11.36V-40H-5.28V0Z" fill-rule="evenodd" />
</g><g clip-path="url(#clip_4)"><path transform="matrix(.75,0,0,.75,0,0)" stroke-width=".48" stroke-linecap="butt" stroke-linejoin="bevel" fill="none" stroke="#000000" d="M832.32 309.12V300.8" />
</g><g clip-path="url(#clip_4)"><path transform="matrix(.75,0,0,.75,0,0)" stroke-width=".48" stroke-linecap="butt" stroke-linejoin="bevel" fill="none" stroke="#000000" d="M809.6 309.12V300.8" />
</g><g clip-path="url(#clip_4)"><path transform="matrix(.75,0,0,.75,0,0)" stroke-width=".48" stroke-linecap="butt" stroke-linejoin="bevel" fill="none" stroke="#000000" d="M824.8 302.56 832.32 304.48 824.8 306.4" />
</g><g clip-path="url(#clip_4)"><path transform="matrix(.75,0,0,.75,0,0)" stroke-width=".48" stroke-linecap="butt" stroke-linejoin="bevel" fill="none" stroke="#000000" d="M817.28 306.4 809.6 304.48 817.28 302.56" />
</g><g clip-path="url(#clip_4)"><path transform="matrix(.75,0,0,.75,0,0)" stroke-width=".48" stroke-linecap="butt" stroke-linejoin="bevel" fill="none" stroke="#000000" d="M809.6 304.48H832.32" />
</g><g clip-path="url(#clip_4)"><path transform="matrix(.75,0,0,.75,0,0)" stroke-width=".48" stroke-linecap="butt" stroke-linejoin="bevel" fill="none" stroke="#000000" d="M917.76 236.32H927.84" />
</g><g clip-path="url(#clip_4)"><path transform="matrix(.75,0,0,.75,0,0)" stroke-width=".48" stroke-linecap="butt" stroke-linejoin="bevel" fill="none" stroke="#000000" d="M917.76 207.68H927.84" />
</g><g clip-path="url(#clip_4)"><path transform="matrix(.75,0,0,.75,0,0)" stroke-width=".48" stroke-linecap="butt" stroke-linejoin="bevel" fill="none" stroke="#000000" d="M925.92 228.8 924 236.32 922.08 228.8" />
</g><g clip-path="url(#clip_4)"><path transform="matrix(.75,0,0,.75,0,0)" stroke-width=".48" stroke-linecap="butt" stroke-linejoin="bevel" fill="none" stroke="#000000" d="M922.08 215.2 924 207.68 925.92 215.2" />
</g><g clip-path="url(#clip_4)"><path transform="matrix(.75,0,0,.75,0,0)" stroke-width=".48" stroke-linecap="butt" stroke-linejoin="bevel" fill="none" stroke="#000000" d="M924 207.68V236.32" />
</g><g clip-path="url(#clip_4)"><path transform="matrix(.75,0,0,.75,0,0)" stroke-width=".48" stroke-linecap="butt" stroke-linejoin="bevel" fill="none" stroke="#000000" d="M820.32 414.24 825.76 419.52" />
</g><g clip-path="url(#clip_4)"><path transform="matrix(.75,0,0,.75,0,0)" stroke-width=".96" stroke-linecap="butt" stroke-linejoin="bevel" fill="none" stroke="#000000" d="M924.48 182.72H735.52" />
</g><g clip-path="url(#clip_4)"><path transform="matrix(.75,0,0,.75,0,0)" stroke-width=".96" stroke-linecap="butt" stroke-linejoin="bevel" fill="none" stroke="#000000" d="M716.64 201.6V390.56" />
</g><g clip-path="url(#clip_4)"><path transform="matrix(.75,0,0,.75,0,0)" stroke-width=".96" stroke-linecap="butt" stroke-linejoin="bevel" fill="none" stroke="#000000" d="M735.52 409.44H924.48" />
</g><g clip-path="url(#clip_4)"><path transform="matrix(.75,0,0,.75,0,0)" stroke-width=".96" stroke-linecap="butt" stroke-linejoin="bevel" fill="none" stroke="#000000" d="M943.36 390.56V201.6" />
</g><g clip-path="url(#clip_4)"><path transform="matrix(.75,0,0,.75,0,0)" stroke-width=".96" stroke-linecap="butt" stroke-linejoin="bevel" fill="none" stroke="#000000" d="M923.36 403.84H736.64" />
</g><g clip-path="url(#clip_4)"><path transform="matrix(.75,0,0,.75,0,0)" stroke-width=".96" stroke-linecap="butt" stroke-linejoin="bevel" fill="none" stroke="#000000" d="M722.4 389.44V202.72" />
</g><g clip-path="url(#clip_4)"><path transform="matrix(.75,0,0,.75,0,0)" stroke-width=".96" stroke-linecap="butt" stroke-linejoin="bevel" fill="none" stroke="#000000" d="M736.64 188.48H923.36" />
</g><g clip-path="url(#clip_4)"><path transform="matrix(.75,0,0,.75,0,0)" stroke-width=".96" stroke-linecap="butt" stroke-linejoin="bevel" fill="none" stroke="#000000" d="M937.76 202.72V389.44" />
</g><g clip-path="url(#clip_4)"><path transform="matrix(.75,0,0,.75,0,0)" stroke-width=".96" stroke-linecap="butt" stroke-linejoin="bevel" fill="none" stroke="#000000" d="M735.52 182.72C730.56 182.72 725.76 184.8 722.24 188.32 718.72 191.84 716.64 196.64 716.64 201.6" />
</g><g clip-path="url(#clip_4)"><path transform="matrix(.75,0,0,.75,0,0)" stroke-width=".96" stroke-linecap="butt" stroke-linejoin="bevel" fill="none" stroke="#000000" d="M924.48 182.72C929.6 182.72 934.4 184.8 937.92 188.32 941.44 191.84 943.36 196.64 943.36 201.6" />
</g><g clip-path="url(#clip_4)"><path transform="matrix(.75,0,0,.75,0,0)" stroke-width=".96" stroke-linecap="butt" stroke-linejoin="bevel" fill="none" stroke="#000000" d="M924.48 409.44C929.6 409.44 934.4 407.52 937.92 404 941.44 400.48 943.36 395.68 943.36 390.56" />
</g><g clip-path="url(#clip_4)"><path transform="matrix(.75,0,0,.75,0,0)" stroke-width=".96" stroke-linecap="butt" stroke-linejoin="bevel" fill="none" stroke="#000000" d="M735.52 409.44C730.56 409.44 725.76 407.52 722.24 404 718.72 400.48 716.64 395.68 716.64 390.56" />
</g><g clip-path="url(#clip_4)"><path transform="matrix(.75,0,0,.75,0,0)" stroke-width=".96" stroke-linecap="butt" stroke-linejoin="bevel" fill="none" stroke="#000000" d="M736.64 188.48C732.8 188.48 729.28 189.92 726.56 192.64 723.84 195.36 722.4 199.04 722.4 202.72" />
</g><g clip-path="url(#clip_4)"><path transform="matrix(.75,0,0,.75,0,0)" stroke-width=".96" stroke-linecap="butt" stroke-linejoin="bevel" fill="none" stroke="#000000" d="M923.36 188.48C927.2 188.48 930.88 189.92 933.6 192.64 936.16 195.36 937.76 199.04 937.76 202.72" />
</g><g clip-path="url(#clip_4)"><path transform="matrix(.75,0,0,.75,0,0)" stroke-width=".96" stroke-linecap="butt" stroke-linejoin="bevel" fill="none" stroke="#000000" d="M937.76 389.44C937.76 393.28 936.16 396.96 933.6 399.68 930.88 402.4 927.2 403.84 923.36 403.84" />
</g><g clip-path="url(#clip_4)"><path transform="matrix(.75,0,0,.75,0,0)" stroke-width=".96" stroke-linecap="butt" stroke-linejoin="bevel" fill="none" stroke="#000000" d="M736.64 403.84C732.8 403.84 729.28 402.4 726.56 399.68 723.84 396.96 722.4 393.28 722.4 389.44" />
</g><g clip-path="url(#clip_4)"><path transform="matrix(.75,0,0,.75,537.48,292.91999)" d="M0 0V-188.96C0-191.2 .48-193.6 1.28-195.84 2.24-198.24 3.68-200.48 5.6-202.24 7.36-204.16 9.6-205.6 12-206.56 14.24-207.36 16.64-207.84 18.88-207.84H207.84C210.08-207.84 212.48-207.36 214.88-206.56 217.12-205.6 219.36-204.16 221.28-202.24 223.04-200.48 224.48-198.24 225.44-195.84 226.4-193.6 226.72-191.2 226.72-188.96V0C226.72 2.24 226.4 4.64 225.44 7.04 224.48 9.28 223.04 11.52 221.28 13.44 219.36 15.36 217.12 16.64 214.88 17.6 212.48 18.56 210.08 18.88 207.84 18.88H18.88C16.64 18.88 14.24 18.56 12 17.6 9.6 16.64 7.36 15.36 5.6 13.44 3.68 11.52 2.24 9.28 1.28 7.04 .48 4.64 0 2.24 0 0ZM20 13.28H206.72C208.48 13.28 210.24 12.96 212 12.32 213.76 11.52 215.52 10.56 216.96 9.12 218.4 7.68 219.36 5.92 220.16 4.16 220.8 2.4 221.12 .64 221.12-1.12V-187.84C221.12-189.44 220.8-191.36 220.16-193.12 219.36-194.88 218.4-196.48 216.96-197.92 215.52-199.36 213.76-200.48 212-201.12 210.24-201.92 208.48-202.08 206.72-202.08H20C18.4-202.08 16.48-201.92 14.72-201.12 12.96-200.48 11.36-199.36 9.92-197.92 8.48-196.48 7.36-194.88 6.72-193.12 5.92-191.36 5.76-189.44 5.76-187.84V-1.12C5.76 2.72 7.2 6.4 9.92 9.12 12.64 11.84 16.16 13.28 20 13.28Z" fill-rule="evenodd" />
</g><g clip-path="url(#clip_61)"><path transform="matrix(.75,0,0,.75,700.08,135.95999)" d="M0 0 .64 .48 2.56-1.44 3.2-.64C3.36-.64 3.36-.48 3.52-.32 3.52-.32 3.52-.16 3.68 0 3.68 .16 3.68 .32 3.68 .64 3.52 .8 3.52 1.12 3.36 1.6L3.04 3.04 3.84 3.68 4.16 1.76C4.32 1.44 4.32 1.12 4.32 .8 4.32 .64 4.32 .48 4.16 .16 4.64 .64 5.12 .8 5.44 .8 5.92 .8 6.24 .64 6.56 .32 6.88 0 7.04-.16 7.04-.48 7.04-.8 7.04-1.12 7.04-1.44 6.88-1.76 6.56-2.08 6.24-2.4L4.32-4.32 0 0ZM3.04-1.92 4.48-3.2 5.76-1.92C6.08-1.6 6.24-1.28 6.24-.96 6.24-.8 6.24-.48 5.92-.32 5.92-.16 5.76 0 5.44 0 5.28 0 5.12 0 4.96-.16 4.64-.16 4.48-.32 4.16-.64L3.04-1.92Z" fill-rule="evenodd" />
</g><g clip-path="url(#clip_61)"><path transform="matrix(.75,0,0,.75,704.04,138.12)" d="M0 0C-.32 .48-.48 .96-.48 1.28-.48 1.76-.16 2.24 .16 2.56 .64 3.04 1.12 3.36 1.76 3.2 2.24 3.2 2.72 2.88 3.2 2.56 3.52 2.24 3.84 1.76 3.84 1.12 3.84 .64 3.52 .16 3.2-.16 2.88-.48 2.56-.64 2.08-.64L3.52-1.6 5.28 .16 5.76-.48 3.52-2.56 .96-.8 1.44-.16C1.6-.16 1.76-.16 2.08-.16 2.24-.16 2.4 0 2.56 .16 2.88 .48 3.04 .8 3.04 1.12 3.04 1.44 2.88 1.76 2.56 2.08 2.24 2.4 1.92 2.56 1.6 2.56 1.12 2.56 .8 2.4 .64 2.24 .32 1.92 .32 1.76 .32 1.44 .32 1.12 .32 .8 .64 .64L0 0Z" fill-rule="evenodd" />
</g><g clip-path="url(#clip_61)"><path transform="matrix(.75,0,0,.75,707.27999,139.92)" d="M0 0C-.8 .8-1.28 1.44-1.28 2.08-1.44 2.72-1.28 3.2-.8 3.52-.48 3.84-.16 4 .16 4.16 .64 4.16 .96 4 1.44 3.84 1.76 3.68 2.24 3.36 2.72 2.72 3.2 2.4 3.52 1.92 3.68 1.6 3.84 1.44 4 1.12 4 .8 4.16 .48 4.16 .16 4 0 4-.32 3.84-.64 3.52-.8 3.2-1.12 2.88-1.28 2.56-1.28 2.08-1.28 1.76-1.28 1.28-1.12 .96-.8 .48-.48 0 0ZM.48 .48C1.28-.16 1.76-.48 2.24-.64 2.56-.64 2.88-.64 3.04-.32 3.36-.16 3.52 .16 3.36 .64 3.36 .96 2.88 1.6 2.24 2.24 1.44 2.88 .96 3.36 .64 3.36 .16 3.52-.16 3.36-.32 3.2-.64 2.88-.64 2.56-.64 2.24-.64 1.76-.16 1.28 .48 .48Z" fill-rule="evenodd" />
</g><g clip-path="url(#clip_61)"><path transform="matrix(.75,0,0,.75,615.48,221.28)" d="M0 0C0-.64-.16-1.12-.48-1.44-.8-1.76-1.12-1.92-1.6-1.92-2.24-1.92-2.72-1.6-3.2-.96-3.52-.32-3.84 .64-3.84 2.08-3.84 3.52-3.68 4.48-3.2 4.96-2.88 5.6-2.4 5.76-1.76 5.76-1.28 5.76-.96 5.76-.8 5.44-.48 5.28-.16 4.96 0 4.64 .16 4.16 .16 3.68 .16 3.2 .16 2.56 0 1.92-.32 1.44-.64 .96-1.12 .8-1.6 .8-1.92 .8-2.08 .8-2.4 1.12-2.72 1.28-2.88 1.44-3.04 1.76-3.04 1.12-3.04 .48-2.88 0-2.72-.32-2.56-.64-2.24-.96-2.08-1.12-1.92-1.12-1.76-1.12-1.44-1.12-1.12-.96-.96-.8-.8-.64-.8-.32-.64 0H0ZM-2.88 3.2C-2.88 2.72-2.88 2.4-2.56 2.08-2.4 1.76-2.08 1.6-1.76 1.6-1.44 1.6-1.12 1.76-.96 2.08-.64 2.4-.64 2.72-.64 3.36-.64 3.84-.64 4.32-.96 4.64-1.12 4.96-1.44 5.12-1.76 5.12-1.92 5.12-2.08 4.96-2.4 4.8-2.56 4.64-2.72 4.48-2.72 4.16-2.88 3.84-2.88 3.52-2.88 3.2Z" fill-rule="evenodd" />
</g><g clip-path="url(#clip_61)"><path transform="matrix(.75,0,0,.75,616.19998,222.72)" d="M0 0C0 1.44 .16 2.56 .48 3.2 .96 3.68 1.28 3.84 1.92 3.84 2.4 3.84 2.72 3.68 3.04 3.52 3.36 3.2 3.52 2.72 3.68 2.24 3.84 1.6 3.84 .96 3.84 0 3.84-.64 3.84-1.28 3.84-1.76 3.68-2.24 3.52-2.56 3.36-2.88 3.2-3.2 3.04-3.36 2.72-3.52 2.56-3.68 2.24-3.84 1.92-3.84 1.44-3.84 1.12-3.68 .8-3.36 .48-3.04 .32-2.72 .16-2.08 0-1.6 0-.8 0 0ZM.8 0C.8-1.12 .8-2.08 1.12-2.56 1.28-2.88 1.6-3.04 1.92-3.04 2.24-3.04 2.56-2.88 2.72-2.4 3.04-2.08 3.2-1.12 3.2 0 3.2 1.28 3.04 2.08 2.72 2.56 2.56 2.88 2.24 3.2 1.92 3.2 1.6 3.2 1.28 2.88 1.12 2.56 .8 2.08 .8 1.28 .8 0Z" fill-rule="evenodd" />
</g><g clip-path="url(#clip_61)"><path transform="matrix(.75,0,0,.75,685.32,169.56)" d="M0 0V-2.88C.48-2.56 1.12-2.24 1.92-1.76 2.72-1.44 3.52-1.28 4.32-1.12 5.12-.96 5.92-.8 6.56-.8V-1.6C5.76-1.6 5.12-1.76 4.48-1.76 3.52-2.08 2.72-2.4 1.76-2.72 .96-3.04 .32-3.52-.16-3.84H-.96V0H0Z" fill-rule="evenodd" />
</g><g clip-path="url(#clip_61)"><path transform="matrix(.75,0,0,.75,688.68,166.08)" d="M0 0C.64 0 1.12-.16 1.6-.48 1.92-.96 2.08-1.28 2.08-1.92 2.08-2.56 1.92-3.04 1.28-3.52 .8-3.84 .16-4-.48-4-1.28-4-1.92-3.84-2.24-3.36-2.72-3.04-3.04-2.56-3.04-2.08-3.04-1.6-2.88-1.28-2.56-.96L-4.48-1.28V-3.68H-5.44V-.64L-1.6 0-1.44-.8C-1.6-.96-1.76-.96-1.92-1.28-2.08-1.44-2.24-1.6-2.24-1.92-2.24-2.24-2.08-2.56-1.76-2.88-1.44-3.04-.96-3.2-.48-3.2 .16-3.2 .48-3.04 .96-2.72 1.28-2.56 1.44-2.24 1.44-1.92 1.44-1.6 1.28-1.28 .96-1.12 .8-.96 .48-.8 0-.8V0Z" fill-rule="evenodd" />
</g><g clip-path="url(#clip_64)"><path transform="matrix(.75,0,0,.75,608.52,315.36003)" d="M0 0C.48 .32 .96 .64 1.6 .64 2.08 .64 2.56 .48 2.88 .16 3.36-.32 3.52-.8 3.36-1.44 3.36-2.08 3.04-2.56 2.72-3.04 2.24-3.36 1.92-3.52 1.6-3.68 1.28-3.84 .8-3.68 .48-3.52 .64-3.84 .64-4.16 .48-4.48 .48-4.64 .32-4.96 0-5.28-.16-5.44-.48-5.6-.8-5.76-1.12-5.92-1.44-5.92-1.76-5.76-2.08-5.76-2.4-5.6-2.56-5.28-2.88-4.96-3.04-4.64-3.04-4.16-3.04-3.68-2.88-3.2-2.56-2.72L-1.92-3.04C-2.08-3.36-2.24-3.84-2.4-4-2.4-4.32-2.24-4.64-2.08-4.8-1.92-4.96-1.6-5.12-1.28-5.12-.96-5.12-.8-4.96-.48-4.64-.16-4.32 0-4-.16-3.68-.16-3.36-.32-3.2-.48-2.88H-.64L0-2.24C0-2.4 .16-2.56 .16-2.72 .48-2.88 .8-3.04 1.12-2.88 1.44-2.88 1.76-2.72 2.08-2.4 2.4-2.08 2.56-1.76 2.72-1.44 2.72-.96 2.56-.64 2.4-.48 2.08-.32 1.92-.16 1.6-.16 1.28-.16 .96-.32 .48-.64L0 0Z" fill-rule="evenodd" />
</g><g clip-path="url(#clip_64)"><path transform="matrix(.75,0,0,.75,611.04,312.84)" d="M0 0C.48 .48 .96 .64 1.44 .64 2.08 .64 2.4 .48 2.88 .16 3.36-.32 3.52-.96 3.36-1.6 3.2-2.24 2.88-2.72 2.4-3.2 1.92-3.68 1.28-4 .8-4.16 .16-4.16-.32-4-.64-3.68-.96-3.36-1.12-3.04-1.12-2.56L-2.4-4.16-.64-5.92-1.28-6.56-3.36-4.32-1.12-1.28-.48-1.6C-.48-1.92-.64-2.08-.48-2.4-.48-2.56-.32-2.72-.16-2.88 0-3.2 .32-3.36 .8-3.2 1.12-3.2 1.6-3.04 1.92-2.56 2.24-2.24 2.56-1.76 2.56-1.44 2.72-.96 2.56-.64 2.24-.48 2.08-.16 1.76-.16 1.44-.16 1.12-.16 .8-.32 .48-.64L0 0Z" fill-rule="evenodd" />
</g></g></svg>
