<?xml version='1.0' encoding='utf-8'?>
<svg xmlns="http://www.w3.org/2000/svg" version="1.1" width="276.0" height="220.0" viewBox="0 0 276.0 220.0"><g transform="translate(-529.0,-415.0)"><path transform="matrix(0,.24,.24,0,0,0)" d="M2005.5 2971.86C2001.5 2969.36 1997 2965.86 1993 2962.36 1989 2958.36 1985.5 2953.36 1982 2948.36 1975.5 2937.36 1971.5 2924.36 1971.5 2910.36 1971.5 2896.86 1975.5 2883.86 1982 2872.86 1985.5 2867.36 1989 2862.86 1993 2858.86 1997 2854.86 2001.5 2851.86 2005.5 2849.36L2442.5 2588.86C2453 2582.36 2465 2579.36 2477 2579.36 2489 2579.36 2501 2582.36 2511 2588.86 2521.5 2594.86 2530 2603.36 2536.5 2614.36 2542.5 2625.86 2545.5 2637.86 2545.5 2649.86V3171.36C2545.5 3176.36 2545 3181.86 2543.5 3187.36 2542.5 3192.86 2540.5 3198.36 2537.5 3203.86 2532 3215.36 2523 3225.36 2511.5 3232.36 2500 3239.36 2487 3242.36 2475 3241.86 2469 3241.86 2463 3240.86 2458 3239.36 2452.5 3237.36 2447.5 3235.36 2443.5 3232.86L2442.5 3232.36 2005.5 2971.86ZM2477 3170.36V2649.36L2039 2911.36 2477 3170.36" fill="#dc2a1b" fill-rule="evenodd" />
<path transform="matrix(0,.24,.24,0,0,0)" d="M2218 2964.36 2235.5 2969.36C2246 2970.86 2257 2972.36 2268 2973.86 2278.5 2974.86 2289.5 2975.86 2300.5 2976.36 2306 2974.36 2312 2975.36 2317 2978.36 2318.5 2979.86 2319.5 2982.36 2319 2984.36 2319 2985.36 2318.5 2986.36 2318 2987.36 2317 2988.36 2316.5 2989.36 2315.5 2989.36 2309.5 2992.36 2302.5 2991.86 2297 2988.86L2260 2987.86 2192.5 2980.36 2165.5 2975.36C2159 2973.86 2154 2968.86 2152 2962.36 2148 2951.36 2146.5 2939.36 2147.5 2927.36 2145.5 2925.36 2142 2924.36 2139.5 2925.36 2138 2928.36 2136 2931.36 2133.5 2934.36 2130.5 2936.86 2127 2938.86 2123 2939.86 2119 2940.86 2115 2940.86 2111 2940.36 2107.5 2939.36 2104 2937.36 2101.5 2935.36 2099 2933.36 2097 2930.86 2095 2927.36 2093.5 2923.86 2092.5 2919.86 2093 2915.36 2093 2911.36 2094.5 2907.36 2096.5 2904.36 2098.5 2900.86 2101 2898.36 2104 2896.86 2106.5 2894.86 2110 2893.36 2114 2892.86 2117.5 2892.36 2121.5 2892.86 2125.5 2894.36 2129.5 2895.86 2132.5 2898.36 2135 2901.36 2137.5 2904.36 2139 2907.86 2140 2910.86 2143 2911.86 2146 2911.36 2148.5 2909.86 2150.5 2898.86 2154 2888.86 2160 2879.36 2163.5 2873.86 2169.5 2870.36 2176.5 2870.36L2260 2863.86 2297 2862.86 2313.5 2842.86C2319 2836.36 2321 2827.86 2320 2819.36 2318.5 2816.36 2314.5 2814.36 2311 2815.36 2309.5 2817.86 2307.5 2820.36 2305 2822.36 2302 2824.86 2299 2826.36 2295.5 2826.86 2292 2827.36 2288 2827.36 2285 2826.36 2281.5 2825.36 2279 2823.86 2276.5 2821.86 2274.5 2819.86 2272.5 2817.36 2271 2814.36 2270 2811.36 2269 2807.36 2269.5 2803.86 2269.5 2800.36 2270.5 2796.86 2272.5 2793.86 2274 2790.86 2276.5 2788.86 2279 2787.36 2281.5 2785.36 2284 2784.36 2287.5 2783.86 2291 2782.86 2294.5 2783.36 2298 2784.36 2301.5 2785.36 2304.5 2787.36 2307 2789.86 2309.5 2792.36 2311 2794.86 2312 2797.86 2313 2798.36 2314.5 2798.86 2315.5 2799.36 2317 2799.86 2318 2800.36 2319.5 2800.36L2320.5 2791.86C2320.5 2781.36 2326 2771.36 2334.5 2765.36 2342.5 2759.86 2351.5 2756.36 2361.5 2754.86 2371.5 2753.86 2381.5 2755.36 2390 2758.86 2394.5 2759.36 2398 2762.86 2399 2767.36 2399.5 2767.86 2399.5 2768.86 2398.5 2769.36 2398 2770.36 2397.5 2770.36 2396.5 2770.36 2394.5 2770.36 2392 2769.36 2390 2768.36 2377.5 2762.36 2363.5 2762.86 2351.5 2768.36 2347.5 2770.36 2345.5 2774.36 2346 2778.36 2346.5 2782.36 2349.5 2785.86 2353.5 2786.86 2372 2790.86 2391.5 2787.36 2407.5 2777.86 2408 2779.86 2408.5 2782.36 2409 2784.36 2409.5 2786.36 2410 2788.86 2410 2790.86L2450.5 2788.36C2452.5 2786.36 2455 2784.86 2458 2783.86 2460.5 2782.86 2463 2783.86 2464.5 2785.36 2466 2787.36 2466.5 2790.36 2465.5 2792.36L2453.5 2801.86 2410.5 2804.36C2410 2810.36 2409.5 2816.36 2408 2822.36 2415 2823.86 2422.5 2825.36 2430.5 2826.36 2438 2826.86 2445.5 2826.86 2453 2826.86L2465 2836.86C2466 2838.86 2465.5 2841.36 2463.5 2842.86 2462 2844.86 2459.5 2845.36 2457.5 2844.36 2454.5 2843.86 2452 2841.86 2450 2839.86 2434.5 2840.86 2418.5 2839.36 2403.5 2835.36 2401.5 2840.86 2398.5 2845.86 2395.5 2850.36 2375 2849.86 2355 2843.36 2338 2832.36 2336.5 2831.36 2334 2831.86 2333 2833.86 2332 2837.36 2330 2840.36 2328 2843.36 2326 2846.36 2323.5 2849.36 2321 2851.86L2308 2866.86C2307 2868.86 2306 2870.36 2304.5 2872.36 2303.5 2873.86 2302 2875.36 2300 2876.36L2285.5 2875.86C2277 2876.36 2268.5 2876.86 2260 2878.36 2252 2879.36 2243.5 2880.86 2235.5 2882.86L2218 2887.36C2217.5 2887.86 2217 2888.36 2217 2888.86 2217 2889.86 2217.5 2890.36 2218.5 2890.36L2301.5 2892.36 2438.5 2895.86 2455.5 2875.36C2457.5 2874.36 2460.5 2874.36 2462.5 2876.36 2464.5 2877.86 2465 2880.86 2463.5 2882.86L2449.5 2912.86 2364 2916.86 2321 2924.86C2320 2924.86 2320 2925.36 2320 2925.86 2320 2926.36 2320 2926.86 2320.5 2926.86L2364 2934.86 2449.5 2938.86 2463.5 2968.86C2465 2970.86 2464.5 2973.86 2462.5 2975.36 2460.5 2977.36 2457.5 2977.86 2455.5 2976.36L2438.5 2955.86 2301.5 2959.36 2218.5 2961.36C2217.5 2961.36 2217 2961.86 2217 2962.86 2217 2963.36 2217.5 2963.86 2218 2964.36" fill-rule="evenodd" />
<path transform="matrix(0,.24,.24,0,0,0)" stroke-width="3" stroke-linecap="butt" stroke-linejoin="bevel" fill="none" stroke="#000000" d="M1902 2616.86V3206.36" />
<path transform="matrix(0,.24,.24,0,0,0)" stroke-width="3" stroke-linecap="butt" stroke-linejoin="bevel" fill="none" stroke="#000000" d="M2550 3265.36H1961" />
<path transform="matrix(0,.24,.24,0,0,0)" stroke-width="3" stroke-linecap="butt" stroke-linejoin="bevel" fill="none" stroke="#000000" d="M2609 2616.86V3206.36" />
<path transform="matrix(0,.24,.24,0,0,0)" stroke-width="3" stroke-linecap="butt" stroke-linejoin="bevel" fill="none" stroke="#000000" d="M2550 2557.86H1961" />
<path transform="matrix(0,.24,.24,0,0,0)" stroke-width="3" stroke-linecap="butt" stroke-linejoin="bevel" fill="none" stroke="#dc2a1b" d="M2477 2649.86V3171.36" />
<path transform="matrix(0,.24,.24,0,0,0)" stroke-width="3" stroke-linecap="butt" stroke-linejoin="bevel" fill="none" stroke="#dc2a1b" d="M2039 2911.86 2477 2649.86" />
<path transform="matrix(0,.24,.24,0,0,0)" stroke-width="3" stroke-linecap="butt" stroke-linejoin="bevel" fill="none" stroke="#dc2a1b" d="M2039 2911.86 2477 3171.36" />
<path transform="matrix(0,.24,.24,0,0,0)" stroke-width="1.5" stroke-linecap="butt" stroke-dasharray="18.5,18.5" stroke-linejoin="bevel" fill="none" stroke="#000000" d="M2004.5 2850.36 1902 2911.86 2004.5 2972.86" />
<path transform="matrix(0,.24,.24,0,0,0)" stroke-width="1.5" stroke-linecap="butt" stroke-dasharray="18.5,18.5" stroke-linejoin="bevel" fill="none" stroke="#000000" d="M2442.5 3232.36 2545.5 3293.86V3171.36" />
<path transform="matrix(0,.24,.24,0,0,0)" stroke-width="1.5" stroke-linecap="butt" stroke-dasharray="18.5,18.5" stroke-linejoin="bevel" fill="none" stroke="#000000" d="M2545.5 2649.86V2527.36L2442.5 2588.86" />
<path transform="matrix(0,.24,.24,0,0,0)" stroke-width="3" stroke-linecap="butt" stroke-linejoin="bevel" fill="none" stroke="#dc2a1b" d="M2005.5 2849.86C1995 2856.36 1986.5 2864.86 1980.5 2875.86 1974.5 2886.36 1971.5 2898.86 1971.5 2911.36 1971.5 2923.36 1974.5 2935.86 1980.5 2946.36 1986.5 2957.36 1995 2966.36 2005.5 2972.36" />
<path transform="matrix(0,.24,.24,0,0,0)" stroke-width="3" stroke-linecap="butt" stroke-linejoin="bevel" fill="none" stroke="#dc2a1b" d="M2004.5 2850.36 2442.5 2588.86" />
<path transform="matrix(0,.24,.24,0,0,0)" stroke-width="3" stroke-linecap="butt" stroke-linejoin="bevel" fill="none" stroke="#dc2a1b" d="M2442.5 2589.36C2453 2582.86 2465 2579.86 2477 2579.86 2489 2579.86 2500.5 2582.86 2511 2589.36 2521.5 2595.36 2530 2604.36 2536 2615.36 2542 2625.86 2545.5 2637.86 2545.5 2650.36" />
<path transform="matrix(0,.24,.24,0,0,0)" stroke-width="3" stroke-linecap="butt" stroke-linejoin="bevel" fill="none" stroke="#dc2a1b" d="M2545.5 2649.86V3171.36" />
<path transform="matrix(0,.24,.24,0,0,0)" stroke-width="3" stroke-linecap="butt" stroke-linejoin="bevel" fill="none" stroke="#dc2a1b" d="M2004.5 2972.86 2442.5 3232.36" />
<path transform="matrix(0,.24,.24,0,0,0)" stroke-width="3" stroke-linecap="butt" stroke-linejoin="bevel" fill="none" stroke="#dc2a1b" d="M2545.5 3171.86C2545.5 3184.36 2542 3196.36 2536 3207.36 2530 3217.86 2521.5 3226.86 2511 3232.86 2500.5 3239.36 2489 3242.36 2477 3242.36 2465 3242.36 2453 3239.36 2442.5 3232.86" />
<path transform="matrix(0,.24,.24,0,0,0)" stroke-width="1.5" stroke-linecap="butt" stroke-linejoin="bevel" fill="none" stroke="#000000" d="M2477 2557.86V2558.36" />
<path transform="matrix(0,.24,.24,0,0,0)" stroke-width="1.5" stroke-linecap="butt" stroke-linejoin="bevel" fill="none" stroke="#000000" d="M2447.5 2557.86V2558.36" />
<path transform="matrix(0,.24,.24,0,0,0)" stroke-width="1.5" stroke-linecap="butt" stroke-linejoin="bevel" fill="none" stroke="#000000" d="M2477 2557.86V2558.36" />
<path transform="matrix(0,.24,.24,0,0,0)" stroke-width="1.5" stroke-linecap="butt" stroke-linejoin="bevel" fill="none" stroke="#000000" d="M2447.5 2557.86V2558.36" />
<path transform="matrix(0,.24,.24,0,0,0)" stroke-width="1.5" stroke-linecap="butt" stroke-linejoin="bevel" fill="none" stroke="#000000" d="M2447.5 2557.86V2558.36" />
<path transform="matrix(0,.24,.24,0,0,0)" stroke-width="1.5" stroke-linecap="butt" stroke-linejoin="bevel" fill="none" stroke="#000000" d="M2371 2557.86V2558.36" />
<path transform="matrix(0,.24,.24,0,0,0)" stroke-width="1.5" stroke-linecap="butt" stroke-linejoin="bevel" fill="none" stroke="#000000" d="M2447.5 2557.86V2558.36" />
<path transform="matrix(0,.24,.24,0,0,0)" stroke-width="1.5" stroke-linecap="butt" stroke-linejoin="bevel" fill="none" stroke="#000000" d="M2371 2557.86V2558.36" />
<path transform="matrix(0,.24,.24,0,0,0)" stroke-width="1.5" stroke-linecap="butt" stroke-linejoin="bevel" fill="none" stroke="#000000" d="M2371 2557.86H2447.5" />
<path transform="matrix(0,.24,.24,0,0,0)" stroke-width="1.5" stroke-linecap="butt" stroke-linejoin="bevel" fill="none" stroke="#000000" d="M1889 2921.36 1873.5 2930.86" />
<path transform="matrix(0,.24,.24,0,0,0)" d="M2218 2964.86 2235 2969.86C2246 2971.86 2257 2973.36 2267.5 2974.36 2278.5 2975.36 2289.5 2976.36 2300 2976.86 2305.5 2974.86 2312 2975.86 2316.5 2979.36 2318.5 2980.36 2319.5 2982.86 2319 2984.86 2319 2986.36 2318.5 2987.36 2318 2988.36 2317 2988.86 2316 2989.86 2315 2990.36 2309.5 2992.86 2302.5 2992.86 2297 2989.86L2259.5 2988.86 2192.5 2980.86 2165.5 2975.86C2159 2974.36 2154 2969.36 2151.5 2963.36 2148 2951.86 2146.5 2939.86 2147.5 2927.86 2145 2925.86 2142 2924.86 2139 2925.86 2138 2928.86 2136 2931.86 2133.5 2934.86 2130.5 2937.36 2127 2939.36 2123 2940.86 2119 2941.86 2115 2941.86 2111 2940.86 2107.5 2939.86 2104 2938.36 2101.5 2936.36 2099 2933.86 2096.5 2931.36 2095 2927.86 2093.5 2924.36 2092.5 2920.36 2092.5 2916.36 2093 2911.86 2094 2907.86 2096 2904.86 2098.5 2901.36 2101 2898.86 2103.5 2897.36 2106.5 2895.36 2110 2894.36 2113.5 2893.86 2117.5 2893.36 2121.5 2893.36 2125.5 2894.86 2129.5 2896.86 2132.5 2898.86 2135 2901.86 2137.5 2904.86 2139 2908.36 2140 2911.36 2142.5 2912.86 2146 2912.36 2148.5 2910.36 2150 2899.86 2154 2889.36 2159.5 2879.86 2163.5 2874.36 2169.5 2870.86 2176 2870.86L2259.5 2864.36 2297 2863.36 2313.5 2843.36C2318.5 2836.86 2321 2828.36 2320 2820.36 2318 2816.86 2314.5 2815.36 2310.5 2815.86 2309.5 2818.36 2307.5 2820.86 2304.5 2823.36 2302 2825.36 2299 2826.86 2295 2827.36 2291.5 2828.36 2288 2827.86 2285 2826.86 2281.5 2825.86 2278.5 2824.36 2276.5 2822.36 2274.5 2820.36 2272.5 2817.86 2271 2814.86 2269.5 2811.86 2269 2808.36 2269 2804.36 2269.5 2800.86 2270.5 2797.36 2272 2794.36 2274 2791.86 2276.5 2789.36 2278.5 2787.86 2281 2786.36 2284 2784.86 2287.5 2784.36 2291 2783.86 2294.5 2783.86 2298 2784.86 2301.5 2786.36 2304.5 2787.86 2306.5 2790.36 2309 2792.86 2311 2795.86 2312 2798.36 2313 2799.36 2314 2799.86 2315.5 2800.36 2316.5 2800.36 2318 2800.86 2319.5 2800.86L2320 2792.36C2320.5 2781.86 2326 2771.86 2334.5 2765.86 2342.5 2760.36 2351.5 2756.86 2361.5 2755.86 2371.5 2754.36 2381 2755.86 2390 2759.36 2394.5 2759.86 2398 2763.36 2399 2767.86 2399 2768.86 2399 2769.36 2398.5 2770.36 2398 2770.86 2397 2771.36 2396.5 2770.86 2394 2770.86 2392 2769.86 2390 2768.86 2377.5 2763.36 2363.5 2763.36 2351 2769.36 2347.5 2770.86 2345.5 2774.86 2346 2778.86 2346.5 2782.86 2349.5 2786.36 2353.5 2787.36 2372 2791.36 2391 2787.86 2407.5 2778.36 2408 2780.36 2408.5 2782.86 2409 2784.86 2409.5 2787.36 2409.5 2789.36 2410 2791.86L2450.5 2789.36C2452.5 2786.86 2455 2785.36 2458 2784.36 2460 2783.36 2463 2784.36 2464.5 2786.36 2466 2787.86 2466.5 2790.86 2465.5 2792.86L2453.5 2802.36 2410.5 2805.36C2410 2810.86 2409 2816.86 2407.5 2822.86 2415 2824.86 2422.5 2825.86 2430 2826.86 2437.5 2827.36 2445.5 2827.86 2453 2827.36L2464.5 2837.36C2465.5 2839.36 2465 2841.86 2463.5 2843.36 2462 2845.36 2459.5 2845.86 2457 2844.86 2454.5 2844.36 2452 2842.86 2450 2840.36 2434.5 2841.36 2418.5 2839.86 2403.5 2836.36 2401 2841.36 2398.5 2846.36 2395.5 2850.86 2375 2850.36 2355 2843.86 2338 2832.86 2336 2831.86 2334 2832.36 2333 2834.36 2331.5 2837.86 2330 2840.86 2328 2843.86 2326 2847.36 2323.5 2849.86 2321 2852.36L2308 2867.86C2307 2869.36 2306 2871.36 2304.5 2872.86 2303 2874.36 2301.5 2875.86 2300 2876.86H2285C2276.5 2876.86 2268.5 2877.86 2260 2878.86 2251.5 2879.86 2243.5 2881.36 2235.5 2883.36L2218 2887.86C2217 2888.36 2217 2888.86 2217 2889.86 2217 2890.36 2217.5 2890.86 2218.5 2891.36L2301.5 2893.36 2438.5 2896.36 2455.5 2876.36C2457.5 2874.86 2460.5 2874.86 2462.5 2876.86 2464 2878.36 2464.5 2881.36 2463.5 2883.86L2449.5 2913.36 2363.5 2917.86 2320.5 2925.36C2320 2925.36 2319.5 2925.86 2319.5 2926.36 2319.5 2926.86 2320 2927.36 2320.5 2927.36L2363.5 2935.36 2449.5 2939.36 2463.5 2969.36C2464.5 2971.36 2464 2974.36 2462.5 2976.36 2460.5 2977.86 2457.5 2978.36 2455.5 2976.86L2438.5 2956.86 2301.5 2959.86 2218.5 2961.86C2217.5 2961.86 2217 2962.86 2217 2963.36 2217 2963.86 2217 2964.86 2218 2964.86" fill-rule="evenodd" />
<path transform="matrix(0,.24,.24,0,0,0)" stroke-width="1.5" stroke-linecap="butt" stroke-linejoin="bevel" fill="none" stroke="#000000" d="M1859 2937.36 1827 2956.36" />
<path transform="matrix(0,.24,.24,0,0,0)" stroke-width="1.5" stroke-linecap="butt" stroke-linejoin="bevel" fill="none" stroke="#000000" d="M1895.5 2998.36 1863 3017.36" />
<path transform="matrix(0,.24,.24,0,0,0)" stroke-width="1.5" stroke-linecap="butt" stroke-linejoin="bevel" fill="none" stroke="#000000" d="M1854 2967.86 1837 2950.36 1844 2973.86" />
<path transform="matrix(0,.24,.24,0,0,0)" stroke-width="1.5" stroke-linecap="butt" stroke-linejoin="bevel" fill="none" stroke="#000000" d="M1856 2993.86 1873.5 3011.36 1866.5 2987.86" />
<path transform="matrix(0,.24,.24,0,0,0)" stroke-width="1.5" stroke-linecap="butt" stroke-linejoin="bevel" fill="none" stroke="#000000" d="M1873.5 3011.36 1837 2950.36" />
<path transform="matrix(0,.24,.24,0,0,0)" stroke-width="1.5" stroke-linecap="butt" stroke-linejoin="bevel" fill="none" stroke="#000000" d="M2318 2231.36 2335 2214.36 2311.5 2221.36" />
<path transform="matrix(0,.24,.24,0,0,0)" stroke-width="1.5" stroke-linecap="butt" stroke-linejoin="bevel" fill="none" stroke="#000000" d="M1817 3266.36H1772" />
<path transform="matrix(0,.24,.24,0,0,0)" stroke-width="1.5" stroke-linecap="butt" stroke-linejoin="bevel" fill="none" stroke="#000000" d="M1817 2557.86H1772" />
<path transform="matrix(0,.24,.24,0,0,0)" stroke-width="1.5" stroke-linecap="butt" stroke-linejoin="bevel" fill="none" stroke="#000000" d="M1778 3242.86 1783.5 3266.36 1789.5 3242.86" />
<path transform="matrix(0,.24,.24,0,0,0)" stroke-width="1.5" stroke-linecap="butt" stroke-linejoin="bevel" fill="none" stroke="#000000" d="M1789.5 2581.86 1783.5 2557.86 1778 2581.86" />
<path transform="matrix(0,.24,.24,0,0,0)" stroke-width="1.5" stroke-linecap="butt" stroke-linejoin="bevel" fill="none" stroke="#000000" d="M1783.5 2557.86V3266.36" />
<path transform="matrix(0,.24,.24,0,0,0)" stroke-width="1.5" stroke-linecap="butt" stroke-linejoin="bevel" fill="none" stroke="#000000" d="M2610.5 3289.36V3336.86" />
<path transform="matrix(0,.24,.24,0,0,0)" stroke-width="1.5" stroke-linecap="butt" stroke-linejoin="bevel" fill="none" stroke="#000000" d="M1902 3289.36V3336.86" />
<path transform="matrix(0,.24,.24,0,0,0)" stroke-width="1.5" stroke-linecap="butt" stroke-linejoin="bevel" fill="none" stroke="#000000" d="M2586.5 3330.86 2610.5 3324.86 2586.5 3318.86" />
<path transform="matrix(0,.24,.24,0,0,0)" stroke-width="1.5" stroke-linecap="butt" stroke-linejoin="bevel" fill="none" stroke="#000000" d="M1925.5 3318.86 1902 3324.86 1925.5 3330.86" />
<path transform="matrix(0,.24,.24,0,0,0)" stroke-width="1.5" stroke-linecap="butt" stroke-linejoin="bevel" fill="none" stroke="#000000" d="M1902 3324.86H2610.5" />
<path transform="matrix(0,.24,.24,0,0,0)" stroke-width="1.5" stroke-linecap="butt" stroke-linejoin="bevel" fill="none" stroke="#000000" d="M2466 2473.36V2427.36" />
<path transform="matrix(0,.24,.24,0,0,0)" stroke-width="1.5" stroke-linecap="butt" stroke-linejoin="bevel" fill="none" stroke="#000000" d="M2092 2473.36V2427.36" />
<path transform="matrix(0,.24,.24,0,0,0)" stroke-width="1.5" stroke-linecap="butt" stroke-linejoin="bevel" fill="none" stroke="#000000" d="M2442.5 2445.36 2466 2439.36 2442.5 2433.36" />
<path transform="matrix(0,.24,.24,0,0,0)" stroke-width="1.5" stroke-linecap="butt" stroke-linejoin="bevel" fill="none" stroke="#000000" d="M2115.5 2433.36 2092 2439.36 2115.5 2445.36" />
<path transform="matrix(0,.24,.24,0,0,0)" stroke-width="1.5" stroke-linecap="butt" stroke-linejoin="bevel" fill="none" stroke="#000000" d="M2092 2439.36H2466" />
<path transform="matrix(0,.24,.24,0,0,0)" stroke-width="1.5" stroke-linecap="butt" stroke-linejoin="bevel" fill="none" stroke="#000000" d="M2271 2531.86V2486.36" />
<path transform="matrix(0,.24,.24,0,0,0)" stroke-width="1.5" stroke-linecap="butt" stroke-linejoin="bevel" fill="none" stroke="#000000" d="M2466 2531.86V2486.36" />
<path transform="matrix(0,.24,.24,0,0,0)" stroke-width="1.5" stroke-linecap="butt" stroke-linejoin="bevel" fill="none" stroke="#000000" d="M2294.5 2492.36 2271 2498.36 2294.5 2504.36" />
<path transform="matrix(0,.24,.24,0,0,0)" stroke-width="1.5" stroke-linecap="butt" stroke-linejoin="bevel" fill="none" stroke="#000000" d="M2442.5 2504.36 2466 2498.36 2442.5 2492.36" />
<path transform="matrix(0,.24,.24,0,0,0)" stroke-width="1.5" stroke-linecap="butt" stroke-linejoin="bevel" fill="none" stroke="#000000" d="M2466 2498.36H2271" />
<path transform="matrix(0,.24,.24,0,0,0)" stroke-width="1.5" stroke-linecap="butt" stroke-linejoin="bevel" fill="none" stroke="#000000" d="M2454 2609.86 2435.5 2594.36 2444.5 2616.86" />
<path transform="matrix(0,.24,.24,0,0,0)" stroke-width="1.5" stroke-linecap="butt" stroke-linejoin="bevel" fill="none" stroke="#000000" d="M2521.5 2659.86 2545.5 2656.36 2522.5 2648.36" />
<path transform="matrix(0,.24,.24,0,0,0)" stroke-width="1.5" stroke-linecap="butt" stroke-linejoin="bevel" fill="none" stroke="#000000" d="M2545.5 2656.36C2523.5 2656.36 2501.5 2650.36 2482.5 2639.86 2463 2628.86 2447 2613.36 2435.5 2594.36" />
<path transform="matrix(0,.24,.24,0,0,0)" stroke-width="1.5" stroke-linecap="butt" stroke-linejoin="bevel" fill="none" stroke="#000000" d="M2545.5 2661.86V2667.86" />
<path transform="matrix(0,.24,.24,0,0,0)" stroke-width="1.5" stroke-linecap="butt" stroke-linejoin="bevel" fill="none" stroke="#000000" d="M2449 2585.86 2425.5 2600.36" />
<path transform="matrix(0,.24,.24,0,0,0)" stroke-width="3" stroke-linecap="butt" stroke-linejoin="bevel" fill="none" stroke="#000000" d="M1902 3206.36C1902 3221.86 1908 3237.36 1919 3248.36 1930 3259.36 1945 3265.36 1961 3265.36" />
<path transform="matrix(0,.24,.24,0,0,0)" stroke-width="3" stroke-linecap="butt" stroke-linejoin="bevel" fill="none" stroke="#000000" d="M1902 2616.86C1902 2601.36 1908 2586.36 1919 2575.36 1930 2564.36 1945 2557.86 1961 2557.86" />
<path transform="matrix(0,.24,.24,0,0,0)" stroke-width="3" stroke-linecap="butt" stroke-linejoin="bevel" fill="none" stroke="#000000" d="M2550 2557.86C2566 2557.86 2581 2564.36 2592 2575.36 2603 2586.36 2609 2601.36 2609 2616.86" />
<path transform="matrix(0,.24,.24,0,0,0)" stroke-width="3" stroke-linecap="butt" stroke-linejoin="bevel" fill="none" stroke="#000000" d="M2609 3206.36C2609 3221.86 2603 3237.36 2592 3248.36 2581 3259.36 2566 3265.36 2550 3265.36" />
<path transform="matrix(0,.24,.24,0,0,0)" stroke-width="3" stroke-linecap="butt" stroke-linejoin="bevel" fill="none" stroke="#000000" d="M2447.5 2557.86V2558.36" />
<path transform="matrix(0,.24,.24,0,0,0)" stroke-width="3" stroke-linecap="butt" stroke-linejoin="bevel" fill="none" stroke="#000000" d="M2447.5 2557.86V2558.36" />
<path transform="matrix(0,.24,.24,0,0,0)" stroke-width="3" stroke-linecap="butt" stroke-linejoin="bevel" fill="none" stroke="#000000" d="M2409.5 2557.86V2558.36" />
<path transform="matrix(0,.24,.24,0,0,0)" stroke-width="3" stroke-linecap="butt" stroke-linejoin="bevel" fill="none" stroke="#000000" d="M2409.5 2557.86H2409 2409.5" />
<path transform="matrix(0,.24,.24,0,0,0)" d="M1829.5 2995.36C1827.5 2996.36 1826 2996.36 1824.5 2995.86 1823.5 2995.86 1822.5 2994.86 1821.5 2993.86 1820.5 2991.86 1820.5 2990.36 1821.5 2988.36 1822.5 2985.86 1825 2983.86 1829 2981.36 1832.5 2979.36 1835 2978.36 1837.5 2978.36 1839.5 2978.86 1841 2979.36 1842 2981.36 1842.5 2982.36 1843 2983.36 1843 2984.36 1842.5 2985.36 1842 2986.36 1841.5 2987.86 1840.5 2988.86 1839.5 2989.86 1838 2990.36 1836.5 2991.36 1834.5 2991.86 1832.5 2991.86 1831 2991.86 1829.5 2990.86 1829 2989.36 1828.5 2988.86 1828 2987.86 1828 2986.86 1828 2985.86 1828.5 2984.86 1829 2983.86 1827 2985.36 1825.5 2986.36 1825 2987.36 1824 2988.36 1823.5 2989.36 1823 2990.36 1823 2990.86 1823 2991.86 1823.5 2992.36 1824 2993.36 1824.5 2993.86 1826 2993.86 1826.5 2993.86 1827.5 2993.86 1828.5 2993.36L1829.5 2995.36ZM1833 2981.86C1832 2982.86 1831 2983.86 1830.5 2984.86 1830 2985.86 1830 2986.86 1830.5 2987.86 1831.5 2988.86 1832 2989.36 1833.5 2989.36 1834.5 2989.36 1835.5 2989.36 1837 2988.36 1838.5 2987.36 1839.5 2986.36 1840 2985.36 1840.5 2984.36 1840.5 2983.36 1840 2982.36 1839.5 2981.86 1839 2981.36 1838.5 2980.86 1837.5 2980.86 1837 2980.86 1836 2980.86 1835 2981.36 1834 2981.36 1833 2981.86" fill-rule="evenodd" />
<path transform="matrix(0,.24,.24,0,0,0)" d="M1836 2994.36C1840 2992.36 1843 2990.86 1845 2990.86 1847 2991.36 1848.5 2991.86 1849.5 2993.36 1850 2994.86 1850.5 2995.86 1850 2997.36 1849.5 2998.36 1849 2999.86 1847.5 3000.86 1846.5 3002.36 1844.5 3003.36 1842.5 3004.86 1840.5 3006.36 1838.5 3006.86 1837.5 3007.36 1836 3007.86 1834.5 3008.36 1833.5 3008.36 1832.5 3008.36 1831.5 3008.36 1831 3007.86 1830 3007.36 1829.5 3006.86 1829 3005.86 1828 3004.86 1828 3003.36 1828 3002.36 1828.5 3000.86 1829.5 2999.86 1830.5 2998.36 1832 2997.36 1833.5 2995.86 1836 2994.36ZM1837 2996.36C1834 2998.36 1832 3000.36 1831 3001.36 1830.5 3002.86 1830.5 3003.86 1831 3004.86 1831.5 3005.36 1832.5 3005.86 1834 3005.86 1835.5 3005.86 1837.5 3004.86 1841 3002.86 1844.5 3000.86 1846.5 2999.36 1847 2997.86 1848 2996.86 1848 2995.86 1847.5 2994.86 1847 2993.86 1846 2993.36 1844.5 2993.36 1843 2993.36 1840.5 2994.36 1837 2996.36" fill-rule="evenodd" />
<path transform="matrix(0,.24,.24,0,0,0)" d="M1997.5 2381.36C1996.5 2379.86 1996.5 2378.36 1996.5 2376.86 1997 2375.36 1997.5 2374.36 1999 2373.86 2000.5 2372.86 2002.5 2372.86 2004.5 2373.86 2006.5 2374.86 2009 2377.36 2011 2381.36 2013.5 2384.86 2014.5 2387.36 2014 2389.86 2014 2391.86 2013 2393.36 2011.5 2394.36 2010.5 2394.86 2009.5 2395.36 2008.5 2394.86 2007 2394.86 2006 2394.36 2005 2393.36 2004 2392.86 2003 2391.86 2002.5 2390.36 2001 2388.36 2000.5 2386.86 2001 2384.86 2001 2382.86 2002 2381.86 2003 2380.86 2004 2380.36 2004.5 2380.36 2005.5 2380.36 2006.5 2380.36 2007.5 2380.86 2008.5 2381.36 2007.5 2379.36 2006.5 2377.86 2005.5 2376.86 2004.5 2376.36 2003.5 2375.36 2002.5 2375.36 2001.5 2375.36 2001 2375.36 2000.5 2375.86 1999.5 2376.36 1999 2376.86 1999 2377.86 1999 2378.86 1999 2379.36 1999.5 2380.36L1997.5 2381.36ZM2010.5 2385.36C2010 2384.36 2009 2383.36 2008 2382.86 2006.5 2382.36 2005.5 2382.36 2005 2382.86 2004 2383.36 2003.5 2384.36 2003.5 2385.36 2003 2386.86 2003.5 2387.86 2004.5 2389.36 2005.5 2390.86 2006.5 2391.86 2007.5 2392.36 2008.5 2392.86 2009.5 2392.86 2010.5 2392.36 2011 2391.86 2011.5 2391.36 2011.5 2390.86 2012 2389.86 2012 2389.36 2011.5 2388.36 2011.5 2387.36 2011 2386.36 2010.5 2385.36" fill-rule="evenodd" />
<path transform="matrix(0,.24,.24,0,0,0)" d="M2001 2392.86C2002 2394.86 2002 2396.36 2002 2397.86 2001.5 2399.36 2000.5 2400.86 1999 2401.86 1997.5 2402.86 1995.5 2402.86 1993.5 2401.86 1992 2400.86 1990.5 2399.36 1989.5 2397.86 1988 2395.86 1987.5 2393.86 1988 2392.36 1988 2390.36 1989 2388.86 1990.5 2388.36 1991.5 2387.36 1993 2387.36 1994.5 2387.36L1990 2382.86 1983.5 2386.36 1982.5 2384.36 1990.5 2379.36 1998 2388.86 1996.5 2390.36C1996 2389.86 1995 2389.36 1994.5 2389.36 1993.5 2389.36 1993 2389.86 1992.5 2389.86 1991.5 2390.86 1990.5 2391.36 1990.5 2392.86 1990.5 2393.86 1990.5 2395.36 1991.5 2396.86 1992.5 2398.36 1993.5 2399.36 1994.5 2399.86 1996 2400.36 1997 2400.36 1998 2399.86 1999 2399.36 1999.5 2398.36 1999.5 2397.36 1999.5 2396.36 1999.5 2395.36 1999 2393.86L2001 2392.86" fill-rule="evenodd" />
<path transform="matrix(0,.24,.24,0,0,0)" d="M1985.5 2395.86C1988 2399.36 1989 2402.36 1989 2404.86 1989 2406.86 1988 2408.36 1986.5 2409.36 1985.5 2409.86 1984 2410.36 1983 2409.86 1981.5 2409.36 1980.5 2408.86 1979 2407.36 1978 2406.36 1976.5 2404.36 1975 2401.86 1974 2399.86 1973 2398.36 1972.5 2396.86 1972 2395.86 1972 2394.36 1972 2393.36 1971.5 2392.36 1972 2391.36 1972.5 2390.36 1972.5 2389.86 1973.5 2388.86 1974 2388.36 1975.5 2387.86 1976.5 2387.86 1978 2387.86 1979 2388.36 1980.5 2388.86 1981.5 2390.36 1983 2391.36 1984 2393.36 1985.5 2395.86ZM1983.5 2396.86C1981.5 2393.86 1980 2391.36 1978.5 2390.86 1977.5 2389.86 1976.5 2389.86 1975.5 2390.36 1974.5 2391.36 1974 2392.36 1974 2393.86 1974 2394.86 1975 2397.36 1977 2400.86 1979 2404.36 1980.5 2406.36 1982 2406.86 1983.5 2407.86 1984.5 2407.86 1985.5 2407.36 1986 2406.86 1986.5 2405.86 1986.5 2404.36 1986.5 2402.86 1985.5 2400.36 1983.5 2396.86" fill-rule="evenodd" />
<path transform="matrix(0,.24,.24,0,0,0)" d="M1754 2903.86C1752.5 2903.86 1751 2903.36 1750 2902.36 1748.5 2901.36 1748 2900.36 1748 2898.86 1748 2896.86 1749 2894.86 1751 2893.86 1753 2892.36 1756.5 2891.86 1761 2891.86 1765 2891.86 1768 2892.36 1769.5 2893.86 1771.5 2894.86 1772.5 2896.36 1772.5 2898.36 1772.5 2899.36 1772 2900.86 1771.5 2901.36 1770.5 2902.36 1769.5 2903.36 1768.5 2903.86 1767 2904.36 1765.5 2904.36 1764.5 2904.36 1762 2904.36 1760 2903.86 1758.5 2902.86 1757.5 2901.86 1756.5 2900.36 1756.5 2898.86 1756.5 2897.86 1757 2896.86 1757.5 2896.36 1758 2895.36 1758.5 2894.86 1759.5 2894.36 1757.5 2894.36 1755.5 2894.36 1754.5 2894.86 1753 2895.36 1752 2895.86 1751.5 2896.36 1751 2897.36 1750.5 2897.86 1750.5 2898.36 1750.5 2899.36 1751 2900.36 1752 2900.86 1752.5 2901.36 1753 2901.36 1754.5 2901.86L1754 2903.86ZM1764.5 2894.36C1762.5 2894.36 1761.5 2894.86 1760.5 2895.86 1759.5 2896.36 1759 2897.36 1759 2898.36 1759 2899.36 1759.5 2900.36 1760.5 2900.86 1761.5 2901.86 1763 2901.86 1764.5 2901.86 1766 2901.86 1767.5 2901.86 1768.5 2900.86 1769.5 2900.36 1770 2899.36 1770 2898.36 1770 2897.86 1769.5 2896.86 1769 2896.36 1768.5 2895.86 1768 2895.36 1767 2894.86 1766 2894.86 1765.5 2894.36 1764.5 2894.36" fill-rule="evenodd" />
<path transform="matrix(0,.24,.24,0,0,0)" d="M1760.5 2906.86C1764.5 2906.86 1768 2907.36 1770 2908.36 1771.5 2909.36 1772.5 2910.86 1772.5 2912.86 1772.5 2914.36 1772 2915.36 1771 2916.36 1770 2917.36 1768.5 2917.86 1767 2918.36 1765.5 2918.86 1763 2918.86 1760.5 2918.86 1758 2918.86 1756 2918.86 1754.5 2918.36 1753.5 2918.36 1752 2917.86 1751 2917.36 1750 2916.86 1749.5 2916.36 1749 2915.36 1748.5 2914.86 1748 2913.86 1748 2912.86 1748 2911.36 1748.5 2910.36 1749.5 2909.36 1750.5 2908.36 1752 2907.86 1753.5 2907.36 1755 2906.86 1757.5 2906.86 1760.5 2906.86ZM1760.5 2908.86C1756.5 2908.86 1753.5 2909.36 1752.5 2910.36 1751 2910.86 1750.5 2911.86 1750.5 2912.86 1750.5 2913.86 1751 2914.86 1752.5 2915.36 1754 2916.36 1756.5 2916.36 1760.5 2916.36 1764 2916.36 1766.5 2916.36 1768 2915.36 1769.5 2914.86 1770 2913.86 1770 2912.86 1770 2911.86 1769.5 2910.86 1768 2910.36 1766.5 2909.36 1764 2908.86 1760.5 2908.86" fill-rule="evenodd" />
<path transform="matrix(0,.24,.24,0,0,0)" d="M1760.5 2921.36C1764.5 2921.36 1768 2921.86 1770 2923.36 1771.5 2924.36 1772.5 2925.86 1772.5 2927.36 1772.5 2928.86 1772 2929.86 1771 2930.86 1770 2931.86 1768.5 2932.36 1767 2932.86 1765.5 2933.36 1763 2933.86 1760.5 2933.86 1758 2933.86 1756 2933.36 1754.5 2933.36 1753.5 2932.86 1752 2932.36 1751 2931.86 1750 2931.36 1749.5 2930.86 1749 2930.36 1748.5 2929.36 1748 2928.36 1748 2927.36 1748 2926.36 1748.5 2924.86 1749.5 2923.86 1750.5 2923.36 1752 2922.36 1753.5 2921.86 1755 2921.36 1757.5 2921.36 1760.5 2921.36ZM1760.5 2923.86C1756.5 2923.86 1753.5 2924.36 1752.5 2924.86 1751 2925.36 1750.5 2926.36 1750.5 2927.36 1750.5 2928.36 1751 2929.36 1752.5 2930.36 1754 2930.86 1756.5 2931.36 1760.5 2931.36 1764 2931.36 1766.5 2930.86 1768 2930.36 1769.5 2929.36 1770 2928.36 1770 2927.36 1770 2926.36 1769.5 2925.36 1768 2924.86 1766.5 2923.86 1764 2923.86 1760.5 2923.86" fill-rule="evenodd" />
<path transform="matrix(0,.24,.24,0,0,0)" d="M2264.5 3295.36C2264.5 3293.36 2265 3291.86 2266 3290.86 2267 3289.86 2268 3289.36 2269.5 3289.36 2271.5 3289.36 2273 3290.36 2274.5 3292.36 2275.5 3294.36 2276.5 3297.36 2276.5 3301.86 2276.5 3306.36 2276 3308.86 2274.5 3310.86 2273.5 3312.86 2272 3313.36 2270 3313.36 2268.5 3313.36 2267.5 3313.36 2267 3312.36 2266 3311.86 2265 3310.86 2264.5 3309.36 2264 3308.36 2264 3306.86 2264 3305.36 2264 3303.36 2264.5 3301.36 2265.5 3299.86 2266.5 3298.36 2268 3297.86 2269.5 3297.86 2270.5 3297.86 2271 3297.86 2272 3298.36 2273 3298.86 2273.5 3299.86 2274 3300.86 2274 3298.36 2274 3296.86 2273.5 3295.36 2273 3294.36 2272.5 3293.36 2271.5 3292.36 2271 3291.86 2270.5 3291.86 2270 3291.86 2269 3291.86 2268 3292.36 2267.5 3292.86 2267 3293.36 2267 3294.36 2266.5 3295.36H2264.5ZM2273.5 3305.36C2273.5 3303.86 2273.5 3302.86 2272.5 3301.86 2272 3300.86 2271 3300.36 2270 3300.36 2269 3300.36 2268 3300.86 2267.5 3301.86 2266.5 3302.86 2266.5 3303.86 2266.5 3305.86 2266.5 3307.36 2266.5 3308.86 2267.5 3309.86 2268 3310.86 2269 3311.36 2270 3311.36 2270.5 3311.36 2271 3310.86 2272 3310.36 2272.5 3309.86 2273 3309.36 2273 3308.36 2273.5 3307.36 2273.5 3306.36 2273.5 3305.36" fill-rule="evenodd" />
<path transform="matrix(0,.24,.24,0,0,0)" d="M2261.5 3301.36C2261.5 3305.86 2261 3309.36 2260 3310.86 2258.5 3312.86 2257.5 3313.36 2255.5 3313.36 2254 3313.36 2253 3312.86 2252 3312.36 2251 3311.36 2250.5 3309.86 2250 3308.36 2249.5 3306.36 2249.5 3304.36 2249.5 3301.36 2249.5 3299.36 2249.5 3297.36 2250 3295.86 2250 3294.36 2250.5 3293.36 2251 3292.36 2251.5 3291.36 2252 3290.86 2253 3290.36 2253.5 3289.86 2254.5 3289.36 2255.5 3289.36 2257 3289.36 2258 3289.86 2259 3290.86 2260 3291.86 2260.5 3292.86 2261 3294.86 2261.5 3296.36 2261.5 3298.86 2261.5 3301.36ZM2259 3301.36C2259 3297.86 2259 3294.86 2258 3293.36 2257.5 3292.36 2256.5 3291.86 2255.5 3291.86 2254.5 3291.86 2253.5 3292.36 2253 3293.86 2252 3294.86 2251.5 3297.36 2251.5 3301.36 2251.5 3305.36 2252 3307.86 2253 3309.36 2253.5 3310.36 2254.5 3311.36 2255.5 3311.36 2256.5 3311.36 2257.5 3310.36 2258 3309.36 2259 3307.86 2259 3305.36 2259 3301.36" fill-rule="evenodd" />
<path transform="matrix(0,.24,.24,0,0,0)" d="M2247 3301.36C2247 3305.86 2246.5 3309.36 2245 3310.86 2244 3312.86 2242.5 3313.36 2241 3313.36 2239.5 3313.36 2238.5 3312.86 2237.5 3312.36 2236.5 3311.36 2236 3309.86 2235.5 3308.36 2235 3306.36 2234.5 3304.36 2234.5 3301.36 2234.5 3299.36 2235 3297.36 2235 3295.86 2235.5 3294.36 2236 3293.36 2236 3292.36 2236.5 3291.36 2237.5 3290.86 2238 3290.36 2239 3289.86 2240 3289.36 2241 3289.36 2242 3289.36 2243.5 3289.86 2244 3290.86 2245 3291.86 2246 3292.86 2246.5 3294.86 2246.5 3296.36 2247 3298.86 2247 3301.36ZM2244.5 3301.36C2244.5 3297.86 2244 3294.86 2243.5 3293.36 2242.5 3292.36 2242 3291.86 2241 3291.86 2240 3291.86 2239 3292.36 2238 3293.86 2237.5 3294.86 2237 3297.36 2237 3301.36 2237 3305.36 2237.5 3307.86 2238 3309.36 2239 3310.36 2239.5 3311.36 2241 3311.36 2242 3311.36 2243 3310.36 2243.5 3309.36 2244 3307.86 2244.5 3305.36 2244.5 3301.36" fill-rule="evenodd" />
<path transform="matrix(0,.24,.24,0,0,0)" d="M2290.5 2411.86C2290.5 2413.86 2290 2415.36 2289 2416.86 2287.5 2417.86 2286.5 2418.86 2284.5 2418.86 2283 2418.86 2281.5 2417.86 2280 2416.36 2279 2414.86 2278.5 2413.36 2278.5 2411.36 2278.5 2409.86 2278.5 2408.36 2279 2407.36 2280 2406.36 2280.5 2405.86 2282 2405.36 2281 2404.86 2280.5 2404.36 2280 2403.36 2279.5 2402.86 2279 2401.86 2279 2400.86 2279 2399.86 2279.5 2398.36 2280 2397.86 2280.5 2396.86 2281 2395.86 2282 2395.36 2282.5 2394.86 2283.5 2394.36 2284.5 2394.36 2286 2394.36 2287.5 2394.86 2288.5 2396.36 2289.5 2397.36 2290 2398.86 2290.5 2400.86L2288 2401.36C2288 2399.86 2287.5 2398.86 2287 2397.86 2286.5 2397.36 2285.5 2396.86 2284.5 2396.86 2284 2396.86 2283 2397.36 2282.5 2397.86 2282 2398.86 2281.5 2399.36 2281.5 2400.86 2281.5 2401.86 2282 2402.86 2283 2403.36 2283.5 2404.36 2284.5 2404.36 2285.5 2404.36H2286C2286 2404.36 2285.5 2404.36 2286 2404.36V2406.86C2285.5 2406.86 2285 2406.86 2284.5 2406.86 2283.5 2406.86 2282.5 2407.36 2282 2407.86 2281 2408.86 2280.5 2409.86 2280.5 2411.36 2280.5 2412.86 2281 2413.86 2282 2414.86 2282.5 2415.86 2283.5 2416.36 2284.5 2416.36 2285.5 2416.36 2286.5 2415.86 2287 2415.36 2287.5 2414.36 2288 2413.36 2288.5 2411.86H2290.5" fill-rule="evenodd" />
<path transform="matrix(0,.24,.24,0,0,0)" d="M2264 2415.36H2273C2273 2414.86 2272.5 2414.36 2272 2413.86 2271.5 2413.36 2271 2412.36 2269.5 2410.86 2267.5 2409.36 2266.5 2407.86 2266 2406.86 2265 2405.86 2264.5 2404.86 2264.5 2403.86 2264 2402.86 2264 2401.86 2264 2401.36 2264 2399.36 2264.5 2397.86 2265.5 2396.36 2266.5 2395.36 2268 2394.36 2269.5 2394.36 2271.5 2394.36 2273 2395.36 2274 2396.36 2275 2397.36 2275.5 2399.36 2276 2401.36L2273.5 2401.86C2273.5 2400.36 2273 2398.86 2272.5 2398.36 2272 2397.36 2271 2396.86 2270 2396.86 2268.5 2396.86 2268 2397.36 2267 2398.36 2266.5 2398.86 2266 2399.86 2266 2400.86 2266 2402.36 2266.5 2403.36 2267.5 2404.36 2268 2405.86 2269.5 2407.36 2271.5 2409.36 2273 2410.86 2274 2411.86 2274.5 2412.86 2275 2414.36 2275.5 2415.36 2276 2416.36 2276 2416.86 2276.5 2417.36 2276.5 2418.36H2264V2415.36" fill-rule="evenodd" />
<path transform="matrix(0,.24,.24,0,0,0)" d="M2261.5 2406.86C2261.5 2410.86 2260.5 2414.36 2259.5 2416.36 2258.5 2417.86 2257 2418.86 2255 2418.86 2254 2418.86 2252.5 2418.36 2251.5 2417.36 2251 2416.36 2250 2414.86 2249.5 2413.36 2249 2411.86 2249 2409.36 2249 2406.86 2249 2404.36 2249 2402.36 2249.5 2400.86 2249.5 2399.86 2250 2398.36 2250.5 2397.36 2251 2396.36 2251.5 2395.86 2252.5 2395.36 2253 2394.86 2254 2394.36 2255 2394.36 2256.5 2394.36 2257.5 2394.86 2258.5 2395.86 2259.5 2396.86 2260 2398.36 2260.5 2399.86 2261 2401.36 2261.5 2403.86 2261.5 2406.86ZM2259 2406.86C2259 2402.86 2258.5 2399.86 2257.5 2398.86 2257 2397.36 2256 2396.86 2255 2396.86 2254 2396.86 2253 2397.36 2252.5 2398.86 2251.5 2400.36 2251.5 2402.86 2251.5 2406.86 2251.5 2410.36 2251.5 2412.86 2252.5 2414.36 2253 2415.86 2254 2416.36 2255 2416.36 2256 2416.36 2257 2415.86 2258 2414.36 2258.5 2412.86 2259 2410.36 2259 2406.86" fill-rule="evenodd" />
<path transform="matrix(0,.24,.24,0,0,0)" d="M2375.5 2477.36V2453.86H2377C2377.5 2454.86 2378 2455.86 2379 2456.86 2380 2458.36 2381.5 2458.86 2382.5 2459.86V2462.86C2382 2462.36 2381 2461.86 2380 2461.36 2379 2460.36 2378.5 2459.86 2378 2459.36V2477.36H2375.5" fill-rule="evenodd" />
<path transform="matrix(0,.24,.24,0,0,0)" d="M2357.5 2459.86C2358 2457.86 2358.5 2456.36 2359.5 2455.36 2360.5 2454.36 2361.5 2453.86 2363 2453.86 2365 2453.86 2366.5 2454.86 2367.5 2456.36 2369 2458.86 2369.5 2461.86 2369.5 2466.36 2369.5 2470.86 2369 2473.36 2368 2475.36 2366.5 2476.86 2365 2477.86 2363 2477.86 2362 2477.86 2361 2477.86 2360 2476.86 2359 2476.36 2358.5 2475.36 2358 2473.86 2357.5 2472.86 2357.5 2471.36 2357.5 2469.86 2357.5 2467.86 2358 2465.86 2359 2464.36 2360 2462.86 2361.5 2462.36 2363 2462.36 2363.5 2462.36 2364.5 2462.36 2365.5 2462.86 2366 2463.36 2367 2464.36 2367.5 2465.36 2367.5 2462.86 2367 2461.36 2367 2459.86 2366.5 2458.86 2366 2457.86 2365 2456.86 2364.5 2456.36 2364 2456.36 2363 2456.36 2362 2456.36 2361.5 2456.86 2361 2457.36 2360.5 2457.86 2360 2458.86 2360 2459.86H2357.5ZM2367 2469.86C2367 2468.36 2366.5 2467.36 2366 2466.36 2365.5 2465.36 2364.5 2464.86 2363.5 2464.86 2362.5 2464.86 2361.5 2465.36 2360.5 2466.36 2360 2467.36 2359.5 2468.36 2359.5 2469.86 2359.5 2471.86 2360 2473.36 2360.5 2474.36 2361.5 2475.36 2362 2475.86 2363 2475.86 2364 2475.86 2364.5 2475.36 2365 2474.86 2366 2474.36 2366 2473.86 2366.5 2472.86 2367 2471.86 2367 2470.86 2367 2469.86" fill-rule="evenodd" />
<path transform="matrix(0,.24,.24,0,0,0)" d="M2355 2471.36C2355 2473.36 2354 2474.86 2353 2476.36 2352 2477.36 2350.5 2477.86 2349 2477.86 2347 2477.86 2345 2476.86 2344 2475.36 2343 2473.36 2342.5 2471.86 2342.5 2469.36 2342.5 2467.36 2343 2465.36 2344 2463.86 2345.5 2462.86 2346.5 2461.86 2348.5 2461.86 2349.5 2461.86 2351 2462.36 2352 2463.36L2351 2456.86H2343.5V2454.36H2352.5L2354.5 2466.36 2352.5 2466.86C2352 2465.86 2351.5 2465.36 2351 2465.36 2350.5 2464.86 2349.5 2464.36 2349 2464.36 2347.5 2464.36 2347 2464.86 2346 2465.86 2345.5 2466.86 2345 2468.36 2345 2469.86 2345 2471.36 2345.5 2472.86 2346 2473.86 2347 2474.86 2348 2475.86 2349 2475.86 2350 2475.86 2350.5 2475.36 2351.5 2474.36 2352 2473.86 2352.5 2472.86 2352.5 2471.36H2355" fill-rule="evenodd" />
<path transform="matrix(0,.24,.24,0,0,0)" d="M2482 2607.36C2480 2607.86 2478.5 2608.36 2477.5 2607.86 2476 2607.36 2475 2606.86 2474 2605.36 2473 2603.86 2473 2601.86 2474 2599.86 2475.5 2597.86 2478 2595.36 2482 2593.36 2485.5 2591.36 2488 2590.36 2490.5 2590.36 2492.5 2590.86 2494 2591.86 2495 2593.36 2495.5 2594.36 2496 2595.36 2495.5 2596.36 2495.5 2597.86 2495 2598.86 2494 2599.86 2493.5 2600.86 2492 2601.86 2491 2602.36 2489 2603.36 2487 2603.86 2485.5 2603.86 2483.5 2603.36 2482 2602.86 2481.5 2601.36 2481 2600.36 2481 2599.86 2481 2598.86 2481 2597.86 2481.5 2596.86 2482 2595.86 2480 2596.86 2478.5 2597.86 2477.5 2598.86 2476.5 2599.86 2476 2600.86 2476 2601.86 2475.5 2602.86 2476 2603.36 2476 2604.36 2476.5 2604.86 2477.5 2605.36 2478.5 2605.36 2479 2605.36 2480 2605.36 2481 2604.86L2482 2607.36ZM2486 2593.86C2484.5 2594.86 2484 2595.36 2483.5 2596.86 2483 2597.86 2483 2598.86 2483.5 2599.86 2484 2600.86 2485 2601.36 2486 2601.36 2487 2601.36 2488.5 2601.36 2490 2600.36 2491.5 2599.36 2492.5 2598.36 2493 2597.36 2493.5 2596.36 2493.5 2595.36 2493 2594.36 2492.5 2593.86 2492 2593.36 2491.5 2593.36 2490.5 2592.86 2490 2592.86 2489 2592.86 2488 2593.36 2487 2593.36 2486 2593.86" fill-rule="evenodd" />
<path transform="matrix(0,.24,.24,0,0,0)" d="M2488.5 2606.36C2492.5 2604.36 2495.5 2603.36 2498 2603.36 2500 2603.36 2501 2604.36 2502 2605.86 2502.5 2606.86 2503 2608.36 2502.5 2609.36 2502 2610.86 2501.5 2611.86 2500 2613.36 2499 2614.36 2497 2615.86 2494.5 2617.36 2492.5 2618.36 2491 2618.86 2489.5 2619.36 2488 2619.86 2487 2620.36 2486 2620.36 2485 2620.36 2484 2619.86 2483 2619.86 2482 2619.36 2481.5 2618.36 2481 2617.86 2480.5 2616.36 2480 2615.36 2480.5 2613.86 2481 2612.86 2482 2611.36 2483 2610.36 2484.5 2609.36 2486 2607.86 2488.5 2606.36ZM2489.5 2608.36C2486.5 2610.36 2484 2611.86 2483.5 2613.36 2482.5 2614.36 2482.5 2615.36 2483 2616.36 2483.5 2617.36 2484.5 2617.86 2486 2617.86 2487.5 2617.86 2490 2616.86 2493.5 2614.86 2497 2613.36 2499 2611.36 2499.5 2610.36 2500.5 2608.86 2500.5 2607.86 2500 2606.86 2499.5 2606.36 2498.5 2605.86 2497 2605.86 2495.5 2605.86 2493 2606.36 2489.5 2608.36" fill-rule="evenodd" />
<path transform="matrix(0,.24,.24,0,0,0)" d="M2489 2623.36C2490 2622.86 2491.5 2622.86 2492.5 2622.86 2493.5 2622.86 2494.5 2623.86 2495 2624.36 2495.5 2625.36 2495.5 2626.36 2495 2627.36 2494.5 2628.36 2493.5 2629.36 2492.5 2629.86 2491.5 2630.36 2490.5 2630.86 2489.5 2630.36 2488.5 2630.36 2487.5 2629.86 2487 2628.86 2486.5 2627.86 2486.5 2626.86 2487 2625.86 2487.5 2624.86 2488 2624.36 2489 2623.36ZM2490 2624.86C2489 2625.36 2489 2625.86 2488.5 2626.36 2488 2626.86 2488.5 2627.36 2488.5 2627.86 2489 2628.36 2489.5 2628.86 2490 2628.86 2490.5 2628.86 2491.5 2628.86 2492 2628.36 2492.5 2628.36 2493 2627.86 2493.5 2626.86 2493.5 2626.36 2493.5 2625.86 2493.5 2625.36 2493 2624.86 2492.5 2624.36 2492 2624.36 2491 2624.36 2490.5 2624.36 2490 2624.86" fill-rule="evenodd" />
</g></svg>