<?xml version='1.0' encoding='utf-8'?>
<svg xmlns="http://www.w3.org/2000/svg" version="1.1" width="310.0" height="244.0" viewBox="0 0 310.0 244.0"><g transform="translate(-440.0,-45.0)"><path transform="matrix(0,.24,.24,0,0,0)" d="M483.996 2596.86C479.496 2594.36 474.996 2591.36 470.996 2587.36 466.496 2583.36 462.496 2578.86 459.496 2573.36 452.496 2562.86 448.496 2549.86 448.496 2535.86 448.496 2521.86 452.496 2508.86 459.496 2497.86 462.496 2492.86 466.496 2487.86 470.996 2483.86 474.996 2480.36 479.496 2476.86 483.996 2474.36L935.996 2213.36C946.996 2207.36 958.996 2203.86 971.496 2203.86 983.996 2203.86 995.996 2207.36 1007 2213.36 1017.5 2219.36 1026.5 2228.36 1033 2239.36 1039 2250.36 1042.5 2262.86 1042.5 2274.86V2796.86C1042.5 2801.86 1041.5 2807.36 1040.5 2812.86 1039 2818.36 1037 2823.86 1034 2829.86 1028.5 2840.86 1019 2850.86 1007 2857.86 995.496 2864.86 981.996 2867.86 969.496 2867.36 962.996 2867.36 956.996 2866.36 951.496 2864.86 945.996 2863.36 940.996 2860.86 936.996 2858.36H935.996L483.996 2596.86ZM971.496 2795.86V2274.36L518.496 2536.36 971.496 2795.86" fill="#dc2a1b" fill-rule="evenodd" />
<path transform="matrix(0,.24,.24,0,0,0)" d="M768.496 2434.86V2569.36L732.996 2533.86V2600.36L791.996 2658.86 850.996 2600.36V2533.86L815.996 2569.36V2434.86" fill-rule="evenodd" />
<path transform="matrix(0,.24,.24,0,0,0)" d="M881.996 2571.86V2436.86L846.496 2472.36V2406.36L905.496 2347.36 964.496 2406.36V2472.36L928.996 2436.86V2571.86" fill-rule="evenodd" />
<path transform="matrix(0,.24,.24,0,0,0)" stroke-width="3" stroke-linecap="butt" stroke-linejoin="bevel" fill="none" stroke="#000000" d="M376.496 2240.86V2831.36" />
<path transform="matrix(0,.24,.24,0,0,0)" stroke-width="3" stroke-linecap="butt" stroke-linejoin="bevel" fill="none" stroke="#000000" d="M1026 2890.36H435.496" />
<path transform="matrix(0,.24,.24,0,0,0)" stroke-width="3" stroke-linecap="butt" stroke-linejoin="bevel" fill="none" stroke="#000000" d="M1085 2240.86V2831.36" />
<path transform="matrix(0,.24,.24,0,0,0)" stroke-width="3" stroke-linecap="butt" stroke-linejoin="bevel" fill="none" stroke="#000000" d="M1026 2181.86H435.496" />
<path transform="matrix(0,.24,.24,0,0,0)" stroke-width="3" stroke-linecap="butt" stroke-linejoin="bevel" fill="none" stroke="#dc2a1b" d="M971.496 2274.36V2795.86" />
<path transform="matrix(0,.24,.24,0,0,0)" stroke-width="3" stroke-linecap="butt" stroke-linejoin="bevel" fill="none" stroke="#dc2a1b" d="M518.496 2536.36 971.496 2274.36" />
<path transform="matrix(0,.24,.24,0,0,0)" stroke-width="3" stroke-linecap="butt" stroke-linejoin="bevel" fill="none" stroke="#dc2a1b" d="M518.496 2536.36 971.496 2795.86" />
<path transform="matrix(0,.24,.24,0,0,0)" stroke-width="3" stroke-linecap="butt" stroke-linejoin="bevel" fill="none" stroke="#000000" d="M768.496 2434.86H815.996" />
<path transform="matrix(0,.24,.24,0,0,0)" stroke-width="3" stroke-linecap="butt" stroke-linejoin="bevel" fill="none" stroke="#000000" d="M881.996 2571.86H928.996" />
<path transform="matrix(0,.24,.24,0,0,0)" d="M850.996 2535.36C850.496 2535.36 849.496 2534.86 849.496 2533.86 849.496 2533.36 850.496 2532.36 850.996 2532.36 851.996 2532.36 852.496 2533.36 852.496 2533.86 852.496 2534.86 851.996 2535.36 850.996 2535.36" fill-rule="evenodd" />
<path transform="matrix(0,.24,.24,0,0,0)" d="M964.496 2473.86C963.496 2473.86 962.996 2473.36 962.996 2472.36 962.996 2471.86 963.496 2470.86 964.496 2470.86 965.496 2470.86 965.996 2471.86 965.996 2472.36 965.996 2473.36 965.496 2473.86 964.496 2473.86" fill-rule="evenodd" />
<path transform="matrix(0,.24,.24,0,0,0)" stroke-width="3" stroke-linecap="butt" stroke-linejoin="bevel" fill="none" stroke="#000000" d="M815.996 2569.36V2434.86" />
<path transform="matrix(0,.24,.24,0,0,0)" stroke-width="1.5" stroke-linecap="butt" stroke-dasharray="18.5,18.5" stroke-linejoin="bevel" fill="none" stroke="#000000" d="M482.996 2474.86 376.496 2536.36 482.996 2597.86" />
<path transform="matrix(0,.24,.24,0,0,0)" stroke-width="1.5" stroke-linecap="butt" stroke-dasharray="18.5,18.5" stroke-linejoin="bevel" fill="none" stroke="#000000" d="M935.996 2857.36 1042.5 2918.86V2795.86" />
<path transform="matrix(0,.24,.24,0,0,0)" stroke-width="1.5" stroke-linecap="butt" stroke-dasharray="18.5,18.5" stroke-linejoin="bevel" fill="none" stroke="#000000" d="M1042.5 2274.36V2151.36L935.996 2212.86" />
<path transform="matrix(0,.24,.24,0,0,0)" stroke-width="1.5" stroke-linecap="butt" stroke-linejoin="bevel" fill="none" stroke="#000000" d="M508.996 2543.36 485.496 2557.86" />
<path transform="matrix(0,.24,.24,0,0,0)" stroke-width="1.5" stroke-linecap="butt" stroke-linejoin="bevel" fill="none" stroke="#000000" d="M893.496 2347.36H874.996" />
<path transform="matrix(0,.24,.24,0,0,0)" stroke-width="1.5" stroke-linecap="butt" stroke-linejoin="bevel" fill="none" stroke="#000000" d="M756.496 2434.86H744.996" />
<path transform="matrix(0,.24,.24,0,0,0)" stroke-width="1.5" stroke-linecap="butt" stroke-linejoin="bevel" fill="none" stroke="#000000" d="M782.996 2658.86H765.996" />
<path transform="matrix(0,.24,.24,0,0,0)" stroke-width="3" stroke-linecap="butt" stroke-linejoin="bevel" fill="none" stroke="#dc2a1b" d="M483.996 2474.36C472.996 2480.36 463.996 2489.36 457.996 2500.36 451.996 2510.86 448.496 2523.36 448.496 2535.86 448.496 2548.36 451.996 2560.36 457.996 2571.36 463.996 2581.86 472.996 2590.86 483.996 2596.86" />
<path transform="matrix(0,.24,.24,0,0,0)" stroke-width="3" stroke-linecap="butt" stroke-linejoin="bevel" fill="none" stroke="#dc2a1b" d="M482.996 2474.86 935.996 2212.86" />
<path transform="matrix(0,.24,.24,0,0,0)" stroke-width="3" stroke-linecap="butt" stroke-linejoin="bevel" fill="none" stroke="#dc2a1b" d="M935.996 2213.36C946.996 2207.36 958.996 2203.86 971.496 2203.86 983.996 2203.86 995.996 2207.36 1007 2213.36 1017.5 2219.36 1026.5 2228.36 1033 2239.36 1039 2249.86 1042.5 2262.36 1042.5 2274.86" />
<path transform="matrix(0,.24,.24,0,0,0)" stroke-width="3" stroke-linecap="butt" stroke-linejoin="bevel" fill="none" stroke="#dc2a1b" d="M1042.5 2274.36V2795.86" />
<path transform="matrix(0,.24,.24,0,0,0)" stroke-width="3" stroke-linecap="butt" stroke-linejoin="bevel" fill="none" stroke="#dc2a1b" d="M482.996 2597.86 935.996 2857.36" />
<path transform="matrix(0,.24,.24,0,0,0)" stroke-width="3" stroke-linecap="butt" stroke-linejoin="bevel" fill="none" stroke="#dc2a1b" d="M1042.5 2796.86C1042.5 2809.36 1039 2821.36 1033 2832.36 1026.5 2842.86 1017.5 2851.86 1007 2858.36 995.996 2864.36 983.996 2867.86 971.496 2867.86 958.996 2867.86 946.996 2864.36 935.996 2858.36" />
<path transform="matrix(0,.24,.24,0,0,0)" stroke-width="1.5" stroke-linecap="butt" stroke-linejoin="bevel" fill="none" stroke="#000000" d="M1023.5 2127.86 1005 2092.36" />
<path transform="matrix(0,.24,.24,0,0,0)" stroke-width="1.5" stroke-linecap="butt" stroke-linejoin="bevel" fill="none" stroke="#000000" d="M348.496 2488.86 329.496 2453.86" />
<path transform="matrix(0,.24,.24,0,0,0)" stroke-width="1.5" stroke-linecap="butt" stroke-linejoin="bevel" fill="none" stroke="#000000" d="M867.996 2948.86V2981.36H888.496" />
<path transform="matrix(0,.24,.24,0,0,0)" stroke-width="1.5" stroke-linecap="butt" stroke-linejoin="bevel" fill="none" stroke="#000000" d="M831.996 2948.86V2981.36H810.496" />
<path transform="matrix(0,.24,.24,0,0,0)" stroke-width="1.5" stroke-linecap="butt" stroke-linejoin="bevel" fill="none" stroke="#000000" d="M263.496 2601.36 298.996 2662.86" />
<path transform="matrix(0,.24,.24,0,0,0)" stroke-width="1.5" stroke-linecap="butt" stroke-linejoin="bevel" fill="none" stroke="#000000" d="M280.496 2618.86 263.496 2601.36 269.996 2624.86" />
<path transform="matrix(0,.24,.24,0,0,0)" stroke-width="1.5" stroke-linecap="butt" stroke-linejoin="bevel" fill="none" stroke="#000000" d="M281.996 2645.36 298.996 2662.86 292.496 2639.36" />
<path transform="matrix(0,.24,.24,0,0,0)" stroke-width="1.5" stroke-linecap="butt" stroke-linejoin="bevel" fill="none" stroke="#000000" d="M293.496 2584.36 253.496 2607.36" />
<path transform="matrix(0,.24,.24,0,0,0)" stroke-width="1.5" stroke-linecap="butt" stroke-linejoin="bevel" fill="none" stroke="#000000" d="M328.996 2645.86 288.496 2668.86" />
<path transform="matrix(0,.24,.24,0,0,0)" d="M815.996 2434.86V2569.36L850.996 2533.86V2600.36L791.996 2658.86 732.996 2600.36V2533.86L768.496 2569.36V2434.86H791.996" fill-rule="evenodd" />
<path transform="matrix(0,.24,.24,0,0,0)" d="M881.996 2571.86V2436.86L846.496 2472.36V2406.36L905.496 2347.36 964.496 2406.36V2472.36L928.996 2436.86V2571.86" fill-rule="evenodd" />
<path transform="matrix(0,.24,.24,0,0,0)" stroke-width="1.5" stroke-linecap="butt" stroke-linejoin="bevel" fill="none" stroke="#000000" d="M282.496 2369.36 204.496 2234.36" />
<path transform="matrix(0,.24,.24,0,0,0)" stroke-width="1.5" stroke-linecap="butt" stroke-linejoin="bevel" fill="none" stroke="#000000" d="M945.496 1986.86 867.496 1851.86" />
<path transform="matrix(0,.24,.24,0,0,0)" stroke-width="1.5" stroke-linecap="butt" stroke-linejoin="bevel" fill="none" stroke="#000000" d="M227.496 2227.86 209.996 2244.36 233.496 2237.86" />
<path transform="matrix(0,.24,.24,0,0,0)" stroke-width="1.5" stroke-linecap="butt" stroke-linejoin="bevel" fill="none" stroke="#000000" d="M855.996 1878.86 873.496 1861.86 849.996 1868.86" />
<path transform="matrix(0,.24,.24,0,0,0)" stroke-width="1.5" stroke-linecap="butt" stroke-linejoin="bevel" fill="none" stroke="#000000" d="M873.496 1861.86 209.996 2244.36" />
<path transform="matrix(0,.24,.24,0,0,0)" stroke-width="1.5" stroke-linecap="butt" stroke-linejoin="bevel" fill="none" stroke="#000000" d="M1038.5 2658.86H1012" />
<path transform="matrix(0,.24,.24,0,0,0)" stroke-width="1.5" stroke-linecap="butt" stroke-linejoin="bevel" fill="none" stroke="#000000" d="M1018 2635.36 1024 2658.86 1030 2635.36" />
<path transform="matrix(0,.24,.24,0,0,0)" stroke-width="1.5" stroke-linecap="butt" stroke-linejoin="bevel" fill="none" stroke="#000000" d="M1030 2458.36 1024 2434.86 1018 2458.36" />
<path transform="matrix(0,.24,.24,0,0,0)" stroke-width="1.5" stroke-linecap="butt" stroke-linejoin="bevel" fill="none" stroke="#000000" d="M1024 2434.86V2658.86" />
<path transform="matrix(0,.24,.24,0,0,0)" stroke-width="1.5" stroke-linecap="butt" stroke-linejoin="bevel" fill="none" stroke="#000000" d="M1038.5 2434.86H1012" />
<path transform="matrix(0,.24,.24,0,0,0)" stroke-width="1.5" stroke-linecap="butt" stroke-linejoin="bevel" fill="none" stroke="#000000" d="M1038.5 2347.36H1012" />
<path transform="matrix(0,.24,.24,0,0,0)" stroke-width="1.5" stroke-linecap="butt" stroke-linejoin="bevel" fill="none" stroke="#000000" d="M1018 2411.36 1024 2434.86 1030 2411.36" />
<path transform="matrix(0,.24,.24,0,0,0)" stroke-width="1.5" stroke-linecap="butt" stroke-linejoin="bevel" fill="none" stroke="#000000" d="M1030 2370.86 1024 2347.36 1018 2370.86" />
<path transform="matrix(0,.24,.24,0,0,0)" stroke-width="1.5" stroke-linecap="butt" stroke-linejoin="bevel" fill="none" stroke="#000000" d="M1024 2347.36V2434.86" />
<path transform="matrix(0,.24,.24,0,0,0)" stroke-width="1.5" stroke-linecap="butt" stroke-linejoin="bevel" fill="none" stroke="#000000" d="M971.496 2569.86V2599.86" />
<path transform="matrix(0,.24,.24,0,0,0)" stroke-width="1.5" stroke-linecap="butt" stroke-linejoin="bevel" fill="none" stroke="#000000" d="M964.496 2569.86V2599.86" />
<path transform="matrix(0,.24,.24,0,0,0)" stroke-width="1.5" stroke-linecap="butt" stroke-linejoin="bevel" fill="none" stroke="#000000" d="M995.496 2581.86 971.496 2587.86 995.496 2593.86" />
<path transform="matrix(0,.24,.24,0,0,0)" stroke-width="1.5" stroke-linecap="butt" stroke-linejoin="bevel" fill="none" stroke="#000000" d="M940.996 2593.86 964.496 2587.86 940.996 2581.86" />
<path transform="matrix(0,.24,.24,0,0,0)" stroke-width="1.5" stroke-linecap="butt" stroke-linejoin="bevel" fill="none" stroke="#000000" d="M1009.5 2587.86H971.496" />
<path transform="matrix(0,.24,.24,0,0,0)" stroke-width="1.5" stroke-linecap="butt" stroke-linejoin="bevel" fill="none" stroke="#000000" d="M926.496 2587.86H964.496" />
<path transform="matrix(0,.24,.24,0,0,0)" stroke-width="1.5" stroke-linecap="butt" stroke-linejoin="bevel" fill="none" stroke="#000000" d="M1112 2890.36H1168" />
<path transform="matrix(0,.24,.24,0,0,0)" stroke-width="1.5" stroke-linecap="butt" stroke-linejoin="bevel" fill="none" stroke="#000000" d="M1112 2181.86H1168" />
<path transform="matrix(0,.24,.24,0,0,0)" stroke-width="1.5" stroke-linecap="butt" stroke-linejoin="bevel" fill="none" stroke="#000000" d="M1150.5 2866.86 1156 2890.36 1162 2866.86" />
<path transform="matrix(0,.24,.24,0,0,0)" stroke-width="1.5" stroke-linecap="butt" stroke-linejoin="bevel" fill="none" stroke="#000000" d="M1162 2205.86 1156 2181.86 1150.5 2205.86" />
<path transform="matrix(0,.24,.24,0,0,0)" stroke-width="1.5" stroke-linecap="butt" stroke-linejoin="bevel" fill="none" stroke="#000000" d="M1156 2181.86V2890.36" />
<path transform="matrix(0,.24,.24,0,0,0)" stroke-width="1.5" stroke-linecap="butt" stroke-linejoin="bevel" fill="none" stroke="#000000" d="M1085 2969.36V3019.86" />
<path transform="matrix(0,.24,.24,0,0,0)" stroke-width="1.5" stroke-linecap="butt" stroke-linejoin="bevel" fill="none" stroke="#000000" d="M376.496 2969.36V3019.86" />
<path transform="matrix(0,.24,.24,0,0,0)" stroke-width="1.5" stroke-linecap="butt" stroke-linejoin="bevel" fill="none" stroke="#000000" d="M1061.5 3013.86 1085 3007.86 1061.5 3002.36" />
<path transform="matrix(0,.24,.24,0,0,0)" stroke-width="1.5" stroke-linecap="butt" stroke-linejoin="bevel" fill="none" stroke="#000000" d="M399.996 3002.36 376.496 3007.86 399.996 3013.86" />
<path transform="matrix(0,.24,.24,0,0,0)" stroke-width="1.5" stroke-linecap="butt" stroke-linejoin="bevel" fill="none" stroke="#000000" d="M376.496 3007.86H1085" />
<path transform="matrix(0,.24,.24,0,0,0)" stroke-width="1.5" stroke-linecap="butt" stroke-linejoin="bevel" fill="none" stroke="#000000" d="M768.496 2917.36V2960.86" />
<path transform="matrix(0,.24,.24,0,0,0)" stroke-width="1.5" stroke-linecap="butt" stroke-linejoin="bevel" fill="none" stroke="#000000" d="M732.996 2912.36V2960.86" />
<path transform="matrix(0,.24,.24,0,0,0)" stroke-width="1.5" stroke-linecap="butt" stroke-linejoin="bevel" fill="none" stroke="#000000" d="M791.996 2942.86 768.496 2948.86 791.996 2954.86" />
<path transform="matrix(0,.24,.24,0,0,0)" stroke-width="1.5" stroke-linecap="butt" stroke-linejoin="bevel" fill="none" stroke="#000000" d="M709.496 2954.86 732.996 2948.86 709.496 2942.86" />
<path transform="matrix(0,.24,.24,0,0,0)" stroke-width="1.5" stroke-linecap="butt" stroke-linejoin="bevel" fill="none" stroke="#000000" d="M805.996 2948.86H768.496" />
<path transform="matrix(0,.24,.24,0,0,0)" stroke-width="1.5" stroke-linecap="butt" stroke-linejoin="bevel" fill="none" stroke="#000000" d="M680.996 2948.86H732.996" />
<path transform="matrix(0,.24,.24,0,0,0)" stroke-width="1.5" stroke-linecap="butt" stroke-linejoin="bevel" fill="none" stroke="#000000" d="M850.996 2917.36V2960.86" />
<path transform="matrix(0,.24,.24,0,0,0)" stroke-width="1.5" stroke-linecap="butt" stroke-linejoin="bevel" fill="none" stroke="#000000" d="M815.996 2912.36V2960.86" />
<path transform="matrix(0,.24,.24,0,0,0)" stroke-width="1.5" stroke-linecap="butt" stroke-linejoin="bevel" fill="none" stroke="#000000" d="M874.496 2942.86 850.996 2948.86 874.496 2954.86" />
<path transform="matrix(0,.24,.24,0,0,0)" stroke-width="1.5" stroke-linecap="butt" stroke-linejoin="bevel" fill="none" stroke="#000000" d="M791.996 2954.86 815.996 2948.86 791.996 2942.86" />
<path transform="matrix(0,.24,.24,0,0,0)" stroke-width="1.5" stroke-linecap="butt" stroke-linejoin="bevel" fill="none" stroke="#000000" d="M850.996 2948.86H888.996" />
<path transform="matrix(0,.24,.24,0,0,0)" stroke-width="1.5" stroke-linecap="butt" stroke-linejoin="bevel" fill="none" stroke="#000000" d="M815.996 2948.86H850.996" />
<path transform="matrix(0,.24,.24,0,0,0)" stroke-width="1.5" stroke-linecap="butt" stroke-linejoin="bevel" fill="none" stroke="#000000" d="M777.996 2948.86H815.996" />
<path transform="matrix(0,.24,.24,0,0,0)" stroke-width="1.5" stroke-linecap="butt" stroke-linejoin="bevel" fill="none" stroke="#000000" d="M815.996 2912.36V2960.86" />
<path transform="matrix(0,.24,.24,0,0,0)" stroke-width="1.5" stroke-linecap="butt" stroke-linejoin="bevel" fill="none" stroke="#000000" d="M768.496 2917.36V2960.86" />
<path transform="matrix(0,.24,.24,0,0,0)" stroke-width="1.5" stroke-linecap="butt" stroke-linejoin="bevel" fill="none" stroke="#000000" d="M791.996 2954.86 815.996 2948.86 791.996 2942.86" />
<path transform="matrix(0,.24,.24,0,0,0)" stroke-width="1.5" stroke-linecap="butt" stroke-linejoin="bevel" fill="none" stroke="#000000" d="M791.996 2942.86 768.496 2948.86 791.996 2954.86" />
<path transform="matrix(0,.24,.24,0,0,0)" stroke-width="1.5" stroke-linecap="butt" stroke-linejoin="bevel" fill="none" stroke="#000000" d="M768.496 2948.86H815.996" />
<path transform="matrix(0,.24,.24,0,0,0)" stroke-width="1.5" stroke-linecap="butt" stroke-linejoin="bevel" fill="none" stroke="#000000" d="M776.496 2948.86H768.496" />
<path transform="matrix(0,.24,.24,0,0,0)" stroke-width="1.5" stroke-linecap="butt" stroke-linejoin="bevel" fill="none" stroke="#000000" d="M929.496 2912.36V2960.86" />
<path transform="matrix(0,.24,.24,0,0,0)" stroke-width="1.5" stroke-linecap="butt" stroke-linejoin="bevel" fill="none" stroke="#000000" d="M881.996 2917.36V2960.86" />
<path transform="matrix(0,.24,.24,0,0,0)" stroke-width="1.5" stroke-linecap="butt" stroke-linejoin="bevel" fill="none" stroke="#000000" d="M905.996 2954.86 929.496 2948.86 905.996 2942.86" />
<path transform="matrix(0,.24,.24,0,0,0)" stroke-width="1.5" stroke-linecap="butt" stroke-linejoin="bevel" fill="none" stroke="#000000" d="M905.496 2942.86 881.996 2948.86 905.496 2954.86" />
<path transform="matrix(0,.24,.24,0,0,0)" stroke-width="1.5" stroke-linecap="butt" stroke-linejoin="bevel" fill="none" stroke="#000000" d="M881.996 2948.86H929.496" />
<path transform="matrix(0,.24,.24,0,0,0)" stroke-width="1.5" stroke-linecap="butt" stroke-linejoin="bevel" fill="none" stroke="#000000" d="M887.996 2948.86H881.996" />
<path transform="matrix(0,.24,.24,0,0,0)" stroke-width="1.5" stroke-linecap="butt" stroke-linejoin="bevel" fill="none" stroke="#000000" d="M881.996 2912.36V2960.86" />
<path transform="matrix(0,.24,.24,0,0,0)" stroke-width="1.5" stroke-linecap="butt" stroke-linejoin="bevel" fill="none" stroke="#000000" d="M850.996 2912.36V2960.86" />
<path transform="matrix(0,.24,.24,0,0,0)" stroke-width="1.5" stroke-linecap="butt" stroke-linejoin="bevel" fill="none" stroke="#000000" d="M905.496 2942.86 881.996 2948.86 905.496 2954.86" />
<path transform="matrix(0,.24,.24,0,0,0)" stroke-width="1.5" stroke-linecap="butt" stroke-linejoin="bevel" fill="none" stroke="#000000" d="M827.496 2954.86 850.996 2948.86 827.496 2942.86" />
<path transform="matrix(0,.24,.24,0,0,0)" stroke-width="1.5" stroke-linecap="butt" stroke-linejoin="bevel" fill="none" stroke="#000000" d="M881.996 2948.86H919.996" />
<path transform="matrix(0,.24,.24,0,0,0)" stroke-width="1.5" stroke-linecap="butt" stroke-linejoin="bevel" fill="none" stroke="#000000" d="M850.996 2948.86H881.996" />
<path transform="matrix(0,.24,.24,0,0,0)" stroke-width="1.5" stroke-linecap="butt" stroke-linejoin="bevel" fill="none" stroke="#000000" d="M813.496 2948.86H850.996" />
<path transform="matrix(0,.24,.24,0,0,0)" stroke-width="1.5" stroke-linecap="butt" stroke-linejoin="bevel" fill="none" stroke="#000000" d="M964.996 2917.36V2960.86" />
<path transform="matrix(0,.24,.24,0,0,0)" stroke-width="1.5" stroke-linecap="butt" stroke-linejoin="bevel" fill="none" stroke="#000000" d="M929.496 2912.36V2960.86" />
<path transform="matrix(0,.24,.24,0,0,0)" stroke-width="1.5" stroke-linecap="butt" stroke-linejoin="bevel" fill="none" stroke="#000000" d="M988.496 2942.86 964.996 2948.86 988.496 2954.86" />
<path transform="matrix(0,.24,.24,0,0,0)" stroke-width="1.5" stroke-linecap="butt" stroke-linejoin="bevel" fill="none" stroke="#000000" d="M905.996 2954.86 929.496 2948.86 905.996 2942.86" />
<path transform="matrix(0,.24,.24,0,0,0)" stroke-width="1.5" stroke-linecap="butt" stroke-linejoin="bevel" fill="none" stroke="#000000" d="M1020.5 2948.86H964.996" />
<path transform="matrix(0,.24,.24,0,0,0)" stroke-width="1.5" stroke-linecap="butt" stroke-linejoin="bevel" fill="none" stroke="#000000" d="M891.496 2948.86H929.496" />
<path transform="matrix(0,.24,.24,0,0,0)" stroke-width="3" stroke-linecap="butt" stroke-linejoin="bevel" fill="none" stroke="#000000" d="M435.496 2181.86C419.996 2181.86 404.996 2188.36 393.996 2199.36 382.996 2210.36 376.496 2225.36 376.496 2240.86" />
<path transform="matrix(0,.24,.24,0,0,0)" stroke-width="3" stroke-linecap="butt" stroke-linejoin="bevel" fill="none" stroke="#000000" d="M376.496 2831.36C376.496 2846.86 382.996 2861.86 393.996 2873.36 404.996 2884.36 419.996 2890.36 435.496 2890.36" />
<path transform="matrix(0,.24,.24,0,0,0)" stroke-width="3" stroke-linecap="butt" stroke-linejoin="bevel" fill="none" stroke="#000000" d="M1026 2890.36C1041.5 2890.36 1056.5 2884.36 1068 2873.36 1079 2861.86 1085 2846.86 1085 2831.36" />
<path transform="matrix(0,.24,.24,0,0,0)" stroke-width="3" stroke-linecap="butt" stroke-linejoin="bevel" fill="none" stroke="#000000" d="M1085 2240.86C1085 2225.36 1079 2210.36 1068 2199.36 1056.5 2188.36 1041.5 2181.86 1026 2181.86" />
<path transform="matrix(0,.24,.24,0,0,0)" d="M253.496 2650.36C251.996 2650.86 250.496 2651.36 248.996 2650.86 247.496 2650.86 246.496 2649.86 245.996 2648.36 244.996 2646.86 244.996 2644.86 245.996 2643.36 246.996 2640.86 249.496 2638.86 253.496 2636.36 256.996 2634.36 259.996 2633.36 261.996 2633.36 263.996 2633.86 265.496 2634.86 266.496 2636.36 266.996 2637.36 267.496 2638.36 267.496 2639.36 266.996 2640.36 266.496 2641.86 265.996 2642.86 264.996 2643.86 263.996 2644.86 262.496 2645.36 260.496 2646.86 258.996 2646.86 256.996 2646.86 255.496 2646.86 253.996 2645.86 252.996 2644.36 252.996 2643.86 252.496 2642.86 252.496 2641.86 252.496 2640.86 252.996 2639.86 253.496 2638.86 251.496 2640.36 249.996 2641.36 249.496 2642.36 248.496 2643.36 247.996 2644.36 247.496 2645.36 247.496 2645.86 247.496 2646.86 247.996 2647.36 248.496 2647.86 248.996 2648.36 249.996 2648.86 250.996 2648.86 251.496 2648.36 252.996 2648.36L253.496 2650.36ZM257.996 2636.86C256.496 2637.86 255.496 2638.86 254.996 2639.86 254.496 2640.86 254.496 2641.86 254.996 2642.86 255.496 2643.86 256.496 2644.36 257.996 2644.36 258.996 2644.36 259.996 2644.36 261.496 2643.36 262.996 2642.36 263.996 2641.36 264.496 2640.36 264.996 2639.36 264.996 2638.36 264.496 2637.36 264.496 2636.86 263.496 2636.36 262.996 2636.36 262.496 2635.86 261.496 2635.86 260.496 2635.86 259.496 2636.36 258.496 2636.36 257.996 2636.86" fill-rule="evenodd" />
<path transform="matrix(0,.24,.24,0,0,0)" d="M260.496 2649.36C263.996 2647.36 267.496 2646.36 269.496 2646.36 271.496 2646.36 272.996 2647.36 273.996 2648.86 274.496 2649.86 274.496 2651.36 274.496 2652.36 273.996 2653.86 272.996 2654.86 271.996 2656.36 270.496 2657.36 268.996 2658.86 266.496 2660.36 264.496 2661.36 262.996 2662.36 261.496 2662.36 259.996 2662.86 258.996 2663.36 257.996 2663.36 256.996 2663.36 255.996 2663.36 254.996 2662.86 253.996 2662.36 253.496 2661.86 252.996 2660.86 252.496 2659.86 251.996 2658.36 252.496 2657.36 252.996 2655.86 253.496 2654.86 254.996 2653.36 255.996 2652.36 257.996 2650.86 260.496 2649.36ZM261.496 2651.36C257.996 2653.36 255.996 2655.36 254.996 2656.36 254.496 2657.86 254.496 2658.86 254.996 2659.86 255.496 2660.36 256.496 2660.86 257.996 2660.86 259.496 2660.86 261.996 2659.86 265.496 2657.86 268.496 2656.36 270.496 2654.36 271.496 2653.36 271.996 2651.86 272.496 2650.86 271.996 2649.86 271.496 2648.86 270.496 2648.36 268.996 2648.36 267.496 2648.86 264.996 2649.36 261.496 2651.36" fill-rule="evenodd" />
<path transform="matrix(0,.24,.24,0,0,0)" d="M950.996 2572.36C952.996 2572.86 954.496 2573.36 955.496 2574.36 956.996 2575.36 957.496 2576.86 957.496 2578.36 957.496 2580.86 956.496 2582.36 954.496 2583.36 952.996 2584.36 950.996 2584.86 948.996 2584.86 946.496 2584.86 944.996 2584.36 943.496 2583.36 941.996 2582.36 941.496 2580.86 941.496 2579.36 941.496 2577.86 941.996 2576.86 942.996 2575.86L936.496 2576.86V2584.36H933.496V2574.86L945.996 2572.86V2575.36C945.496 2575.36 944.996 2575.86 944.496 2576.36 943.996 2577.36 943.996 2577.86 943.996 2578.36 943.996 2579.86 944.496 2580.86 945.496 2581.36 946.496 2582.36 947.496 2582.36 949.496 2582.36 950.996 2582.36 952.496 2582.36 953.496 2581.36 954.496 2580.86 954.996 2579.86 954.996 2578.36 954.996 2577.86 954.496 2576.86 953.996 2576.36 952.996 2575.36 951.996 2575.36 950.496 2574.86L950.996 2572.36" fill-rule="evenodd" />
<path transform="matrix(0,.24,.24,0,0,0)" d="M521.496 2030.86C520.996 2028.86 520.496 2027.36 520.996 2026.36 521.496 2024.86 521.996 2023.86 523.496 2022.86 524.996 2021.86 526.996 2021.86 528.996 2022.86 530.996 2023.86 533.496 2026.86 535.496 2030.36 537.496 2033.86 538.496 2036.86 538.496 2038.86 537.996 2041.36 537.496 2042.86 535.496 2043.86 534.496 2044.36 533.496 2044.36 532.496 2044.36 531.496 2044.36 530.496 2043.86 528.996 2042.86 527.996 2041.86 526.996 2040.86 526.496 2039.86 525.496 2037.86 524.996 2035.86 524.996 2034.36 525.496 2032.36 525.996 2030.86 527.496 2030.36 528.496 2029.86 528.996 2029.86 529.996 2029.86 530.996 2029.86 531.996 2029.86 532.996 2030.86 531.996 2028.86 530.496 2027.36 529.496 2026.36 528.496 2025.36 527.996 2024.86 526.996 2024.86 525.996 2024.36 525.496 2024.86 524.496 2024.86 523.996 2025.36 523.496 2026.36 523.496 2027.36 522.996 2027.86 523.496 2028.86 523.996 2029.86L521.496 2030.86ZM534.996 2034.86C533.996 2033.36 533.496 2032.86 531.996 2032.36 530.996 2031.86 529.996 2031.86 528.996 2032.36 528.496 2032.86 527.496 2033.86 527.496 2034.86 527.496 2035.86 527.996 2037.36 528.496 2038.86 529.496 2040.36 530.496 2041.36 531.496 2041.86 532.496 2042.36 533.496 2042.36 534.496 2041.86 534.996 2041.36 535.496 2040.86 535.996 2039.86 535.996 2039.36 535.996 2038.36 535.996 2037.36 535.996 2036.86 535.496 2035.86 534.996 2034.86" fill-rule="evenodd" />
<path transform="matrix(0,.24,.24,0,0,0)" d="M524.996 2042.36C525.996 2043.86 526.496 2045.86 525.996 2047.36 525.496 2048.86 524.496 2049.86 523.496 2050.86 521.496 2051.86 519.496 2051.86 517.496 2050.86 515.996 2049.86 514.496 2048.86 513.496 2046.86 512.496 2044.86 511.996 2042.86 511.996 2041.36 512.496 2039.36 513.496 2037.86 514.496 2037.36 515.996 2036.86 516.996 2036.36 518.496 2036.86L514.496 2031.86 507.996 2035.36 506.496 2033.36 514.496 2028.36 522.496 2037.86 520.496 2039.36C519.996 2038.86 519.496 2038.86 518.496 2038.86 517.996 2038.86 516.996 2038.86 516.496 2039.36 515.496 2039.86 514.996 2040.86 514.496 2041.86 514.496 2042.86 514.996 2044.36 515.496 2045.86 516.496 2047.36 517.496 2048.36 518.996 2048.86 519.996 2049.36 520.996 2049.36 521.996 2048.86 522.996 2048.36 523.496 2047.86 523.496 2046.86 523.996 2045.86 523.496 2044.36 522.996 2043.36L524.996 2042.36" fill-rule="evenodd" />
<path transform="matrix(0,.24,.24,0,0,0)" d="M509.996 2044.86C511.996 2048.36 512.996 2051.86 512.996 2053.86 512.996 2055.86 511.996 2057.36 510.496 2058.36 509.496 2058.86 507.996 2059.36 506.996 2058.86 505.496 2058.36 504.496 2057.86 502.996 2056.36 501.996 2055.36 500.496 2053.36 498.996 2050.86 497.996 2048.86 496.996 2047.36 496.496 2045.86 496.496 2044.36 495.996 2043.36 495.996 2042.36 495.996 2041.36 495.996 2040.36 496.496 2039.36 496.996 2038.36 497.496 2037.86 498.496 2037.36 499.496 2036.86 500.996 2036.36 501.996 2036.86 503.496 2037.36 504.496 2037.86 505.996 2039.36 506.996 2040.36 508.496 2042.36 509.996 2044.86ZM507.496 2045.86C505.996 2042.36 503.996 2040.36 502.496 2039.86 501.496 2038.86 500.496 2038.86 499.496 2039.36 498.496 2039.86 498.496 2040.86 498.496 2042.36 498.496 2043.86 499.496 2046.36 500.996 2049.86 502.996 2052.86 504.496 2055.36 505.996 2055.86 507.496 2056.86 508.496 2056.86 509.496 2056.36 509.996 2055.86 510.496 2054.86 510.496 2053.36 510.496 2051.86 509.496 2049.36 507.496 2045.86" fill-rule="evenodd" />
<path transform="matrix(0,.24,.24,0,0,0)" d="M1012 2533.86H988.496V2532.36C989.496 2531.86 990.496 2530.86 991.496 2529.86 992.496 2528.86 993.496 2527.86 994.496 2526.86H996.996C996.996 2527.36 996.496 2528.36 995.496 2529.36 994.996 2529.86 994.496 2530.86 993.496 2531.36H1012V2533.86" fill-rule="evenodd" />
<path transform="matrix(0,.24,.24,0,0,0)" d="M1006.5 2539.86C1008.5 2540.36 1010 2540.86 1011 2541.86 1012 2542.36 1012.5 2543.86 1012.5 2545.36 1012.5 2546.86 1012 2547.86 1011 2548.86 1010 2549.86 1009 2550.86 1007 2551.36 1005.5 2551.86 1003 2551.86 999.996 2551.86 996.996 2551.86 994.496 2551.86 992.996 2551.36 991.496 2550.86 990.496 2549.86 989.496 2548.86 988.996 2547.86 988.496 2546.86 988.496 2545.36 988.496 2543.86 988.996 2542.36 990.496 2541.36 991.996 2540.36 993.996 2539.36 996.496 2539.36 998.496 2539.36 1000.5 2540.36 1002 2541.36 1003.5 2542.36 1004 2543.36 1004 2545.36 1004 2545.86 1004 2546.86 1003.5 2547.86 1002.5 2548.36 1002 2549.36 1001 2549.86H1001.5C1001.5 2549.86 1001.5 2549.86 1001.5 2549.86 1003 2549.86 1004 2549.36 1005 2549.36 1006.5 2548.86 1007 2548.86 1008 2548.36 1008.5 2548.36 1009 2547.86 1009.5 2547.36 1010 2546.86 1010 2545.86 1010 2545.36 1010 2544.36 1010 2543.86 1009.5 2543.36 1008.5 2542.86 1007.5 2542.36 1006.5 2542.36V2539.86ZM996.496 2549.36C997.996 2549.36 998.996 2548.86 999.996 2548.36 1001 2547.86 1001.5 2546.86 1001.5 2545.86 1001.5 2544.86 1001 2543.86 999.996 2542.86 998.996 2542.36 997.996 2541.86 996.496 2541.86 994.996 2541.86 993.496 2542.36 992.496 2543.36 991.496 2543.86 990.996 2544.86 990.996 2545.86 990.996 2546.86 991.496 2547.86 992.496 2548.36 993.496 2548.86 994.496 2549.36 996.496 2549.36" fill-rule="evenodd" />
<path transform="matrix(0,.24,.24,0,0,0)" d="M1000.5 2554.36C1005 2554.36 1008 2554.86 1010 2556.36 1011.5 2557.36 1012.5 2558.36 1012.5 2560.36 1012.5 2561.86 1012 2562.86 1011 2563.86 1010 2564.86 1009 2565.36 1007 2565.86 1005.5 2566.36 1003.5 2566.36 1000.5 2566.36 997.996 2566.36 996.496 2566.36 994.996 2566.36 993.496 2565.86 992.496 2565.36 991.496 2564.86 990.496 2564.36 989.496 2563.86 988.996 2562.86 988.496 2562.36 988.496 2561.36 988.496 2560.36 988.496 2558.86 988.996 2557.86 989.996 2556.86 990.496 2555.86 991.996 2555.36 993.996 2554.86 995.496 2554.36 997.496 2554.36 1000.5 2554.36ZM1000.5 2556.86C996.496 2556.86 993.996 2556.86 992.496 2557.86 991.496 2558.36 990.996 2559.36 990.996 2560.36 990.996 2561.36 991.496 2562.36 992.496 2562.86 993.996 2563.86 996.496 2564.36 1000.5 2564.36 1004.5 2564.36 1007 2563.86 1008 2562.86 1009.5 2562.36 1010 2561.36 1010 2560.36 1010 2559.36 1009.5 2558.36 1008 2557.86 1007 2556.86 1004.5 2556.86 1000.5 2556.86" fill-rule="evenodd" />
<path transform="matrix(0,.24,.24,0,0,0)" d="M991.496 2368.86V2377.86C993.496 2376.86 995.496 2375.86 997.996 2374.86 999.996 2373.86 1003 2372.86 1005.5 2372.36 1008 2371.86 1010.5 2371.36 1012 2371.36V2373.86C1010 2373.86 1007.5 2374.36 1005.5 2374.86 1003 2375.36 999.996 2376.36 997.496 2377.36 994.996 2378.36 992.496 2379.86 990.996 2380.86H988.996V2368.86H991.496" fill-rule="evenodd" />
<path transform="matrix(0,.24,.24,0,0,0)" d="M1006 2383.36C1008 2383.36 1009.5 2383.86 1010.5 2385.36 1012 2386.36 1012.5 2387.86 1012.5 2389.36 1012.5 2391.36 1011.5 2392.86 1009.5 2394.36 1008 2395.36 1006.5 2395.86 1004 2395.86 1002 2395.86 999.996 2395.36 998.496 2393.86 996.996 2392.86 996.496 2391.36 996.496 2389.86 996.496 2388.86 996.996 2387.36 997.996 2386.36L991.496 2387.36V2394.86H988.996V2385.36L1001 2383.86 1001.5 2385.86C1000.5 2386.36 999.996 2386.86 999.496 2387.36 998.996 2387.86 998.996 2388.36 998.996 2389.36 998.996 2390.36 999.496 2391.36 1000.5 2392.36 1001.5 2392.86 1002.5 2393.36 1004.5 2393.36 1006 2393.36 1007.5 2392.86 1008.5 2392.36 1009.5 2391.36 1010 2390.36 1010 2389.36 1010 2388.36 1010 2387.36 1009 2386.86 1008.5 2386.36 1007 2385.86 1005.5 2385.86L1006 2383.36" fill-rule="evenodd" />
<path transform="matrix(0,.24,.24,0,0,0)" d="M1126.5 2527.86C1125 2527.36 1123.5 2526.86 1122.5 2525.86 1121.5 2524.86 1120.5 2523.86 1120.5 2522.36 1120.5 2520.36 1121.5 2518.86 1123.5 2517.36 1125.5 2516.36 1129 2515.36 1133.5 2515.36 1137.5 2515.36 1140.5 2516.36 1142 2517.36 1144 2518.86 1145 2520.36 1145 2522.36 1145 2523.36 1144.5 2524.36 1144 2525.36 1143 2525.86 1142 2526.86 1141 2527.36 1139.5 2527.86 1138 2527.86 1137 2527.86 1134.5 2527.86 1132.5 2527.36 1131.5 2526.36 1130 2525.36 1129 2523.86 1129 2522.36 1129 2521.36 1129.5 2520.86 1130 2519.86 1130.5 2519.36 1131 2518.36 1132.5 2517.86 1130 2517.86 1128 2517.86 1127 2518.36 1125.5 2518.86 1124.5 2519.36 1124 2520.36 1123.5 2520.86 1123 2521.36 1123 2522.36 1123 2523.36 1123.5 2523.86 1124.5 2524.36 1125 2524.86 1125.5 2525.36 1127 2525.36L1126.5 2527.86ZM1137 2518.36C1135.5 2518.36 1134 2518.36 1133 2519.36 1132 2519.86 1131.5 2520.86 1131.5 2521.86 1131.5 2522.86 1132 2523.86 1133 2524.86 1134 2525.36 1135.5 2525.86 1137 2525.86 1138.5 2525.86 1140 2525.36 1141 2524.36 1142 2523.86 1142.5 2522.86 1142.5 2521.86 1142.5 2521.36 1142 2520.86 1141.5 2520.36 1141.5 2519.36 1140.5 2518.86 1139.5 2518.86 1138.5 2518.36 1138 2518.36 1137 2518.36" fill-rule="evenodd" />
<path transform="matrix(0,.24,.24,0,0,0)" d="M1133 2530.36C1137 2530.36 1140.5 2530.86 1142.5 2532.36 1144 2533.36 1145 2534.86 1145 2536.36 1145 2537.86 1144.5 2538.86 1143.5 2539.86 1142.5 2540.86 1141 2541.36 1139.5 2541.86 1138 2542.36 1135.5 2542.86 1133 2542.86 1130.5 2542.86 1128.5 2542.36 1127 2542.36 1126 2541.86 1124.5 2541.36 1123.5 2540.86 1122.5 2540.36 1122 2539.86 1121.5 2539.36 1121 2538.36 1120.5 2537.36 1120.5 2536.36 1120.5 2535.36 1121 2533.86 1122 2532.86 1123 2532.36 1124.5 2531.36 1126 2530.86 1128 2530.36 1130 2530.36 1133 2530.36ZM1133 2532.86C1129 2532.86 1126.5 2533.36 1125 2533.86 1123.5 2534.36 1123 2535.36 1123 2536.36 1123 2537.36 1124 2538.36 1125 2539.36 1126.5 2539.86 1129 2540.36 1133 2540.36 1136.5 2540.36 1139 2539.86 1140.5 2539.36 1142 2538.36 1142.5 2537.36 1142.5 2536.36 1142.5 2535.36 1142 2534.36 1140.5 2533.86 1139.5 2532.86 1136.5 2532.86 1133 2532.86" fill-rule="evenodd" />
<path transform="matrix(0,.24,.24,0,0,0)" d="M1133 2544.86C1137 2544.86 1140.5 2545.86 1142.5 2546.86 1144 2547.86 1145 2549.36 1145 2551.36 1145 2552.36 1144.5 2553.86 1143.5 2554.36 1142.5 2555.36 1141 2556.36 1139.5 2556.86 1138 2556.86 1135.5 2557.36 1133 2557.36 1130.5 2557.36 1128.5 2557.36 1127 2556.86 1126 2556.86 1124.5 2556.36 1123.5 2555.86 1122.5 2555.36 1122 2554.36 1121.5 2553.86 1121 2552.86 1120.5 2552.36 1120.5 2551.36 1120.5 2549.86 1121 2548.86 1122 2547.86 1123 2546.86 1124.5 2546.36 1126 2545.86 1128 2545.36 1130 2544.86 1133 2544.86ZM1133 2547.36C1129 2547.36 1126.5 2547.86 1125 2548.36 1123.5 2549.36 1123 2549.86 1123 2551.36 1123 2552.36 1124 2553.36 1125 2553.86 1126.5 2554.36 1129 2554.86 1133 2554.86 1136.5 2554.86 1139 2554.36 1140.5 2553.86 1142 2553.36 1142.5 2552.36 1142.5 2551.36 1142.5 2549.86 1142 2549.36 1140.5 2548.36 1139.5 2547.86 1136.5 2547.36 1133 2547.36" fill-rule="evenodd" />
<path transform="matrix(0,.24,.24,0,0,0)" d="M741.496 3030.86C741.996 3029.36 742.496 3027.86 743.496 3026.86 744.496 3025.86 745.496 3025.36 746.996 3025.36 748.996 3025.36 750.496 3025.86 751.496 3027.86 752.996 3029.86 753.996 3033.36 753.996 3037.86 753.996 3041.86 752.996 3044.86 751.996 3046.86 750.496 3048.36 748.996 3049.36 746.996 3049.36 745.996 3049.36 744.996 3048.86 743.996 3048.36 743.496 3047.36 742.496 3046.86 741.996 3045.36 741.496 3043.86 741.496 3042.86 741.496 3041.36 741.496 3038.86 741.996 3037.36 742.996 3035.86 743.996 3034.36 745.496 3033.36 746.996 3033.36 747.996 3033.36 748.496 3033.86 749.496 3034.36 749.996 3034.86 750.996 3035.86 751.496 3036.86 751.496 3034.36 750.996 3032.36 750.996 3031.36 750.496 3029.86 749.996 3028.86 748.996 3028.36 748.496 3027.86 747.996 3027.36 746.996 3027.36 745.996 3027.36 745.496 3027.86 744.996 3028.86 744.496 3029.36 743.996 3030.36 743.996 3031.36L741.496 3030.86ZM750.996 3041.36C750.996 3039.86 750.496 3038.36 749.996 3037.36 749.496 3036.86 748.496 3036.36 747.496 3036.36 746.496 3036.36 745.496 3036.86 744.496 3037.36 743.996 3038.36 743.496 3039.86 743.496 3041.36 743.496 3043.36 743.996 3044.36 744.496 3045.36 745.496 3046.36 746.496 3046.86 747.496 3046.86 747.996 3046.86 748.496 3046.86 748.996 3046.36 749.996 3045.86 750.496 3044.86 750.496 3044.36 750.996 3043.36 750.996 3042.36 750.996 3041.36" fill-rule="evenodd" />
<path transform="matrix(0,.24,.24,0,0,0)" d="M738.996 3037.36C738.996 3041.86 738.496 3044.86 736.996 3046.86 735.996 3048.36 734.496 3049.36 732.996 3049.36 731.496 3049.36 730.496 3048.86 729.496 3047.86 728.496 3046.86 727.996 3045.86 727.496 3043.86 726.996 3042.36 726.496 3039.86 726.496 3037.36 726.496 3034.86 726.996 3032.86 726.996 3031.86 727.496 3030.36 727.996 3029.36 728.496 3028.36 728.996 3027.36 729.496 3026.36 729.996 3025.86 730.996 3025.36 731.996 3025.36 732.996 3025.36 733.996 3025.36 735.496 3025.86 736.496 3026.36 736.996 3027.36 737.996 3028.86 738.496 3030.36 738.996 3032.36 738.996 3034.36 738.996 3037.36ZM736.496 3037.36C736.496 3033.36 735.996 3030.86 735.496 3029.36 734.996 3028.36 733.996 3027.36 732.996 3027.36 731.996 3027.36 730.996 3028.36 729.996 3029.36 729.496 3030.86 728.996 3033.36 728.996 3037.36 728.996 3041.36 729.496 3043.86 729.996 3044.86 730.996 3046.36 731.996 3046.86 732.996 3046.86 733.996 3046.86 734.996 3046.36 735.496 3044.86 735.996 3043.86 736.496 3041.36 736.496 3037.36" fill-rule="evenodd" />
<path transform="matrix(0,.24,.24,0,0,0)" d="M724.496 3037.36C724.496 3041.86 723.496 3044.86 722.496 3046.86 721.496 3048.36 719.996 3049.36 717.996 3049.36 716.996 3049.36 715.496 3048.86 714.496 3047.86 713.996 3046.86 712.996 3045.86 712.496 3043.86 711.996 3042.36 711.996 3039.86 711.996 3037.36 711.996 3034.86 711.996 3032.86 712.496 3031.86 712.496 3030.36 712.996 3029.36 713.496 3028.36 713.996 3027.36 714.496 3026.36 715.496 3025.86 716.496 3025.36 716.996 3025.36 717.996 3025.36 719.496 3025.36 720.496 3025.86 721.496 3026.36 722.496 3027.36 722.996 3028.86 723.496 3030.36 723.996 3032.36 724.496 3034.36 724.496 3037.36ZM721.996 3037.36C721.996 3033.36 721.496 3030.86 720.496 3029.36 719.996 3028.36 719.496 3027.36 717.996 3027.36 716.996 3027.36 715.996 3028.36 715.496 3029.36 714.996 3030.86 714.496 3033.36 714.496 3037.36 714.496 3041.36 714.996 3043.86 715.496 3044.86 715.996 3046.36 716.996 3046.86 717.996 3046.86 718.996 3046.86 719.996 3046.36 720.996 3044.86 721.496 3043.86 721.996 3041.36 721.996 3037.36" fill-rule="evenodd" />
<path transform="matrix(0,.24,.24,0,0,0)" d="M707.996 2930.86C707.996 2932.86 706.996 2934.36 705.996 2935.86 704.996 2936.86 703.496 2937.36 701.996 2937.36 699.996 2937.36 698.496 2936.86 697.496 2935.36 695.996 2933.86 695.496 2932.36 695.496 2930.36 695.496 2928.86 695.996 2927.36 696.496 2926.36 696.996 2925.36 697.996 2924.86 698.996 2924.36 698.496 2923.86 697.496 2923.36 696.996 2922.36 696.996 2921.36 696.496 2920.86 696.496 2919.36 696.496 2918.36 696.996 2917.36 696.996 2916.36 697.496 2915.86 698.496 2914.86 698.996 2914.36 699.996 2913.86 700.996 2913.36 701.996 2913.36 703.496 2913.36 704.996 2913.86 705.996 2914.86 706.996 2916.36 707.496 2917.86 707.996 2919.36L705.496 2920.36C705.496 2918.86 704.996 2917.86 704.496 2916.86 703.496 2916.36 702.996 2915.86 701.996 2915.86 700.996 2915.86 700.496 2916.36 699.996 2916.86 698.996 2917.36 698.996 2918.36 698.996 2919.36 698.996 2920.86 699.496 2921.86 699.996 2922.36 700.996 2923.36 701.996 2923.36 702.996 2923.36L703.496 2925.86C702.996 2925.86 701.996 2925.86 701.996 2925.86 700.496 2925.86 699.996 2925.86 698.996 2926.86 698.496 2927.86 697.996 2928.86 697.996 2930.36 697.996 2931.86 698.496 2932.86 698.996 2933.86 699.996 2934.86 700.996 2935.36 701.996 2935.36 702.996 2935.36 703.496 2934.86 704.496 2933.86 704.996 2933.36 705.496 2932.36 705.496 2930.36L707.996 2930.86" fill-rule="evenodd" />
<path transform="matrix(0,.24,.24,0,0,0)" d="M693.496 2925.36C693.496 2929.86 692.496 2933.36 691.496 2935.36 690.496 2936.86 688.996 2937.36 686.996 2937.36 685.996 2937.36 684.496 2937.36 683.996 2936.36 682.996 2935.36 681.996 2933.86 681.496 2932.36 681.496 2930.36 680.996 2928.36 680.996 2925.36 680.996 2923.36 680.996 2921.36 681.496 2919.86 681.496 2918.36 681.996 2917.36 682.496 2916.36 682.996 2915.36 683.996 2914.86 684.496 2914.36 685.496 2913.86 685.996 2913.36 686.996 2913.36 688.496 2913.36 689.496 2913.86 690.496 2914.86 691.496 2915.86 691.996 2916.86 692.496 2918.86 692.996 2920.36 693.496 2922.86 693.496 2925.36ZM690.996 2925.36C690.996 2921.86 690.496 2918.86 689.996 2917.36 688.996 2916.36 688.496 2915.86 686.996 2915.86 685.996 2915.86 684.996 2916.36 684.496 2917.86 683.996 2918.86 683.496 2921.86 683.496 2925.36 683.496 2929.36 683.996 2931.86 684.496 2933.36 684.996 2934.36 685.996 2935.36 686.996 2935.36 687.996 2935.36 688.996 2934.36 689.996 2933.36 690.496 2931.86 690.996 2929.36 690.996 2925.36" fill-rule="evenodd" />
<path transform="matrix(0,.24,.24,0,0,0)" d="M805.496 2985.36C804.996 2987.36 804.496 2988.86 803.496 2989.86 802.496 2991.36 800.996 2991.86 798.996 2991.86 797.496 2991.86 795.996 2991.36 794.496 2989.86 793.496 2988.36 792.996 2986.36 792.996 2984.36 792.996 2982.86 792.996 2981.86 793.996 2980.86 794.496 2979.86 795.496 2978.86 796.496 2978.86 795.496 2978.36 794.996 2977.36 794.496 2976.86 793.996 2975.86 793.996 2974.86 793.996 2973.86 793.996 2972.86 793.996 2971.86 794.496 2970.86 794.996 2969.86 795.496 2969.36 796.496 2968.36 797.496 2967.86 798.496 2967.86 799.496 2967.86 800.996 2967.86 801.996 2968.36 802.996 2969.36 803.996 2970.36 804.496 2971.86 804.996 2973.86L802.496 2974.36C802.496 2972.86 801.996 2971.86 801.496 2971.36 800.996 2970.36 799.996 2970.36 799.496 2970.36 798.496 2970.36 797.496 2970.36 796.996 2971.36 796.496 2971.86 795.996 2972.86 795.996 2973.86 795.996 2975.36 796.496 2976.36 797.496 2976.86 797.996 2977.36 798.996 2977.86 799.996 2977.86H800.496C800.496 2977.86 800.496 2977.86 800.496 2977.86V2980.36C799.996 2979.86 799.496 2979.86 798.996 2979.86 797.996 2979.86 796.996 2980.36 796.496 2981.36 795.496 2982.36 795.496 2983.36 795.496 2984.36 795.496 2985.86 795.496 2987.36 796.496 2987.86 796.996 2988.86 797.996 2989.36 798.996 2989.36 799.996 2989.36 800.996 2989.36 801.496 2988.36 801.996 2987.86 802.496 2986.36 802.996 2984.86L805.496 2985.36" fill-rule="evenodd" />
<path transform="matrix(0,.24,.24,0,0,0)" d="M790.496 2979.86C790.496 2984.36 789.996 2987.36 788.496 2989.36 787.496 2990.86 786.496 2991.86 784.496 2991.86 782.996 2991.86 781.996 2991.36 780.996 2990.36 779.996 2989.36 779.496 2988.36 778.996 2986.36 778.496 2984.86 778.496 2982.36 778.496 2979.86 778.496 2977.36 778.496 2975.86 778.496 2974.36 778.996 2972.86 779.496 2971.86 779.996 2970.86 780.496 2969.86 780.996 2968.86 781.996 2968.36 782.496 2967.86 783.496 2967.86 784.496 2967.86 785.996 2967.86 786.996 2968.36 787.996 2969.36 788.996 2969.86 789.496 2971.36 789.996 2972.86 790.496 2974.86 790.496 2976.86 790.496 2979.86ZM787.996 2979.86C787.996 2975.86 787.996 2973.36 786.996 2971.86 786.496 2970.86 785.496 2970.36 784.496 2970.36 783.496 2970.36 782.496 2970.86 781.996 2971.86 780.996 2973.36 780.496 2975.86 780.496 2979.86 780.496 2983.86 780.996 2986.36 781.996 2987.36 782.496 2988.86 783.496 2989.36 784.496 2989.36 785.496 2989.36 786.496 2988.86 786.996 2987.36 787.996 2986.36 787.996 2983.86 787.996 2979.86" fill-rule="evenodd" />
<path transform="matrix(0,.24,.24,0,0,0)" d="M795.996 2937.36H793.996V2931.36H791.496V2928.86H793.996V2913.36H795.996L804.496 2928.86V2931.36H795.996V2937.36ZM795.996 2928.86H801.996L795.996 2918.36V2928.86" fill-rule="evenodd" />
<path transform="matrix(0,.24,.24,0,0,0)" d="M788.996 2925.36C788.996 2929.86 788.496 2933.36 786.996 2935.36 785.996 2936.86 784.496 2937.36 782.996 2937.36 781.496 2937.36 780.496 2937.36 779.496 2936.36 778.496 2935.36 777.996 2933.86 777.496 2932.36 776.996 2930.36 776.496 2928.36 776.496 2925.36 776.496 2923.36 776.996 2921.36 776.996 2919.86 777.496 2918.36 777.996 2917.36 778.496 2916.36 778.996 2915.36 779.496 2914.86 779.996 2914.36 780.996 2913.86 781.996 2913.36 782.996 2913.36 783.996 2913.36 785.496 2913.86 785.996 2914.86 786.996 2915.86 787.996 2916.86 788.496 2918.86 788.496 2920.36 788.996 2922.86 788.996 2925.36ZM786.496 2925.36C786.496 2921.86 785.996 2918.86 785.496 2917.36 784.996 2916.36 783.996 2915.86 782.996 2915.86 781.996 2915.86 780.996 2916.36 779.996 2917.86 779.496 2918.86 778.996 2921.86 778.996 2925.36 778.996 2929.36 779.496 2931.86 779.996 2933.36 780.996 2934.36 781.996 2935.36 782.996 2935.36 783.996 2935.36 784.996 2934.36 785.496 2933.36 785.996 2931.86 786.496 2929.36 786.496 2925.36" fill-rule="evenodd" />
<path transform="matrix(0,.24,.24,0,0,0)" d="M907.496 2937.36H905.496V2931.36H902.496V2928.86H905.496V2913.36H906.996L915.996 2928.86V2931.36H907.496V2937.36ZM907.496 2928.86H913.496L907.496 2918.36V2928.86" fill-rule="evenodd" />
<path transform="matrix(0,.24,.24,0,0,0)" d="M900.496 2925.36C900.496 2929.86 899.496 2933.36 898.496 2935.36 897.496 2936.86 895.996 2937.36 893.996 2937.36 892.996 2937.36 891.496 2937.36 890.496 2936.36 889.996 2935.36 888.996 2933.86 888.496 2932.36 888.496 2930.36 887.996 2928.36 887.996 2925.36 887.996 2923.36 887.996 2921.36 888.496 2919.86 888.496 2918.36 888.996 2917.36 889.496 2916.36 889.996 2915.36 890.496 2914.86 891.496 2914.36 892.496 2913.86 892.996 2913.36 893.996 2913.36 895.496 2913.36 896.496 2913.86 897.496 2914.86 898.496 2915.86 898.996 2916.86 899.496 2918.86 899.996 2920.36 900.496 2922.86 900.496 2925.36ZM897.996 2925.36C897.996 2921.86 897.496 2918.86 896.996 2917.36 895.996 2916.36 895.496 2915.86 893.996 2915.86 892.996 2915.86 891.996 2916.36 891.496 2917.86 890.996 2918.86 890.496 2921.86 890.496 2925.36 890.496 2929.36 890.996 2931.86 891.496 2933.36 891.996 2934.36 892.996 2935.36 893.996 2935.36 894.996 2935.36 895.996 2934.36 896.996 2933.36 897.496 2931.86 897.996 2929.36 897.996 2925.36" fill-rule="evenodd" />
<path transform="matrix(0,.24,.24,0,0,0)" d="M909.496 2985.86H918.996C918.496 2985.36 918.496 2984.86 917.996 2984.36 917.496 2983.86 916.496 2982.86 914.996 2981.36 913.496 2979.86 912.496 2978.36 911.496 2977.36 910.996 2976.36 910.496 2975.36 909.996 2974.36 909.996 2973.36 909.496 2972.36 909.496 2971.86 909.496 2969.86 909.996 2968.36 911.496 2966.86 912.496 2965.86 913.496 2964.86 915.496 2964.86 917.496 2964.86 918.996 2965.86 919.996 2966.86 920.996 2967.86 921.496 2969.86 921.496 2971.86L919.496 2972.36C919.496 2970.86 918.996 2969.36 918.496 2968.86 917.496 2967.86 916.496 2967.36 915.496 2967.36 914.496 2967.36 913.496 2967.86 912.996 2968.86 912.496 2969.36 911.996 2970.36 911.996 2971.36 911.996 2972.86 912.496 2973.86 912.996 2974.86 913.996 2976.36 914.996 2977.86 917.496 2979.86 918.496 2981.36 919.496 2982.36 920.496 2983.86 920.996 2984.86 921.496 2985.86 921.996 2986.86 921.996 2987.36 921.996 2987.86 921.996 2988.86H909.496V2985.86" fill-rule="evenodd" />
<path transform="matrix(0,.24,.24,0,0,0)" d="M894.996 2970.86C895.496 2969.36 895.996 2967.86 896.996 2966.86 897.996 2965.36 898.996 2964.86 900.496 2964.86 902.496 2964.86 903.996 2965.86 904.996 2967.86 906.496 2969.86 907.496 2973.36 907.496 2977.86 907.496 2981.86 906.496 2984.86 905.496 2986.36 903.996 2988.36 902.496 2989.36 900.496 2989.36 899.496 2989.36 898.496 2988.86 897.496 2988.36 896.496 2987.36 895.996 2986.36 895.496 2985.36 894.996 2983.86 894.996 2982.36 894.996 2981.36 894.996 2978.86 895.496 2976.86 896.496 2975.36 897.496 2974.36 898.996 2973.36 900.496 2973.36 900.996 2973.36 901.996 2973.86 902.996 2974.36 903.496 2974.86 904.496 2975.36 904.996 2976.36 904.996 2974.36 904.496 2972.36 904.496 2971.36 903.996 2969.86 903.496 2968.86 902.496 2968.36 901.996 2967.86 901.496 2967.36 900.496 2967.36 899.496 2967.36 898.996 2967.86 898.496 2968.86 897.996 2969.36 897.496 2969.86 897.496 2971.36L894.996 2970.86ZM904.496 2981.36C904.496 2979.36 903.996 2978.36 903.496 2977.36 902.996 2976.36 901.996 2975.86 900.996 2975.86 899.996 2975.86 898.996 2976.36 897.996 2977.36 897.496 2978.36 896.996 2979.86 896.996 2981.36 896.996 2982.86 897.496 2984.36 897.996 2985.36 898.996 2986.36 899.996 2986.86 900.496 2986.86 901.496 2986.86 901.996 2986.36 902.496 2985.86 903.496 2985.36 903.496 2984.86 903.996 2983.86 904.496 2982.86 904.496 2982.36 904.496 2981.36" fill-rule="evenodd" />
<path transform="matrix(0,.24,.24,0,0,0)" d="M1019 2930.86C1019 2932.86 1018.5 2934.36 1017.5 2935.86 1016 2936.86 1015 2937.36 1013 2937.36 1011.5 2937.36 1010 2936.86 1008.5 2935.36 1007.5 2933.86 1007 2932.36 1007 2930.36 1007 2928.86 1007 2927.36 1007.5 2926.36 1008.5 2925.36 1009 2924.86 1010.5 2924.36 1009.5 2923.86 1009 2923.36 1008.5 2922.36 1008 2921.36 1007.5 2920.86 1007.5 2919.36 1007.5 2918.36 1008 2917.36 1008.5 2916.36 1009 2915.86 1009.5 2914.86 1010.5 2914.36 1011.5 2913.86 1012 2913.36 1013 2913.36 1014.5 2913.36 1016 2913.86 1017 2914.86 1018 2916.36 1018.5 2917.86 1019 2919.36L1016.5 2920.36C1016.5 2918.86 1016 2917.86 1015.5 2916.86 1015 2916.36 1014 2915.86 1013 2915.86 1012.5 2915.86 1011.5 2916.36 1011 2916.86 1010.5 2917.36 1010 2918.36 1010 2919.36 1010 2920.86 1010.5 2921.86 1011.5 2922.36 1012 2923.36 1013 2923.36 1014 2923.36H1014.5C1014.5 2923.36 1014 2923.36 1014.5 2923.36V2925.86C1014 2925.86 1013.5 2925.86 1013 2925.86 1012 2925.86 1011 2925.86 1010.5 2926.86 1009.5 2927.86 1009.5 2928.86 1009.5 2930.36 1009.5 2931.86 1009.5 2932.86 1010.5 2933.86 1011 2934.86 1012 2935.36 1013 2935.36 1014 2935.36 1015 2934.86 1015.5 2933.86 1016 2933.36 1016.5 2932.36 1017 2930.36L1019 2930.86" fill-rule="evenodd" />
<path transform="matrix(0,.24,.24,0,0,0)" d="M1004.5 2925.36C1004.5 2929.86 1004 2933.36 1002.5 2935.36 1001.5 2936.86 999.996 2937.36 998.496 2937.36 996.996 2937.36 995.996 2937.36 994.996 2936.36 993.996 2935.36 993.496 2933.86 992.996 2932.36 992.496 2930.36 991.996 2928.36 991.996 2925.36 991.996 2923.36 992.496 2921.36 992.496 2919.86 992.996 2918.36 993.496 2917.36 993.996 2916.36 994.496 2915.36 994.996 2914.86 995.496 2914.36 996.496 2913.86 997.496 2913.36 998.496 2913.36 999.496 2913.36 1001 2913.86 1002 2914.86 1002.5 2915.86 1003.5 2916.86 1004 2918.86 1004.5 2920.36 1004.5 2922.86 1004.5 2925.36ZM1002 2925.36C1002 2921.86 1001.5 2918.86 1001 2917.36 1000.5 2916.36 999.496 2915.86 998.496 2915.86 997.496 2915.86 996.496 2916.36 995.496 2917.86 994.996 2918.86 994.496 2921.86 994.496 2925.36 994.496 2929.36 994.996 2931.86 995.496 2933.36 996.496 2934.36 997.496 2935.36 998.496 2935.36 999.496 2935.36 1000.5 2934.36 1001 2933.36 1002 2931.86 1002 2929.36 1002 2925.36" fill-rule="evenodd" />
</g></svg>