<?xml version='1.0' encoding='utf-8'?>
<svg xmlns="http://www.w3.org/2000/svg" version="1.1" width="50" height="261" viewBox="646 321 50 261"><path transform="matrix(.75,0,0,.75,0,0)" stroke-width=".96" stroke-linecap="butt" stroke-linejoin="bevel" fill="none" stroke="#000000" d="M891.36 772.8 906.56 764.16" /><path transform="matrix(.75,0,0,.75,0,0)" stroke-width=".96" stroke-linecap="butt" stroke-linejoin="bevel" fill="none" stroke="#000000" d="M905.92 551.68 921.6 525.44 864.96 431.04 887.52 582.08 901.92 558.24" /><path transform="matrix(.75,0,0,.75,0,0)" stroke-width=".96" stroke-linecap="butt" stroke-linejoin="bevel" fill="none" stroke="#000000" d="M891.36 772.8C903.36 738.56 910.4 702.56 912.32 666.24 914.08 629.92 910.56 593.44 901.92 558.24" /><path transform="matrix(.75,0,0,.75,0,0)" stroke-width=".96" stroke-linecap="butt" stroke-linejoin="bevel" fill="none" stroke="#000000" d="M906.56 764.16C918.08 729.92 924 693.92 923.84 657.92 923.84 621.76 917.76 585.76 905.92 551.68" /></svg>