<?xml version='1.0' encoding='utf-8'?>
<svg xmlns="http://www.w3.org/2000/svg" version="1.1" width="276" height="18" viewBox="215 456 276 18"><path transform="matrix(.75,0,0,.75,0,0)" stroke-width=".96" stroke-linecap="butt" stroke-linejoin="bevel" fill="none" stroke="#ffffff" d="M294.56 612.48H309.76" /><path transform="matrix(.75,0,0,.75,0,0)" stroke-width=".96" stroke-linecap="butt" stroke-linejoin="bevel" fill="none" stroke="#ffffff" d="M309.76 627.52H294.56" /><path transform="matrix(.75,0,0,.75,0,0)" stroke-width=".96" stroke-linecap="butt" stroke-linejoin="bevel" fill="none" stroke="#ffffff" d="M309.76 612.48V627.52" /><path transform="matrix(.75,0,0,.75,0,0)" stroke-width=".96" stroke-linecap="butt" stroke-linejoin="bevel" fill="none" stroke="#ffffff" d="M294.56 627.52V612.48" /><path transform="matrix(.75,0,0,.75,0,0)" d="M294.56 627.52H309.76V612.48H294.56Z" fill="#ffffff" fill-rule="evenodd" /><path transform="matrix(.75,0,0,.75,0,0)" stroke-width=".96" stroke-linecap="butt" stroke-linejoin="bevel" fill="none" stroke="#ffffff" d="M332.48 612.48H347.52" /><path transform="matrix(.75,0,0,.75,0,0)" stroke-width=".96" stroke-linecap="butt" stroke-linejoin="bevel" fill="none" stroke="#ffffff" d="M347.52 627.52H332.48" /><path transform="matrix(.75,0,0,.75,0,0)" stroke-width=".96" stroke-linecap="butt" stroke-linejoin="bevel" fill="none" stroke="#ffffff" d="M347.52 612.48V627.52" /><path transform="matrix(.75,0,0,.75,0,0)" stroke-width=".96" stroke-linecap="butt" stroke-linejoin="bevel" fill="none" stroke="#ffffff" d="M332.48 627.52V612.48" /><path transform="matrix(.75,0,0,.75,0,0)" d="M332.48 627.52H347.52V612.48H332.48Z" fill="#ffffff" fill-rule="evenodd" /><path transform="matrix(.75,0,0,.75,0,0)" stroke-width=".96" stroke-linecap="butt" stroke-linejoin="bevel" fill="none" stroke="#ffffff" d="M370.24 612.48H385.28" /><path transform="matrix(.75,0,0,.75,0,0)" stroke-width=".96" stroke-linecap="butt" stroke-linejoin="bevel" fill="none" stroke="#ffffff" d="M385.28 627.52H370.24" /><path transform="matrix(.75,0,0,.75,0,0)" stroke-width=".96" stroke-linecap="butt" stroke-linejoin="bevel" fill="none" stroke="#ffffff" d="M385.28 612.48V627.52" /><path transform="matrix(.75,0,0,.75,0,0)" stroke-width=".96" stroke-linecap="butt" stroke-linejoin="bevel" fill="none" stroke="#ffffff" d="M370.24 627.52V612.48" /><path transform="matrix(.75,0,0,.75,0,0)" d="M370.24 627.52H385.28V612.48H370.24Z" fill="#ffffff" fill-rule="evenodd" /><path transform="matrix(.75,0,0,.75,0,0)" stroke-width=".96" stroke-linecap="butt" stroke-linejoin="bevel" fill="none" stroke="#ffffff" d="M408 612.48H423.2" /><path transform="matrix(.75,0,0,.75,0,0)" stroke-width=".96" stroke-linecap="butt" stroke-linejoin="bevel" fill="none" stroke="#ffffff" d="M423.2 627.52H408" /><path transform="matrix(.75,0,0,.75,0,0)" stroke-width=".96" stroke-linecap="butt" stroke-linejoin="bevel" fill="none" stroke="#ffffff" d="M423.2 612.48V627.52" /><path transform="matrix(.75,0,0,.75,0,0)" stroke-width=".96" stroke-linecap="butt" stroke-linejoin="bevel" fill="none" stroke="#ffffff" d="M408 627.52V612.48" /><path transform="matrix(.75,0,0,.75,0,0)" d="M408 627.52H423.2V612.48H408Z" fill="#ffffff" fill-rule="evenodd" /><path transform="matrix(.75,0,0,.75,0,0)" stroke-width=".96" stroke-linecap="butt" stroke-linejoin="bevel" fill="none" stroke="#ffffff" d="M445.76 612.48H460.96" /><path transform="matrix(.75,0,0,.75,0,0)" stroke-width=".96" stroke-linecap="butt" stroke-linejoin="bevel" fill="none" stroke="#ffffff" d="M460.96 627.52H445.76" /><path transform="matrix(.75,0,0,.75,0,0)" stroke-width=".96" stroke-linecap="butt" stroke-linejoin="bevel" fill="none" stroke="#ffffff" d="M460.96 612.48V627.52" /><path transform="matrix(.75,0,0,.75,0,0)" stroke-width=".96" stroke-linecap="butt" stroke-linejoin="bevel" fill="none" stroke="#ffffff" d="M445.76 627.52V612.48" /><path transform="matrix(.75,0,0,.75,0,0)" d="M445.76 627.52H460.96V612.48H445.76Z" fill="#ffffff" fill-rule="evenodd" /><path transform="matrix(.75,0,0,.75,0,0)" stroke-width=".96" stroke-linecap="butt" stroke-linejoin="bevel" fill="none" stroke="#ffffff" d="M483.68 612.48H498.72" /><path transform="matrix(.75,0,0,.75,0,0)" stroke-width=".96" stroke-linecap="butt" stroke-linejoin="bevel" fill="none" stroke="#ffffff" d="M498.72 627.52H483.68" /><path transform="matrix(.75,0,0,.75,0,0)" stroke-width=".96" stroke-linecap="butt" stroke-linejoin="bevel" fill="none" stroke="#ffffff" d="M498.72 612.48V627.52" /><path transform="matrix(.75,0,0,.75,0,0)" stroke-width=".96" stroke-linecap="butt" stroke-linejoin="bevel" fill="none" stroke="#ffffff" d="M483.68 627.52V612.48" /><path transform="matrix(.75,0,0,.75,0,0)" d="M483.68 627.52H498.72V612.48H483.68Z" fill="#ffffff" fill-rule="evenodd" /><path transform="matrix(.75,0,0,.75,0,0)" stroke-width=".96" stroke-linecap="butt" stroke-linejoin="bevel" fill="none" stroke="#ffffff" d="M521.44 612.48H536.48" /><path transform="matrix(.75,0,0,.75,0,0)" stroke-width=".96" stroke-linecap="butt" stroke-linejoin="bevel" fill="none" stroke="#ffffff" d="M536.48 627.52H521.44" /><path transform="matrix(.75,0,0,.75,0,0)" stroke-width=".96" stroke-linecap="butt" stroke-linejoin="bevel" fill="none" stroke="#ffffff" d="M536.48 612.48V627.52" /><path transform="matrix(.75,0,0,.75,0,0)" stroke-width=".96" stroke-linecap="butt" stroke-linejoin="bevel" fill="none" stroke="#ffffff" d="M521.44 627.52V612.48" /><path transform="matrix(.75,0,0,.75,0,0)" d="M521.44 627.52H536.48V612.48H521.44Z" fill="#ffffff" fill-rule="evenodd" /><path transform="matrix(.75,0,0,.75,0,0)" stroke-width=".96" stroke-linecap="butt" stroke-linejoin="bevel" fill="none" stroke="#ffffff" d="M559.2 612.48H574.24" /><path transform="matrix(.75,0,0,.75,0,0)" stroke-width=".96" stroke-linecap="butt" stroke-linejoin="bevel" fill="none" stroke="#ffffff" d="M574.24 627.52H559.2" /><path transform="matrix(.75,0,0,.75,0,0)" stroke-width=".96" stroke-linecap="butt" stroke-linejoin="bevel" fill="none" stroke="#ffffff" d="M574.24 612.48V627.52" /><path transform="matrix(.75,0,0,.75,0,0)" stroke-width=".96" stroke-linecap="butt" stroke-linejoin="bevel" fill="none" stroke="#ffffff" d="M559.2 627.52V612.48" /><path transform="matrix(.75,0,0,.75,0,0)" d="M559.2 627.52H574.24V612.48H559.2Z" fill="#ffffff" fill-rule="evenodd" /><path transform="matrix(.75,0,0,.75,0,0)" stroke-width=".96" stroke-linecap="butt" stroke-linejoin="bevel" fill="none" stroke="#ffffff" d="M596.96 612.48H612.16" /><path transform="matrix(.75,0,0,.75,0,0)" stroke-width=".96" stroke-linecap="butt" stroke-linejoin="bevel" fill="none" stroke="#ffffff" d="M612.16 627.52H596.96" /><path transform="matrix(.75,0,0,.75,0,0)" stroke-width=".96" stroke-linecap="butt" stroke-linejoin="bevel" fill="none" stroke="#ffffff" d="M612.16 612.48V627.52" /><path transform="matrix(.75,0,0,.75,0,0)" stroke-width=".96" stroke-linecap="butt" stroke-linejoin="bevel" fill="none" stroke="#ffffff" d="M596.96 627.52V612.48" /><path transform="matrix(.75,0,0,.75,0,0)" d="M596.96 627.52H612.16V612.48H596.96Z" fill="#ffffff" fill-rule="evenodd" /><path transform="matrix(.75,0,0,.75,0,0)" stroke-width=".96" stroke-linecap="butt" stroke-linejoin="bevel" fill="none" stroke="#ffffff" d="M634.72 612.48H649.92" /><path transform="matrix(.75,0,0,.75,0,0)" stroke-width=".96" stroke-linecap="butt" stroke-linejoin="bevel" fill="none" stroke="#ffffff" d="M649.92 627.52H634.72" /><path transform="matrix(.75,0,0,.75,0,0)" stroke-width=".96" stroke-linecap="butt" stroke-linejoin="bevel" fill="none" stroke="#ffffff" d="M649.92 612.48V627.52" /><path transform="matrix(.75,0,0,.75,0,0)" stroke-width=".96" stroke-linecap="butt" stroke-linejoin="bevel" fill="none" stroke="#ffffff" d="M634.72 627.52V612.48" /><path transform="matrix(.75,0,0,.75,0,0)" d="M634.72 612.48H649.92V627.52H634.72Z" fill="#ffffff" fill-rule="evenodd" /><path transform="matrix(.75,0,0,.75,0,0)" stroke-width=".96" stroke-linecap="butt" stroke-linejoin="bevel" fill="none" stroke="#ffffff" d="M294.56 612.48H309.76" /><path transform="matrix(.75,0,0,.75,0,0)" stroke-width=".96" stroke-linecap="butt" stroke-linejoin="bevel" fill="none" stroke="#ffffff" d="M309.76 627.52H294.56" /><path transform="matrix(.75,0,0,.75,0,0)" stroke-width=".96" stroke-linecap="butt" stroke-linejoin="bevel" fill="none" stroke="#ffffff" d="M309.76 612.48V627.52" /><path transform="matrix(.75,0,0,.75,0,0)" stroke-width=".96" stroke-linecap="butt" stroke-linejoin="bevel" fill="none" stroke="#ffffff" d="M294.56 627.52V612.48" /><path transform="matrix(.75,0,0,.75,0,0)" d="M294.56 627.52H309.76V612.48H294.56Z" fill="#ffffff" fill-rule="evenodd" /><path transform="matrix(.75,0,0,.75,0,0)" stroke-width=".96" stroke-linecap="butt" stroke-linejoin="bevel" fill="none" stroke="#ffffff" d="M332.48 612.48H347.52" /><path transform="matrix(.75,0,0,.75,0,0)" stroke-width=".96" stroke-linecap="butt" stroke-linejoin="bevel" fill="none" stroke="#ffffff" d="M347.52 627.52H332.48" /><path transform="matrix(.75,0,0,.75,0,0)" stroke-width=".96" stroke-linecap="butt" stroke-linejoin="bevel" fill="none" stroke="#ffffff" d="M347.52 612.48V627.52" /><path transform="matrix(.75,0,0,.75,0,0)" stroke-width=".96" stroke-linecap="butt" stroke-linejoin="bevel" fill="none" stroke="#ffffff" d="M332.48 627.52V612.48" /><path transform="matrix(.75,0,0,.75,0,0)" d="M332.48 627.52H347.52V612.48H332.48Z" fill="#ffffff" fill-rule="evenodd" /><path transform="matrix(.75,0,0,.75,0,0)" stroke-width=".96" stroke-linecap="butt" stroke-linejoin="bevel" fill="none" stroke="#ffffff" d="M370.24 612.48H385.28" /><path transform="matrix(.75,0,0,.75,0,0)" stroke-width=".96" stroke-linecap="butt" stroke-linejoin="bevel" fill="none" stroke="#ffffff" d="M385.28 627.52H370.24" /><path transform="matrix(.75,0,0,.75,0,0)" stroke-width=".96" stroke-linecap="butt" stroke-linejoin="bevel" fill="none" stroke="#ffffff" d="M385.28 612.48V627.52" /><path transform="matrix(.75,0,0,.75,0,0)" stroke-width=".96" stroke-linecap="butt" stroke-linejoin="bevel" fill="none" stroke="#ffffff" d="M370.24 627.52V612.48" /><path transform="matrix(.75,0,0,.75,0,0)" d="M370.24 627.52H385.28V612.48H370.24Z" fill="#ffffff" fill-rule="evenodd" /><path transform="matrix(.75,0,0,.75,0,0)" stroke-width=".96" stroke-linecap="butt" stroke-linejoin="bevel" fill="none" stroke="#ffffff" d="M408 612.48H423.2" /><path transform="matrix(.75,0,0,.75,0,0)" stroke-width=".96" stroke-linecap="butt" stroke-linejoin="bevel" fill="none" stroke="#ffffff" d="M423.2 627.52H408" /><path transform="matrix(.75,0,0,.75,0,0)" stroke-width=".96" stroke-linecap="butt" stroke-linejoin="bevel" fill="none" stroke="#ffffff" d="M423.2 612.48V627.52" /><path transform="matrix(.75,0,0,.75,0,0)" stroke-width=".96" stroke-linecap="butt" stroke-linejoin="bevel" fill="none" stroke="#ffffff" d="M408 627.52V612.48" /><path transform="matrix(.75,0,0,.75,0,0)" d="M408 627.52H423.2V612.48H408Z" fill="#ffffff" fill-rule="evenodd" /><path transform="matrix(.75,0,0,.75,0,0)" stroke-width=".96" stroke-linecap="butt" stroke-linejoin="bevel" fill="none" stroke="#ffffff" d="M445.76 612.48H460.96" /><path transform="matrix(.75,0,0,.75,0,0)" stroke-width=".96" stroke-linecap="butt" stroke-linejoin="bevel" fill="none" stroke="#ffffff" d="M460.96 627.52H445.76" /><path transform="matrix(.75,0,0,.75,0,0)" stroke-width=".96" stroke-linecap="butt" stroke-linejoin="bevel" fill="none" stroke="#ffffff" d="M460.96 612.48V627.52" /><path transform="matrix(.75,0,0,.75,0,0)" stroke-width=".96" stroke-linecap="butt" stroke-linejoin="bevel" fill="none" stroke="#ffffff" d="M445.76 627.52V612.48" /><path transform="matrix(.75,0,0,.75,0,0)" d="M445.76 627.52H460.96V612.48H445.76Z" fill="#ffffff" fill-rule="evenodd" /><path transform="matrix(.75,0,0,.75,0,0)" stroke-width=".96" stroke-linecap="butt" stroke-linejoin="bevel" fill="none" stroke="#ffffff" d="M483.68 612.48H498.72" /><path transform="matrix(.75,0,0,.75,0,0)" stroke-width=".96" stroke-linecap="butt" stroke-linejoin="bevel" fill="none" stroke="#ffffff" d="M498.72 627.52H483.68" /><path transform="matrix(.75,0,0,.75,0,0)" stroke-width=".96" stroke-linecap="butt" stroke-linejoin="bevel" fill="none" stroke="#ffffff" d="M498.72 612.48V627.52" /><path transform="matrix(.75,0,0,.75,0,0)" stroke-width=".96" stroke-linecap="butt" stroke-linejoin="bevel" fill="none" stroke="#ffffff" d="M483.68 627.52V612.48" /><path transform="matrix(.75,0,0,.75,0,0)" d="M483.68 627.52H498.72V612.48H483.68Z" fill="#ffffff" fill-rule="evenodd" /><path transform="matrix(.75,0,0,.75,0,0)" stroke-width=".96" stroke-linecap="butt" stroke-linejoin="bevel" fill="none" stroke="#ffffff" d="M521.44 612.48H536.48" /><path transform="matrix(.75,0,0,.75,0,0)" stroke-width=".96" stroke-linecap="butt" stroke-linejoin="bevel" fill="none" stroke="#ffffff" d="M536.48 627.52H521.44" /><path transform="matrix(.75,0,0,.75,0,0)" stroke-width=".96" stroke-linecap="butt" stroke-linejoin="bevel" fill="none" stroke="#ffffff" d="M536.48 612.48V627.52" /><path transform="matrix(.75,0,0,.75,0,0)" stroke-width=".96" stroke-linecap="butt" stroke-linejoin="bevel" fill="none" stroke="#ffffff" d="M521.44 627.52V612.48" /><path transform="matrix(.75,0,0,.75,0,0)" d="M521.44 627.52H536.48V612.48H521.44Z" fill="#ffffff" fill-rule="evenodd" /><path transform="matrix(.75,0,0,.75,0,0)" stroke-width=".96" stroke-linecap="butt" stroke-linejoin="bevel" fill="none" stroke="#ffffff" d="M559.2 612.48H574.24" /><path transform="matrix(.75,0,0,.75,0,0)" stroke-width=".96" stroke-linecap="butt" stroke-linejoin="bevel" fill="none" stroke="#ffffff" d="M574.24 627.52H559.2" /><path transform="matrix(.75,0,0,.75,0,0)" stroke-width=".96" stroke-linecap="butt" stroke-linejoin="bevel" fill="none" stroke="#ffffff" d="M574.24 612.48V627.52" /><path transform="matrix(.75,0,0,.75,0,0)" stroke-width=".96" stroke-linecap="butt" stroke-linejoin="bevel" fill="none" stroke="#ffffff" d="M559.2 627.52V612.48" /><path transform="matrix(.75,0,0,.75,0,0)" d="M559.2 627.52H574.24V612.48H559.2Z" fill="#ffffff" fill-rule="evenodd" /><path transform="matrix(.75,0,0,.75,0,0)" stroke-width=".96" stroke-linecap="butt" stroke-linejoin="bevel" fill="none" stroke="#ffffff" d="M596.96 612.48H612.16" /><path transform="matrix(.75,0,0,.75,0,0)" stroke-width=".96" stroke-linecap="butt" stroke-linejoin="bevel" fill="none" stroke="#ffffff" d="M612.16 627.52H596.96" /><path transform="matrix(.75,0,0,.75,0,0)" stroke-width=".96" stroke-linecap="butt" stroke-linejoin="bevel" fill="none" stroke="#ffffff" d="M612.16 612.48V627.52" /><path transform="matrix(.75,0,0,.75,0,0)" stroke-width=".96" stroke-linecap="butt" stroke-linejoin="bevel" fill="none" stroke="#ffffff" d="M596.96 627.52V612.48" /><path transform="matrix(.75,0,0,.75,0,0)" d="M596.96 627.52H612.16V612.48H596.96Z" fill="#ffffff" fill-rule="evenodd" /><path transform="matrix(.75,0,0,.75,0,0)" stroke-width=".96" stroke-linecap="butt" stroke-linejoin="bevel" fill="none" stroke="#ffffff" d="M634.72 612.48H649.92" /><path transform="matrix(.75,0,0,.75,0,0)" stroke-width=".96" stroke-linecap="butt" stroke-linejoin="bevel" fill="none" stroke="#ffffff" d="M649.92 627.52H634.72" /><path transform="matrix(.75,0,0,.75,0,0)" stroke-width=".96" stroke-linecap="butt" stroke-linejoin="bevel" fill="none" stroke="#ffffff" d="M649.92 612.48V627.52" /><path transform="matrix(.75,0,0,.75,0,0)" stroke-width=".96" stroke-linecap="butt" stroke-linejoin="bevel" fill="none" stroke="#ffffff" d="M634.72 627.52V612.48" /><path transform="matrix(.75,0,0,.75,0,0)" d="M634.72 612.48H649.92V627.52H634.72Z" fill="#ffffff" fill-rule="evenodd" /></svg>